<?xml version="1.0" encoding="UTF-8"?>
<svg xmlns="http://www.w3.org/2000/svg" xmlns:xlink="http://www.w3.org/1999/xlink" width="402.85pt" height="292.32pt" viewBox="0 0 402.85 292.32" version="1.1">
<defs>
<g>
<symbol overflow="visible" id="glyph0-0">
<path style="stroke:none;" d="M 0.390625 0 L 0.390625 -7.96875 L 3.5625 -7.96875 L 3.5625 0 Z M 0.796875 -0.390625 L 3.171875 -0.390625 L 3.171875 -7.5625 L 0.796875 -7.5625 Z M 0.796875 -0.390625 "/>
</symbol>
<symbol overflow="visible" id="glyph0-1">
<path style="stroke:none;" d="M 2.640625 -3.671875 C 2.640625 -3.671875 1.953125 -4.707031 0.578125 -6.78125 C 0.523438 -6.851562 0.5 -6.929688 0.5 -7.015625 C 0.5 -7.222656 0.617188 -7.328125 0.859375 -7.328125 C 0.984375 -7.328125 1.09375 -7.257812 1.1875 -7.125 L 3.078125 -4.328125 L 4.984375 -7.171875 C 5.066406 -7.285156 5.175781 -7.34375 5.3125 -7.34375 C 5.539062 -7.34375 5.65625 -7.238281 5.65625 -7.03125 C 5.65625 -6.9375 5.613281 -6.828125 5.53125 -6.703125 L 3.5 -3.671875 L 5.5625 -0.5625 C 5.613281 -0.488281 5.640625 -0.421875 5.640625 -0.359375 C 5.640625 -0.117188 5.519531 0 5.28125 0 C 5.144531 0 5.035156 -0.0664062 4.953125 -0.203125 L 3.078125 -3.046875 L 1.171875 -0.1875 C 1.085938 -0.0625 0.988281 0 0.875 0 C 0.613281 0 0.484375 -0.113281 0.484375 -0.34375 C 0.484375 -0.414062 0.519531 -0.507812 0.59375 -0.625 Z M 2.640625 -3.671875 "/>
</symbol>
<symbol overflow="visible" id="glyph0-2">
<path style="stroke:none;" d="M 1.453125 -6.65625 C 1.453125 -6.65625 1.453125 -5.660156 1.453125 -3.671875 L 3.0625 -3.671875 C 3.394531 -3.671875 3.703125 -3.816406 3.984375 -4.109375 C 4.273438 -4.390625 4.421875 -4.738281 4.421875 -5.15625 C 4.421875 -5.582031 4.273438 -5.9375 3.984375 -6.21875 C 3.703125 -6.507812 3.328125 -6.65625 2.859375 -6.65625 Z M 1.453125 -0.421875 C 1.453125 -0.160156 1.332031 -0.03125 1.09375 -0.03125 C 0.851562 -0.03125 0.734375 -0.164062 0.734375 -0.4375 L 0.734375 -6.96875 C 0.734375 -7.21875 0.863281 -7.34375 1.125 -7.34375 L 3.015625 -7.34375 C 3.617188 -7.34375 4.140625 -7.101562 4.578125 -6.625 C 4.941406 -6.21875 5.125 -5.769531 5.125 -5.28125 C 5.125 -4.695312 4.992188 -4.234375 4.734375 -3.890625 C 4.265625 -3.265625 3.707031 -2.953125 3.0625 -2.953125 L 1.453125 -2.953125 Z M 1.453125 -0.421875 "/>
</symbol>
<symbol overflow="visible" id="glyph0-3">
<path style="stroke:none;" d="M 1.359375 -0.359375 C 1.359375 -0.523438 1.472656 -0.644531 1.703125 -0.71875 C 2.023438 -0.820312 2.304688 -0.972656 2.546875 -1.171875 C 3.117188 -1.648438 3.453125 -2.242188 3.546875 -2.953125 L 2.359375 -2.953125 C 1.953125 -2.953125 1.578125 -3.097656 1.234375 -3.390625 C 0.828125 -3.742188 0.625 -4.15625 0.625 -4.625 C 0.625 -4.625 0.625 -4.96875 0.625 -5.65625 C 0.625 -6.195312 0.890625 -6.660156 1.421875 -7.046875 C 1.703125 -7.242188 2.0625 -7.34375 2.5 -7.34375 C 2.96875 -7.34375 3.390625 -7.160156 3.765625 -6.796875 C 4.109375 -6.460938 4.28125 -6.035156 4.28125 -5.515625 C 4.28125 -5.515625 4.28125 -4.769531 4.28125 -3.28125 C 4.28125 -2.800781 4.195312 -2.375 4.03125 -2 C 3.75 -1.394531 3.429688 -0.953125 3.078125 -0.671875 C 2.484375 -0.222656 2.03125 0 1.71875 0 C 1.476562 0 1.359375 -0.117188 1.359375 -0.359375 Z M 3.5625 -5.46875 C 3.5625 -5.800781 3.460938 -6.070312 3.265625 -6.28125 C 3.046875 -6.519531 2.769531 -6.640625 2.4375 -6.640625 C 2.15625 -6.640625 1.898438 -6.539062 1.671875 -6.34375 C 1.441406 -6.132812 1.328125 -5.863281 1.328125 -5.53125 L 1.328125 -4.734375 C 1.328125 -4.410156 1.457031 -4.140625 1.71875 -3.921875 C 1.9375 -3.742188 2.242188 -3.65625 2.640625 -3.65625 L 3.5625 -3.65625 C 3.5625 -3.65625 3.5625 -4.257812 3.5625 -5.46875 Z M 3.5625 -5.46875 "/>
</symbol>
<symbol overflow="visible" id="glyph0-4">
<path style="stroke:none;" d="M 2.5625 -3.703125 C 2.269531 -3.703125 2.015625 -3.597656 1.796875 -3.390625 C 1.554688 -3.160156 1.4375 -2.898438 1.4375 -2.609375 L 1.4375 -1.71875 C 1.4375 -1.476562 1.578125 -1.226562 1.859375 -0.96875 C 2.023438 -0.800781 2.257812 -0.71875 2.5625 -0.71875 C 2.820312 -0.71875 3.082031 -0.828125 3.34375 -1.046875 C 3.570312 -1.234375 3.6875 -1.5 3.6875 -1.84375 L 3.6875 -2.5625 C 3.6875 -2.84375 3.570312 -3.113281 3.34375 -3.375 C 3.15625 -3.59375 2.894531 -3.703125 2.5625 -3.703125 Z M 1.796875 -6.359375 C 1.554688 -6.109375 1.4375 -5.847656 1.4375 -5.578125 C 1.4375 -5.316406 1.519531 -5.066406 1.6875 -4.828125 C 1.875 -4.554688 2.160156 -4.421875 2.546875 -4.421875 C 2.921875 -4.421875 3.207031 -4.535156 3.40625 -4.765625 C 3.601562 -4.992188 3.703125 -5.253906 3.703125 -5.546875 C 3.703125 -5.835938 3.570312 -6.101562 3.3125 -6.34375 C 3.09375 -6.550781 2.832031 -6.65625 2.53125 -6.65625 C 2.21875 -6.65625 1.972656 -6.554688 1.796875 -6.359375 Z M 1.46875 -4.0625 C 0.976562 -4.445312 0.734375 -4.972656 0.734375 -5.640625 C 0.734375 -6.179688 0.953125 -6.617188 1.390625 -6.953125 C 1.765625 -7.234375 2.160156 -7.375 2.578125 -7.375 C 2.929688 -7.375 3.234375 -7.296875 3.484375 -7.140625 C 4.097656 -6.765625 4.40625 -6.234375 4.40625 -5.546875 C 4.40625 -4.898438 4.160156 -4.398438 3.671875 -4.046875 C 4.160156 -3.648438 4.40625 -3.164062 4.40625 -2.59375 L 4.40625 -1.765625 C 4.40625 -1.296875 4.195312 -0.863281 3.78125 -0.46875 C 3.46875 -0.164062 3.070312 -0.015625 2.59375 -0.015625 C 2.050781 -0.015625 1.644531 -0.15625 1.375 -0.4375 C 0.945312 -0.851562 0.734375 -1.285156 0.734375 -1.734375 L 0.734375 -2.640625 C 0.734375 -3.160156 0.976562 -3.632812 1.46875 -4.0625 Z M 1.46875 -4.0625 "/>
</symbol>
<symbol overflow="visible" id="glyph0-5">
<path style="stroke:none;" d="M 3.71875 -7.34375 C 3.988281 -7.34375 4.125 -7.234375 4.125 -7.015625 C 4.125 -6.941406 4.09375 -6.75 4.03125 -6.4375 C 4.03125 -6.4375 3.582031 -4.40625 2.6875 -0.34375 C 2.632812 -0.113281 2.519531 0 2.34375 0 C 2.09375 0 1.96875 -0.109375 1.96875 -0.328125 C 1.96875 -0.367188 1.972656 -0.410156 1.984375 -0.453125 L 3.359375 -6.640625 L 1.171875 -6.640625 C 1.171875 -6.640625 1.171875 -6.515625 1.171875 -6.265625 C 1.171875 -6.035156 1.054688 -5.921875 0.828125 -5.921875 C 0.597656 -5.921875 0.484375 -6.039062 0.484375 -6.28125 C 0.484375 -6.28125 0.484375 -6.53125 0.484375 -7.03125 C 0.484375 -7.238281 0.613281 -7.34375 0.875 -7.34375 C 0.875 -7.34375 1.820312 -7.34375 3.71875 -7.34375 Z M 3.71875 -7.34375 "/>
</symbol>
<symbol overflow="visible" id="glyph0-6">
<path style="stroke:none;" d="M 1.71875 -7.1875 C 1.832031 -7.289062 1.945312 -7.34375 2.0625 -7.34375 C 2.3125 -7.34375 2.4375 -7.210938 2.4375 -6.953125 L 2.4375 -0.4375 C 2.4375 -0.164062 2.316406 -0.03125 2.078125 -0.03125 C 1.835938 -0.03125 1.71875 -0.164062 1.71875 -0.4375 C 1.71875 -0.4375 1.71875 -2.351562 1.71875 -6.1875 L 0.875 -5.328125 C 0.789062 -5.242188 0.703125 -5.203125 0.609375 -5.203125 C 0.367188 -5.203125 0.25 -5.3125 0.25 -5.53125 C 0.25 -5.632812 0.296875 -5.738281 0.390625 -5.84375 Z M 1.71875 -7.1875 "/>
</symbol>
<symbol overflow="visible" id="glyph0-7">
<path style="stroke:none;" d="M 2.328125 -6.65625 C 2.097656 -6.65625 1.9375 -6.554688 1.84375 -6.359375 C 1.59375 -5.859375 1.410156 -5.285156 1.296875 -4.640625 C 1.234375 -4.335938 1.203125 -4.03125 1.203125 -3.71875 C 1.203125 -3.488281 1.21875 -3.265625 1.25 -3.046875 C 1.34375 -2.304688 1.503906 -1.679688 1.734375 -1.171875 C 1.867188 -0.859375 2.0625 -0.703125 2.3125 -0.703125 C 2.5625 -0.703125 2.757812 -0.84375 2.90625 -1.125 C 3.113281 -1.539062 3.273438 -2.109375 3.390625 -2.828125 C 3.429688 -3.140625 3.453125 -3.4375 3.453125 -3.71875 C 3.453125 -4.007812 3.429688 -4.289062 3.390625 -4.5625 C 3.265625 -5.25 3.070312 -5.847656 2.8125 -6.359375 C 2.707031 -6.554688 2.546875 -6.65625 2.328125 -6.65625 Z M 2.34375 -7.34375 C 2.789062 -7.34375 3.128906 -7.171875 3.359375 -6.828125 C 3.722656 -6.304688 3.972656 -5.5625 4.109375 -4.59375 C 4.148438 -4.3125 4.171875 -4.019531 4.171875 -3.71875 C 4.171875 -3.40625 4.148438 -3.097656 4.109375 -2.796875 C 3.972656 -1.835938 3.734375 -1.09375 3.390625 -0.5625 C 3.148438 -0.1875 2.796875 0 2.328125 0 C 1.867188 0 1.519531 -0.191406 1.28125 -0.578125 C 0.976562 -1.046875 0.738281 -1.773438 0.5625 -2.765625 C 0.507812 -3.054688 0.484375 -3.351562 0.484375 -3.65625 C 0.484375 -3.96875 0.507812 -4.285156 0.5625 -4.609375 C 0.738281 -5.597656 0.960938 -6.3125 1.234375 -6.75 C 1.484375 -7.144531 1.851562 -7.34375 2.34375 -7.34375 Z M 2.34375 -7.34375 "/>
</symbol>
<symbol overflow="visible" id="glyph0-8">
<path style="stroke:none;" d="M 4.453125 -1.734375 L 4.453125 -7 C 4.453125 -7.25 4.5625 -7.375 4.78125 -7.375 C 5.007812 -7.375 5.125 -7.253906 5.125 -7.015625 L 5.125 -0.4375 C 5.125 -0.164062 5.015625 -0.03125 4.796875 -0.03125 C 4.648438 -0.03125 4.523438 -0.117188 4.421875 -0.296875 L 1.4375 -5.640625 L 1.4375 -0.4375 C 1.4375 -0.175781 1.3125 -0.046875 1.0625 -0.046875 C 0.84375 -0.046875 0.734375 -0.175781 0.734375 -0.4375 L 0.734375 -6.9375 C 0.734375 -7.226562 0.847656 -7.375 1.078125 -7.375 C 1.234375 -7.375 1.351562 -7.300781 1.4375 -7.15625 Z M 4.453125 -1.734375 "/>
</symbol>
<symbol overflow="visible" id="glyph0-9">
<path style="stroke:none;" d="M 1.953125 -7.109375 C 2.003906 -7.285156 2.125 -7.375 2.3125 -7.375 C 2.539062 -7.375 2.65625 -7.257812 2.65625 -7.03125 C 2.65625 -6.976562 2.644531 -6.914062 2.625 -6.84375 L 1.296875 -2.203125 L 3.0625 -2.203125 L 3.0625 -3.265625 C 3.0625 -3.546875 3.179688 -3.6875 3.421875 -3.6875 C 3.648438 -3.6875 3.765625 -3.535156 3.765625 -3.234375 L 3.765625 -2.203125 C 3.765625 -2.203125 4.015625 -2.203125 4.515625 -2.203125 C 4.753906 -2.203125 4.875 -2.078125 4.875 -1.828125 C 4.875 -1.617188 4.75 -1.515625 4.5 -1.515625 L 3.765625 -1.515625 L 3.765625 -0.40625 C 3.765625 -0.144531 3.644531 -0.015625 3.40625 -0.015625 C 3.175781 -0.015625 3.0625 -0.140625 3.0625 -0.390625 L 3.0625 -1.5 L 0.828125 -1.5 C 0.597656 -1.5 0.484375 -1.609375 0.484375 -1.828125 C 0.484375 -1.890625 0.507812 -2.003906 0.5625 -2.171875 C 0.5625 -2.171875 1.023438 -3.816406 1.953125 -7.109375 Z M 1.953125 -7.109375 "/>
</symbol>
<symbol overflow="visible" id="glyph0-10">
<path style="stroke:none;" d="M 1.375 -4.390625 C 1.375 -4.390625 1.734375 -4.390625 2.453125 -4.390625 C 3.003906 -4.390625 3.460938 -4.1875 3.828125 -3.78125 C 4.140625 -3.425781 4.296875 -3.050781 4.296875 -2.65625 C 4.296875 -2.65625 4.296875 -2.328125 4.296875 -1.671875 C 4.296875 -1.253906 4.09375 -0.847656 3.6875 -0.453125 C 3.375 -0.148438 2.9375 0 2.375 0 C 1.914062 0 1.507812 -0.171875 1.15625 -0.515625 C 0.800781 -0.847656 0.625 -1.234375 0.625 -1.671875 L 0.625 -4.203125 C 0.625 -4.941406 0.910156 -5.644531 1.484375 -6.3125 C 1.828125 -6.71875 2.285156 -7.035156 2.859375 -7.265625 C 2.992188 -7.316406 3.109375 -7.34375 3.203125 -7.34375 C 3.429688 -7.34375 3.546875 -7.21875 3.546875 -6.96875 C 3.546875 -6.820312 3.441406 -6.710938 3.234375 -6.640625 C 2.785156 -6.484375 2.425781 -6.269531 2.15625 -6 C 1.707031 -5.5625 1.445312 -5.023438 1.375 -4.390625 Z M 1.328125 -1.75 C 1.328125 -1.46875 1.460938 -1.203125 1.734375 -0.953125 C 1.929688 -0.773438 2.175781 -0.6875 2.46875 -0.6875 C 2.695312 -0.6875 2.960938 -0.800781 3.265625 -1.03125 C 3.484375 -1.195312 3.59375 -1.441406 3.59375 -1.765625 L 3.59375 -2.5 C 3.59375 -2.820312 3.484375 -3.101562 3.265625 -3.34375 C 3.046875 -3.570312 2.78125 -3.6875 2.46875 -3.6875 L 1.328125 -3.6875 Z M 1.328125 -1.75 "/>
</symbol>
<symbol overflow="visible" id="glyph0-11">
<path style="stroke:none;" d="M 0.625 -6.984375 C 0.625 -7.222656 0.769531 -7.34375 1.0625 -7.34375 C 1.0625 -7.34375 2.015625 -7.34375 3.921875 -7.34375 C 4.191406 -7.34375 4.328125 -7.226562 4.328125 -7 C 4.328125 -6.769531 4.195312 -6.65625 3.9375 -6.65625 L 1.34375 -6.65625 L 1.34375 -4.390625 L 2.421875 -4.390625 C 3.054688 -4.390625 3.5625 -4.15625 3.9375 -3.6875 C 4.1875 -3.382812 4.3125 -3.015625 4.3125 -2.578125 L 4.3125 -1.796875 C 4.3125 -1.273438 4.132812 -0.847656 3.78125 -0.515625 C 3.414062 -0.171875 3.003906 0 2.546875 0 L 1.03125 0 C 0.78125 0 0.65625 -0.113281 0.65625 -0.34375 C 0.65625 -0.570312 0.789062 -0.6875 1.0625 -0.6875 L 2.421875 -0.6875 C 2.828125 -0.6875 3.140625 -0.828125 3.359375 -1.109375 C 3.523438 -1.316406 3.609375 -1.5625 3.609375 -1.84375 L 3.609375 -2.578125 C 3.609375 -2.867188 3.507812 -3.117188 3.3125 -3.328125 C 3.101562 -3.566406 2.773438 -3.6875 2.328125 -3.6875 L 0.984375 -3.6875 C 0.742188 -3.6875 0.625 -3.828125 0.625 -4.109375 Z M 0.625 -6.984375 "/>
</symbol>
<symbol overflow="visible" id="glyph0-12">
<path style="stroke:none;" d="M 0.953125 -7.375 C 0.953125 -7.375 1.460938 -7.375 2.484375 -7.375 C 2.921875 -7.375 3.316406 -7.1875 3.671875 -6.8125 C 3.992188 -6.457031 4.15625 -6.046875 4.15625 -5.578125 C 4.15625 -4.984375 3.898438 -4.476562 3.390625 -4.0625 C 3.890625 -3.707031 4.140625 -3.265625 4.140625 -2.734375 C 4.140625 -2.734375 4.140625 -2.378906 4.140625 -1.671875 C 4.140625 -1.253906 3.957031 -0.863281 3.59375 -0.5 C 3.28125 -0.1875 2.863281 -0.03125 2.34375 -0.03125 C 2.34375 -0.03125 1.863281 -0.03125 0.90625 -0.03125 C 0.625 -0.03125 0.484375 -0.148438 0.484375 -0.390625 C 0.484375 -0.597656 0.628906 -0.703125 0.921875 -0.703125 C 0.921875 -0.703125 1.347656 -0.703125 2.203125 -0.703125 C 2.597656 -0.703125 2.910156 -0.820312 3.140625 -1.0625 C 3.347656 -1.28125 3.453125 -1.5625 3.453125 -1.90625 L 3.453125 -2.546875 C 3.453125 -2.878906 3.351562 -3.144531 3.15625 -3.34375 C 2.925781 -3.59375 2.675781 -3.71875 2.40625 -3.71875 L 1.671875 -3.71875 C 1.398438 -3.71875 1.265625 -3.84375 1.265625 -4.09375 C 1.265625 -4.300781 1.398438 -4.40625 1.671875 -4.40625 L 2.328125 -4.40625 C 2.628906 -4.40625 2.890625 -4.515625 3.109375 -4.734375 C 3.335938 -4.972656 3.453125 -5.242188 3.453125 -5.546875 C 3.453125 -5.847656 3.359375 -6.09375 3.171875 -6.28125 C 2.921875 -6.53125 2.664062 -6.65625 2.40625 -6.65625 L 0.953125 -6.65625 C 0.648438 -6.65625 0.5 -6.78125 0.5 -7.03125 C 0.5 -7.257812 0.648438 -7.375 0.953125 -7.375 Z M 0.953125 -7.375 "/>
</symbol>
<symbol overflow="visible" id="glyph0-13">
<path style="stroke:none;" d="M 0.859375 -5.546875 C 0.609375 -5.546875 0.484375 -5.660156 0.484375 -5.890625 C 0.484375 -5.953125 0.515625 -6.046875 0.578125 -6.171875 C 0.773438 -6.566406 1.007812 -6.851562 1.28125 -7.03125 C 1.613281 -7.238281 1.960938 -7.34375 2.328125 -7.34375 C 2.941406 -7.34375 3.425781 -7.109375 3.78125 -6.640625 C 4.03125 -6.296875 4.15625 -5.925781 4.15625 -5.53125 C 4.15625 -5.1875 4.050781 -4.84375 3.84375 -4.5 L 1.484375 -0.6875 L 3.78125 -0.6875 C 4.03125 -0.6875 4.15625 -0.5625 4.15625 -0.3125 C 4.15625 -0.101562 4.019531 0 3.75 0 L 0.921875 0 C 0.628906 0 0.484375 -0.101562 0.484375 -0.3125 C 0.484375 -0.40625 0.507812 -0.484375 0.5625 -0.546875 L 3.171875 -4.765625 C 3.347656 -5.054688 3.4375 -5.3125 3.4375 -5.53125 C 3.4375 -5.8125 3.347656 -6.054688 3.171875 -6.265625 C 2.953125 -6.515625 2.660156 -6.640625 2.296875 -6.640625 C 1.847656 -6.640625 1.484375 -6.375 1.203125 -5.84375 C 1.097656 -5.644531 0.984375 -5.546875 0.859375 -5.546875 Z M 0.859375 -5.546875 "/>
</symbol>
<symbol overflow="visible" id="glyph0-14">
<path style="stroke:none;" d="M 2.75 -7.078125 C 2.800781 -7.253906 2.914062 -7.34375 3.09375 -7.34375 C 3.25 -7.34375 3.359375 -7.253906 3.421875 -7.078125 L 5.59375 -0.546875 C 5.625 -0.453125 5.640625 -0.378906 5.640625 -0.328125 C 5.640625 -0.128906 5.519531 -0.0195312 5.28125 0 C 5.113281 0 4.992188 -0.109375 4.921875 -0.328125 C 4.921875 -0.328125 4.753906 -0.835938 4.421875 -1.859375 L 1.734375 -1.859375 L 1.203125 -0.28125 C 1.128906 -0.0820312 1.015625 0.015625 0.859375 0.015625 C 0.609375 0.015625 0.484375 -0.101562 0.484375 -0.34375 C 0.484375 -0.375 0.519531 -0.492188 0.59375 -0.703125 Z M 3.0625 -5.875 L 1.953125 -2.546875 L 4.1875 -2.546875 Z M 3.0625 -5.875 "/>
</symbol>
<symbol overflow="visible" id="glyph0-15">
<path style="stroke:none;" d="M 5.171875 -2.234375 C 5.171875 -1.523438 4.941406 -0.972656 4.484375 -0.578125 C 4.035156 -0.191406 3.609375 0 3.203125 0 L 1.078125 0 C 0.847656 0 0.734375 -0.144531 0.734375 -0.4375 L 0.734375 -6.890625 C 0.734375 -7.191406 0.882812 -7.34375 1.1875 -7.34375 L 2.703125 -7.34375 C 3.316406 -7.34375 3.765625 -7.222656 4.046875 -6.984375 C 4.546875 -6.546875 4.796875 -6.054688 4.796875 -5.515625 C 4.796875 -4.910156 4.566406 -4.429688 4.109375 -4.078125 C 4.410156 -3.898438 4.660156 -3.644531 4.859375 -3.3125 C 5.066406 -2.988281 5.171875 -2.628906 5.171875 -2.234375 Z M 1.484375 -3.640625 L 1.484375 -0.671875 L 3 -0.671875 C 3.4375 -0.671875 3.785156 -0.820312 4.046875 -1.125 C 4.316406 -1.4375 4.453125 -1.773438 4.453125 -2.140625 C 4.453125 -2.515625 4.328125 -2.859375 4.078125 -3.171875 C 3.835938 -3.484375 3.484375 -3.640625 3.015625 -3.640625 Z M 1.484375 -6.625 L 1.484375 -4.40625 L 2.96875 -4.40625 C 3.34375 -4.40625 3.617188 -4.503906 3.796875 -4.703125 C 3.984375 -4.910156 4.078125 -5.164062 4.078125 -5.46875 C 4.078125 -5.769531 3.976562 -6.035156 3.78125 -6.265625 C 3.582031 -6.503906 3.300781 -6.625 2.9375 -6.625 Z M 1.484375 -6.625 "/>
</symbol>
<symbol overflow="visible" id="glyph0-16">
<path style="stroke:none;" d="M 3.421875 -0.40625 C 3.421875 -0.132812 3.304688 0 3.078125 0 C 2.835938 0 2.71875 -0.140625 2.71875 -0.421875 L 2.71875 -3.703125 L 0.5625 -6.78125 C 0.507812 -6.851562 0.484375 -6.925781 0.484375 -7 C 0.484375 -7.238281 0.613281 -7.359375 0.875 -7.359375 C 0.988281 -7.359375 1.09375 -7.285156 1.1875 -7.140625 L 3.0625 -4.40625 L 4.953125 -7.171875 C 5.046875 -7.296875 5.148438 -7.359375 5.265625 -7.359375 C 5.515625 -7.359375 5.640625 -7.242188 5.640625 -7.015625 C 5.640625 -6.929688 5.609375 -6.84375 5.546875 -6.75 L 3.421875 -3.6875 Z M 3.421875 -0.40625 "/>
</symbol>
<symbol overflow="visible" id="glyph0-17">
<path style="stroke:none;" d="M 3.0625 -1.453125 L 4.9375 -7.03125 C 5 -7.238281 5.113281 -7.34375 5.28125 -7.34375 C 5.519531 -7.34375 5.640625 -7.234375 5.640625 -7.015625 C 5.640625 -6.953125 5.625 -6.875 5.59375 -6.78125 L 3.453125 -0.328125 C 3.378906 -0.109375 3.25 0 3.0625 0 C 2.90625 0 2.789062 -0.109375 2.71875 -0.328125 L 0.515625 -6.859375 C 0.492188 -6.910156 0.484375 -6.960938 0.484375 -7.015625 C 0.484375 -7.222656 0.613281 -7.328125 0.875 -7.328125 C 1.019531 -7.328125 1.128906 -7.210938 1.203125 -6.984375 Z M 3.0625 -1.453125 "/>
</symbol>
<symbol overflow="visible" id="glyph0-18">
<path style="stroke:none;" d="M 1.453125 -0.703125 C 1.453125 -0.703125 2.015625 -0.703125 3.140625 -0.703125 C 3.566406 -0.703125 3.890625 -0.8125 4.109375 -1.03125 C 4.328125 -1.257812 4.4375 -1.539062 4.4375 -1.875 L 4.4375 -5.53125 C 4.4375 -5.8125 4.328125 -6.066406 4.109375 -6.296875 C 3.898438 -6.535156 3.625 -6.65625 3.28125 -6.65625 L 1.453125 -6.65625 C 1.453125 -6.65625 1.453125 -4.671875 1.453125 -0.703125 Z M 0.734375 -6.953125 C 0.734375 -7.210938 0.867188 -7.34375 1.140625 -7.34375 L 3.421875 -7.34375 C 3.867188 -7.34375 4.265625 -7.164062 4.609375 -6.8125 C 4.960938 -6.46875 5.140625 -6.070312 5.140625 -5.625 L 5.140625 -1.703125 C 5.140625 -1.253906 4.960938 -0.859375 4.609375 -0.515625 C 4.253906 -0.171875 3.878906 0 3.484375 0 L 1.0625 0 C 0.84375 0 0.734375 -0.144531 0.734375 -0.4375 Z M 0.734375 -6.953125 "/>
</symbol>
<symbol overflow="visible" id="glyph1-0">
<path style="stroke:none;" d="M 0.1875 0 L 0.1875 -3.984375 L 1.78125 -3.984375 L 1.78125 0 Z M 0.390625 -0.1875 L 1.59375 -0.1875 L 1.59375 -3.78125 L 0.390625 -3.78125 Z M 0.390625 -0.1875 "/>
</symbol>
<symbol overflow="visible" id="glyph1-1">
<path style="stroke:none;" d="M 2.46875 -2.40625 C 2.5 -2.519531 2.554688 -2.578125 2.640625 -2.578125 C 2.753906 -2.578125 2.8125 -2.523438 2.8125 -2.421875 C 2.8125 -2.390625 2.804688 -2.359375 2.796875 -2.328125 C 2.796875 -2.328125 2.617188 -1.609375 2.265625 -0.171875 C 2.242188 -0.0546875 2.1875 0 2.09375 0 C 2 0 1.929688 -0.0507812 1.890625 -0.15625 C 1.890625 -0.15625 1.769531 -0.488281 1.53125 -1.15625 L 1.15625 -0.15625 C 1.113281 -0.0507812 1.054688 0 0.984375 0 C 0.878906 0 0.816406 -0.0507812 0.796875 -0.15625 C 0.796875 -0.15625 0.617188 -0.851562 0.265625 -2.25 C 0.253906 -2.3125 0.25 -2.359375 0.25 -2.390625 C 0.25 -2.503906 0.3125 -2.5625 0.4375 -2.5625 C 0.519531 -2.5625 0.570312 -2.515625 0.59375 -2.421875 C 0.59375 -2.421875 0.726562 -1.875 1 -0.78125 C 1 -0.78125 1.117188 -1.085938 1.359375 -1.703125 C 1.390625 -1.785156 1.445312 -1.828125 1.53125 -1.828125 C 1.613281 -1.828125 1.675781 -1.78125 1.71875 -1.6875 C 1.71875 -1.6875 1.828125 -1.390625 2.046875 -0.796875 Z M 2.46875 -2.40625 "/>
</symbol>
<symbol overflow="visible" id="glyph1-2">
<path style="stroke:none;" d="M 1.875 -1.078125 C 2 -1.078125 2.0625 -1.019531 2.0625 -0.90625 C 2.0625 -0.78125 2.003906 -0.71875 1.890625 -0.71875 C 1.890625 -0.71875 1.398438 -0.71875 0.421875 -0.71875 C 0.304688 -0.71875 0.25 -0.773438 0.25 -0.890625 C 0.25 -1.015625 0.304688 -1.078125 0.421875 -1.078125 Z M 1.890625 -2.1875 C 2.003906 -2.1875 2.0625 -2.128906 2.0625 -2.015625 C 2.0625 -1.890625 2.003906 -1.828125 1.890625 -1.828125 L 0.421875 -1.828125 C 0.304688 -1.828125 0.25 -1.882812 0.25 -2 C 0.25 -2.125 0.304688 -2.1875 0.421875 -2.1875 Z M 1.890625 -2.1875 "/>
</symbol>
<symbol overflow="visible" id="glyph1-3">
<path style="stroke:none;" d="M 0.859375 -3.59375 C 0.910156 -3.644531 0.96875 -3.671875 1.03125 -3.671875 C 1.15625 -3.671875 1.21875 -3.601562 1.21875 -3.46875 L 1.21875 -0.21875 C 1.21875 -0.0820312 1.160156 -0.015625 1.046875 -0.015625 C 0.921875 -0.015625 0.859375 -0.0820312 0.859375 -0.21875 C 0.859375 -0.21875 0.859375 -1.175781 0.859375 -3.09375 L 0.4375 -2.671875 C 0.394531 -2.628906 0.351562 -2.609375 0.3125 -2.609375 C 0.1875 -2.609375 0.125 -2.660156 0.125 -2.765625 C 0.125 -2.816406 0.144531 -2.867188 0.1875 -2.921875 Z M 0.859375 -3.59375 "/>
</symbol>
<symbol overflow="visible" id="glyph1-4">
<path style="stroke:none;" d="M 0.5 0 C 0.375 0 0.3125 -0.0820312 0.3125 -0.25 C 0.3125 -0.425781 0.367188 -0.515625 0.484375 -0.515625 C 0.617188 -0.515625 0.6875 -0.425781 0.6875 -0.25 C 0.6875 -0.0820312 0.625 0 0.5 0 Z M 0.5 0 "/>
</symbol>
<symbol overflow="visible" id="glyph1-5">
<path style="stroke:none;" d="M 0.4375 -2.765625 C 0.3125 -2.765625 0.25 -2.820312 0.25 -2.9375 C 0.25 -2.976562 0.257812 -3.023438 0.28125 -3.078125 C 0.382812 -3.285156 0.503906 -3.429688 0.640625 -3.515625 C 0.804688 -3.617188 0.976562 -3.671875 1.15625 -3.671875 C 1.46875 -3.671875 1.710938 -3.554688 1.890625 -3.328125 C 2.015625 -3.148438 2.078125 -2.960938 2.078125 -2.765625 C 2.078125 -2.585938 2.023438 -2.414062 1.921875 -2.25 L 0.734375 -0.34375 L 1.890625 -0.34375 C 2.015625 -0.34375 2.078125 -0.28125 2.078125 -0.15625 C 2.078125 -0.0507812 2.007812 0 1.875 0 L 0.46875 0 C 0.320312 0 0.25 -0.0507812 0.25 -0.15625 C 0.25 -0.195312 0.257812 -0.238281 0.28125 -0.28125 L 1.59375 -2.390625 C 1.675781 -2.535156 1.71875 -2.660156 1.71875 -2.765625 C 1.71875 -2.898438 1.675781 -3.019531 1.59375 -3.125 C 1.476562 -3.257812 1.332031 -3.328125 1.15625 -3.328125 C 0.925781 -3.328125 0.742188 -3.191406 0.609375 -2.921875 C 0.546875 -2.816406 0.488281 -2.765625 0.4375 -2.765625 Z M 0.4375 -2.765625 "/>
</symbol>
<symbol overflow="visible" id="glyph1-6">
<path style="stroke:none;" d="M 0.3125 -2.359375 C 0.3125 -2.503906 0.367188 -2.578125 0.484375 -2.578125 C 0.609375 -2.578125 0.671875 -2.503906 0.671875 -2.359375 C 0.671875 -2.359375 0.671875 -1.820312 0.671875 -0.75 C 0.671875 -0.632812 0.703125 -0.539062 0.765625 -0.46875 C 0.847656 -0.394531 0.9375 -0.359375 1.03125 -0.359375 L 1.796875 -0.359375 L 1.796875 -2.375 C 1.796875 -2.5 1.851562 -2.5625 1.96875 -2.5625 C 2.082031 -2.5625 2.140625 -2.5 2.140625 -2.375 L 2.140625 -0.203125 C 2.140625 -0.0664062 2.082031 0 1.96875 0 L 1 0 C 0.8125 0 0.644531 -0.078125 0.5 -0.234375 C 0.375 -0.359375 0.3125 -0.523438 0.3125 -0.734375 C 0.3125 -0.734375 0.3125 -1.273438 0.3125 -2.359375 Z M 0.3125 -2.359375 "/>
</symbol>
<symbol overflow="visible" id="glyph1-7">
<path style="stroke:none;" d="M 0.359375 -3.484375 C 0.359375 -3.609375 0.425781 -3.671875 0.5625 -3.671875 C 0.664062 -3.671875 0.71875 -3.609375 0.71875 -3.484375 C 0.71875 -3.484375 0.71875 -2.53125 0.71875 -0.625 C 0.71875 -0.445312 0.773438 -0.359375 0.890625 -0.359375 C 1.023438 -0.359375 1.09375 -0.296875 1.09375 -0.171875 C 1.09375 -0.0546875 1.03125 0 0.90625 0 C 0.75 0 0.617188 -0.0546875 0.515625 -0.171875 C 0.410156 -0.273438 0.359375 -0.410156 0.359375 -0.578125 C 0.359375 -0.578125 0.359375 -1.546875 0.359375 -3.484375 Z M 0.359375 -3.484375 "/>
</symbol>
<symbol overflow="visible" id="glyph1-8">
<path style="stroke:none;" d="M 0.484375 -3.6875 C 0.484375 -3.6875 0.734375 -3.6875 1.234375 -3.6875 C 1.460938 -3.6875 1.660156 -3.59375 1.828125 -3.40625 C 1.992188 -3.226562 2.078125 -3.019531 2.078125 -2.78125 C 2.078125 -2.488281 1.953125 -2.238281 1.703125 -2.03125 C 1.941406 -1.851562 2.0625 -1.632812 2.0625 -1.375 C 2.0625 -1.375 2.0625 -1.191406 2.0625 -0.828125 C 2.0625 -0.617188 1.972656 -0.425781 1.796875 -0.25 C 1.640625 -0.09375 1.429688 -0.015625 1.171875 -0.015625 C 1.171875 -0.015625 0.929688 -0.015625 0.453125 -0.015625 C 0.316406 -0.015625 0.25 -0.0703125 0.25 -0.1875 C 0.25 -0.300781 0.320312 -0.359375 0.46875 -0.359375 C 0.46875 -0.359375 0.679688 -0.359375 1.109375 -0.359375 C 1.304688 -0.359375 1.457031 -0.414062 1.5625 -0.53125 C 1.675781 -0.632812 1.734375 -0.773438 1.734375 -0.953125 L 1.734375 -1.265625 C 1.734375 -1.429688 1.679688 -1.566406 1.578125 -1.671875 C 1.460938 -1.796875 1.335938 -1.859375 1.203125 -1.859375 L 0.828125 -1.859375 C 0.691406 -1.859375 0.625 -1.921875 0.625 -2.046875 C 0.625 -2.148438 0.691406 -2.203125 0.828125 -2.203125 L 1.15625 -2.203125 C 1.3125 -2.203125 1.445312 -2.257812 1.5625 -2.375 C 1.675781 -2.488281 1.734375 -2.617188 1.734375 -2.765625 C 1.734375 -2.921875 1.6875 -3.046875 1.59375 -3.140625 C 1.46875 -3.265625 1.335938 -3.328125 1.203125 -3.328125 L 0.484375 -3.328125 C 0.328125 -3.328125 0.25 -3.390625 0.25 -3.515625 C 0.25 -3.628906 0.328125 -3.6875 0.484375 -3.6875 Z M 0.484375 -3.6875 "/>
</symbol>
<symbol overflow="visible" id="glyph1-9">
<path style="stroke:none;" d="M 1.15625 -3.328125 C 1.050781 -3.328125 0.972656 -3.273438 0.921875 -3.171875 C 0.796875 -2.921875 0.703125 -2.632812 0.640625 -2.3125 C 0.617188 -2.164062 0.609375 -2.015625 0.609375 -1.859375 C 0.609375 -1.742188 0.613281 -1.628906 0.625 -1.515625 C 0.675781 -1.148438 0.753906 -0.84375 0.859375 -0.59375 C 0.929688 -0.4375 1.03125 -0.359375 1.15625 -0.359375 C 1.28125 -0.359375 1.378906 -0.425781 1.453125 -0.5625 C 1.554688 -0.769531 1.632812 -1.050781 1.6875 -1.40625 C 1.707031 -1.5625 1.71875 -1.710938 1.71875 -1.859375 C 1.71875 -2.003906 1.707031 -2.144531 1.6875 -2.28125 C 1.632812 -2.625 1.539062 -2.925781 1.40625 -3.1875 C 1.351562 -3.28125 1.269531 -3.328125 1.15625 -3.328125 Z M 1.171875 -3.671875 C 1.390625 -3.671875 1.5625 -3.585938 1.6875 -3.421875 C 1.863281 -3.148438 1.988281 -2.773438 2.0625 -2.296875 C 2.082031 -2.148438 2.09375 -2.003906 2.09375 -1.859375 C 2.09375 -1.703125 2.078125 -1.546875 2.046875 -1.390625 C 1.984375 -0.921875 1.863281 -0.550781 1.6875 -0.28125 C 1.570312 -0.09375 1.398438 0 1.171875 0 C 0.941406 0 0.765625 -0.09375 0.640625 -0.28125 C 0.492188 -0.519531 0.375 -0.890625 0.28125 -1.390625 C 0.257812 -1.523438 0.25 -1.671875 0.25 -1.828125 C 0.25 -1.984375 0.257812 -2.140625 0.28125 -2.296875 C 0.363281 -2.796875 0.476562 -3.15625 0.625 -3.375 C 0.75 -3.570312 0.929688 -3.671875 1.171875 -3.671875 Z M 1.171875 -3.671875 "/>
</symbol>
<symbol overflow="visible" id="glyph1-10">
<path style="stroke:none;" d="M 0.3125 -2.40625 C 0.3125 -2.53125 0.375 -2.59375 0.5 -2.59375 C 0.5 -2.59375 0.8125 -2.59375 1.4375 -2.59375 C 1.625 -2.59375 1.800781 -2.507812 1.96875 -2.34375 C 2.082031 -2.226562 2.140625 -2.078125 2.140625 -1.890625 C 2.140625 -1.890625 2.140625 -1.34375 2.140625 -0.25 C 2.140625 -0.09375 2.082031 -0.015625 1.96875 -0.015625 C 1.84375 -0.015625 1.78125 -0.09375 1.78125 -0.25 C 1.78125 -0.25 1.78125 -0.785156 1.78125 -1.859375 C 1.78125 -1.972656 1.75 -2.0625 1.6875 -2.125 C 1.613281 -2.1875 1.53125 -2.21875 1.4375 -2.21875 C 1.4375 -2.21875 1.175781 -2.21875 0.65625 -2.21875 L 0.65625 -0.21875 C 0.65625 -0.0820312 0.597656 -0.015625 0.484375 -0.015625 C 0.367188 -0.015625 0.3125 -0.0820312 0.3125 -0.21875 C 0.3125 -0.21875 0.3125 -0.945312 0.3125 -2.40625 Z M 0.3125 -2.40625 "/>
</symbol>
<symbol overflow="visible" id="glyph1-11">
<path style="stroke:none;" d="M 1.28125 -1.84375 C 1.132812 -1.84375 1.003906 -1.789062 0.890625 -1.6875 C 0.773438 -1.582031 0.71875 -1.453125 0.71875 -1.296875 L 0.71875 -0.859375 C 0.71875 -0.742188 0.785156 -0.617188 0.921875 -0.484375 C 1.003906 -0.398438 1.125 -0.359375 1.28125 -0.359375 C 1.414062 -0.359375 1.546875 -0.410156 1.671875 -0.515625 C 1.785156 -0.609375 1.84375 -0.742188 1.84375 -0.921875 L 1.84375 -1.28125 C 1.84375 -1.414062 1.785156 -1.550781 1.671875 -1.6875 C 1.578125 -1.789062 1.445312 -1.84375 1.28125 -1.84375 Z M 0.890625 -3.1875 C 0.773438 -3.0625 0.71875 -2.929688 0.71875 -2.796875 C 0.71875 -2.660156 0.757812 -2.535156 0.84375 -2.421875 C 0.9375 -2.273438 1.078125 -2.203125 1.265625 -2.203125 C 1.453125 -2.203125 1.597656 -2.257812 1.703125 -2.375 C 1.804688 -2.5 1.859375 -2.628906 1.859375 -2.765625 C 1.859375 -2.921875 1.789062 -3.054688 1.65625 -3.171875 C 1.539062 -3.273438 1.410156 -3.328125 1.265625 -3.328125 C 1.109375 -3.328125 0.984375 -3.28125 0.890625 -3.1875 Z M 0.734375 -2.03125 C 0.484375 -2.21875 0.359375 -2.484375 0.359375 -2.828125 C 0.359375 -3.097656 0.46875 -3.3125 0.6875 -3.46875 C 0.875 -3.613281 1.078125 -3.6875 1.296875 -3.6875 C 1.460938 -3.6875 1.613281 -3.648438 1.75 -3.578125 C 2.050781 -3.378906 2.203125 -3.109375 2.203125 -2.765625 C 2.203125 -2.453125 2.078125 -2.207031 1.828125 -2.03125 C 2.078125 -1.832031 2.203125 -1.585938 2.203125 -1.296875 L 2.203125 -0.875 C 2.203125 -0.644531 2.097656 -0.429688 1.890625 -0.234375 C 1.734375 -0.0859375 1.535156 -0.015625 1.296875 -0.015625 C 1.023438 -0.015625 0.820312 -0.0820312 0.6875 -0.21875 C 0.46875 -0.425781 0.359375 -0.640625 0.359375 -0.859375 L 0.359375 -1.3125 C 0.359375 -1.582031 0.484375 -1.820312 0.734375 -2.03125 Z M 0.734375 -2.03125 "/>
</symbol>
<symbol overflow="visible" id="glyph1-12">
<path style="stroke:none;" d="M 0.984375 -3.546875 C 1.003906 -3.640625 1.0625 -3.6875 1.15625 -3.6875 C 1.269531 -3.6875 1.328125 -3.628906 1.328125 -3.515625 C 1.328125 -3.492188 1.320312 -3.460938 1.3125 -3.421875 L 0.640625 -1.109375 L 1.53125 -1.109375 L 1.53125 -1.640625 C 1.53125 -1.773438 1.59375 -1.84375 1.71875 -1.84375 C 1.832031 -1.84375 1.890625 -1.769531 1.890625 -1.625 L 1.890625 -1.109375 C 1.890625 -1.109375 2.015625 -1.109375 2.265625 -1.109375 C 2.378906 -1.109375 2.4375 -1.039062 2.4375 -0.90625 C 2.4375 -0.800781 2.375 -0.75 2.25 -0.75 L 1.890625 -0.75 L 1.890625 -0.203125 C 1.890625 -0.0664062 1.828125 0 1.703125 0 C 1.585938 0 1.53125 -0.0664062 1.53125 -0.203125 L 1.53125 -0.75 L 0.421875 -0.75 C 0.304688 -0.75 0.25 -0.800781 0.25 -0.90625 C 0.25 -0.945312 0.257812 -1.003906 0.28125 -1.078125 C 0.28125 -1.078125 0.515625 -1.898438 0.984375 -3.546875 Z M 0.984375 -3.546875 "/>
</symbol>
<symbol overflow="visible" id="glyph1-13">
<path style="stroke:none;" d="M 1.859375 -3.671875 C 1.992188 -3.671875 2.0625 -3.613281 2.0625 -3.5 C 2.0625 -3.46875 2.046875 -3.375 2.015625 -3.21875 C 2.015625 -3.21875 1.789062 -2.203125 1.34375 -0.171875 C 1.3125 -0.0546875 1.253906 0 1.171875 0 C 1.046875 0 0.984375 -0.0507812 0.984375 -0.15625 C 0.984375 -0.175781 0.988281 -0.203125 1 -0.234375 L 1.671875 -3.3125 L 0.59375 -3.3125 C 0.59375 -3.3125 0.59375 -3.253906 0.59375 -3.140625 C 0.59375 -3.023438 0.53125 -2.96875 0.40625 -2.96875 C 0.300781 -2.96875 0.25 -3.023438 0.25 -3.140625 C 0.25 -3.140625 0.25 -3.265625 0.25 -3.515625 C 0.25 -3.617188 0.3125 -3.671875 0.4375 -3.671875 C 0.4375 -3.671875 0.910156 -3.671875 1.859375 -3.671875 Z M 1.859375 -3.671875 "/>
</symbol>
<symbol overflow="visible" id="glyph1-14">
<path style="stroke:none;" d="M 0.6875 -2.1875 C 0.6875 -2.1875 0.867188 -2.1875 1.234375 -2.1875 C 1.503906 -2.1875 1.726562 -2.085938 1.90625 -1.890625 C 2.070312 -1.710938 2.15625 -1.523438 2.15625 -1.328125 C 2.15625 -1.328125 2.15625 -1.160156 2.15625 -0.828125 C 2.15625 -0.617188 2.050781 -0.414062 1.84375 -0.21875 C 1.6875 -0.0703125 1.46875 0 1.1875 0 C 0.957031 0 0.753906 -0.0859375 0.578125 -0.265625 C 0.398438 -0.429688 0.3125 -0.617188 0.3125 -0.828125 L 0.3125 -2.109375 C 0.3125 -2.472656 0.457031 -2.820312 0.75 -3.15625 C 0.914062 -3.363281 1.144531 -3.523438 1.4375 -3.640625 C 1.5 -3.660156 1.550781 -3.671875 1.59375 -3.671875 C 1.71875 -3.671875 1.78125 -3.609375 1.78125 -3.484375 C 1.78125 -3.410156 1.726562 -3.351562 1.625 -3.3125 C 1.394531 -3.238281 1.210938 -3.132812 1.078125 -3 C 0.859375 -2.78125 0.726562 -2.507812 0.6875 -2.1875 Z M 0.671875 -0.875 C 0.671875 -0.726562 0.738281 -0.59375 0.875 -0.46875 C 0.96875 -0.382812 1.085938 -0.34375 1.234375 -0.34375 C 1.347656 -0.34375 1.484375 -0.398438 1.640625 -0.515625 C 1.742188 -0.597656 1.796875 -0.71875 1.796875 -0.875 L 1.796875 -1.25 C 1.796875 -1.40625 1.738281 -1.546875 1.625 -1.671875 C 1.519531 -1.785156 1.390625 -1.84375 1.234375 -1.84375 L 0.671875 -1.84375 Z M 0.671875 -0.875 "/>
</symbol>
</g>
</defs>
<g id="surface1">
<path style="fill:none;stroke-width:0.3985;stroke-linecap:butt;stroke-linejoin:miter;stroke:rgb(0%,0%,0%);stroke-opacity:1;stroke-miterlimit:10;" d="M 28.912625 141.735375 L 28.912625 28.348656 L 113.955594 28.348656 M 113.955594 141.735375 L 113.955594 85.040062 M 28.912625 141.735375 L 14.74075 141.735375 M 14.74075 141.735375 L 0.568875 141.735375 M 113.955594 85.040062 L 57.260281 85.040062 M 57.260281 85.040062 L 0.568875 85.040062 M 141.732937 119.90725 L 141.732937 106.868187 M 141.732937 63.211937 L 141.732937 50.172875 M 141.732937 113.387719 L 170.36575 113.387719 M 170.36575 113.387719 L 198.994656 113.387719 M 56.693875 119.90725 L 56.693875 113.387719 L 141.732937 113.387719 M 198.994656 141.735375 L 198.994656 85.040062 M 226.775906 119.90725 L 226.775906 106.868187 M 226.775906 63.211937 L 226.775906 50.172875 M 311.814969 50.172875 L 311.814969 56.692406 L 226.775906 56.692406 M 284.033719 170.079125 L 284.033719 28.348656 M 284.033719 170.079125 L 284.033719 184.254906 M 284.033719 184.254906 L 284.033719 198.426781 L 113.955594 198.426781 L 113.955594 141.735375 M 198.994656 28.348656 L 170.647 28.348656 L 170.647 127.559594 M 170.647 127.559594 L 170.647 226.774437 M 284.033719 226.774437 L 28.912625 226.774437 L 28.912625 141.735375 M 311.814969 204.946312 L 311.814969 191.90725 M 311.814969 148.254906 L 311.814969 113.387719 L 226.775906 113.387719 M 311.814969 113.387719 L 340.162625 113.387719 M 340.162625 113.387719 L 368.510281 113.387719 M 56.693875 141.735375 L 56.693875 145.559594 M 56.693875 145.559594 L 56.693875 149.387719 M 141.732937 141.735375 L 141.732937 145.559594 M 141.732937 145.559594 L 141.732937 149.387719 M 226.775906 141.735375 L 226.775906 145.559594 M 226.775906 145.559594 L 226.775906 149.387719 M 311.814969 226.774437 L 311.814969 230.602562 M 311.814969 230.602562 L 311.814969 234.426781 M 311.814969 170.079125 L 325.986844 170.079125 M 141.732937 28.348656 L 141.732937 24.520531 M 141.732937 24.520531 L 141.732937 20.692406 M 226.775906 28.348656 L 226.775906 24.520531 M 226.775906 24.520531 L 226.775906 20.692406 M 311.814969 28.348656 L 311.814969 24.520531 M 311.814969 24.520531 L 311.814969 20.692406 M 141.732937 85.040062 L 155.908719 85.040062 M 226.775906 85.040062 L 240.947781 85.040062 " transform="matrix(1,0,0,-1,15.228,282.001)"/>
<path style="fill:none;stroke-width:0.3985;stroke-linecap:butt;stroke-linejoin:miter;stroke:rgb(0%,0%,0%);stroke-opacity:1;stroke-miterlimit:10;" d="M 226.775906 163.758812 L 226.775906 149.372094 L 212.885281 149.372094 " transform="matrix(1,0,0,-1,15.228,282.001)"/>
<path style="fill-rule:nonzero;fill:rgb(0%,0%,0%);fill-opacity:1;stroke-width:0.3985;stroke-linecap:butt;stroke-linejoin:miter;stroke:rgb(0%,0%,0%);stroke-opacity:1;stroke-miterlimit:10;" d="M 221.619656 149.372094 L 221.619656 151.356469 L 217.404812 149.372094 L 221.619656 147.387719 Z M 221.619656 149.372094 " transform="matrix(1,0,0,-1,15.228,282.001)"/>
<path style="fill:none;stroke-width:0.797;stroke-linecap:butt;stroke-linejoin:miter;stroke:rgb(0%,0%,0%);stroke-opacity:1;stroke-miterlimit:10;" d="M 212.885281 152.649437 L 212.885281 130.821312 M 209.549344 149.372094 L 209.549344 134.09475 " transform="matrix(1,0,0,-1,15.228,282.001)"/>
<path style="fill:none;stroke-width:0.3985;stroke-linecap:butt;stroke-linejoin:miter;stroke:rgb(0%,0%,0%);stroke-opacity:1;stroke-miterlimit:10;" d="M 212.885281 134.09475 L 226.775906 134.09475 L 226.775906 119.708031 " transform="matrix(1,0,0,-1,15.228,282.001)"/>
<path style="fill:none;stroke-width:0.3985;stroke-linecap:butt;stroke-linejoin:miter;stroke:rgb(0%,0%,0%);stroke-opacity:1;stroke-miterlimit:10;" d="M 209.549344 141.735375 L 198.795437 141.735375 " transform="matrix(1,0,0,-1,15.228,282.001)"/>
<path style="fill-rule:nonzero;fill:rgb(100%,100%,100%);fill-opacity:1;stroke-width:0.3985;stroke-linecap:butt;stroke-linejoin:miter;stroke:rgb(0%,0%,0%);stroke-opacity:1;stroke-miterlimit:10;" d="M 209.549344 141.735375 C 209.549344 142.610375 208.842312 143.321312 207.963406 143.321312 C 207.088406 143.321312 206.377469 142.610375 206.377469 141.735375 C 206.377469 140.856469 207.088406 140.145531 207.963406 140.145531 C 208.842312 140.145531 209.549344 140.856469 209.549344 141.735375 Z M 209.549344 141.735375 " transform="matrix(1,0,0,-1,15.228,282.001)"/>
<path style="fill:none;stroke-width:0.3985;stroke-linecap:butt;stroke-linejoin:miter;stroke:rgb(0%,0%,0%);stroke-opacity:1;stroke-miterlimit:10;" d="M 212.885281 141.735375 L 226.975125 141.735375 " transform="matrix(1,0,0,-1,15.228,282.001)"/>
<g style="fill:rgb(0%,0%,0%);fill-opacity:1;">
  <use xlink:href="#glyph0-1" x="245.971" y="124.988"/>
  <use xlink:href="#glyph0-2" x="252.107962" y="124.988"/>
  <use xlink:href="#glyph0-3" x="257.716905" y="124.988"/>
</g>
<g style="fill:rgb(0%,0%,0%);fill-opacity:1;">
  <use xlink:href="#glyph1-1" x="245.522" y="136.747"/>
  <use xlink:href="#glyph1-2" x="248.570556" y="136.747"/>
  <use xlink:href="#glyph1-3" x="250.881879" y="136.747"/>
  <use xlink:href="#glyph1-4" x="252.585483" y="136.747"/>
  <use xlink:href="#glyph1-3" x="253.586725" y="136.747"/>
  <use xlink:href="#glyph1-5" x="255.290329" y="136.747"/>
  <use xlink:href="#glyph1-6" x="257.611615" y="136.747"/>
</g>
<g style="fill:rgb(0%,0%,0%);fill-opacity:1;">
  <use xlink:href="#glyph1-7" x="262.234262" y="136.747"/>
  <use xlink:href="#glyph1-2" x="263.56925" y="136.747"/>
  <use xlink:href="#glyph1-3" x="265.880573" y="136.747"/>
  <use xlink:href="#glyph1-8" x="267.584178" y="136.747"/>
  <use xlink:href="#glyph1-9" x="269.975202" y="136.747"/>
  <use xlink:href="#glyph1-4" x="272.30645" y="136.747"/>
  <use xlink:href="#glyph1-9" x="273.307691" y="136.747"/>
  <use xlink:href="#glyph1-9" x="275.63894" y="136.747"/>
  <use xlink:href="#glyph1-10" x="277.970188" y="136.747"/>
</g>
<path style="fill:none;stroke-width:0.3985;stroke-linecap:butt;stroke-linejoin:miter;stroke:rgb(0%,0%,0%);stroke-opacity:1;stroke-miterlimit:10;" d="M 311.814969 192.106469 L 311.814969 177.71975 L 297.924344 177.71975 " transform="matrix(1,0,0,-1,15.228,282.001)"/>
<path style="fill-rule:nonzero;fill:rgb(0%,0%,0%);fill-opacity:1;stroke-width:0.3985;stroke-linecap:butt;stroke-linejoin:miter;stroke:rgb(0%,0%,0%);stroke-opacity:1;stroke-miterlimit:10;" d="M 306.662625 177.71975 L 306.662625 179.704125 L 302.443875 177.71975 L 306.662625 175.735375 Z M 306.662625 177.71975 " transform="matrix(1,0,0,-1,15.228,282.001)"/>
<path style="fill:none;stroke-width:0.797;stroke-linecap:butt;stroke-linejoin:miter;stroke:rgb(0%,0%,0%);stroke-opacity:1;stroke-miterlimit:10;" d="M 297.924344 180.993187 L 297.924344 159.168969 M 294.592312 177.71975 L 294.592312 162.442406 " transform="matrix(1,0,0,-1,15.228,282.001)"/>
<path style="fill:none;stroke-width:0.3985;stroke-linecap:butt;stroke-linejoin:miter;stroke:rgb(0%,0%,0%);stroke-opacity:1;stroke-miterlimit:10;" d="M 297.924344 162.442406 L 311.814969 162.442406 L 311.814969 148.055687 " transform="matrix(1,0,0,-1,15.228,282.001)"/>
<path style="fill:none;stroke-width:0.3985;stroke-linecap:butt;stroke-linejoin:miter;stroke:rgb(0%,0%,0%);stroke-opacity:1;stroke-miterlimit:10;" d="M 294.592312 170.079125 L 283.8345 170.079125 " transform="matrix(1,0,0,-1,15.228,282.001)"/>
<path style="fill-rule:nonzero;fill:rgb(100%,100%,100%);fill-opacity:1;stroke-width:0.3985;stroke-linecap:butt;stroke-linejoin:miter;stroke:rgb(0%,0%,0%);stroke-opacity:1;stroke-miterlimit:10;" d="M 294.592312 170.079125 C 294.592312 170.958031 293.881375 171.668969 293.006375 171.668969 C 292.127469 171.668969 291.416531 170.958031 291.416531 170.079125 C 291.416531 169.204125 292.127469 168.493187 293.006375 168.493187 C 293.881375 168.493187 294.592312 169.204125 294.592312 170.079125 Z M 294.592312 170.079125 " transform="matrix(1,0,0,-1,15.228,282.001)"/>
<path style="fill:none;stroke-width:0.3985;stroke-linecap:butt;stroke-linejoin:miter;stroke:rgb(0%,0%,0%);stroke-opacity:1;stroke-miterlimit:10;" d="M 297.924344 170.079125 L 312.014187 170.079125 " transform="matrix(1,0,0,-1,15.228,282.001)"/>
<g style="fill:rgb(0%,0%,0%);fill-opacity:1;">
  <use xlink:href="#glyph0-1" x="331.012" y="96.641"/>
  <use xlink:href="#glyph0-2" x="337.148962" y="96.641"/>
  <use xlink:href="#glyph0-4" x="342.757905" y="96.641"/>
</g>
<g style="fill:rgb(0%,0%,0%);fill-opacity:1;">
  <use xlink:href="#glyph1-1" x="330.563" y="108.4"/>
  <use xlink:href="#glyph1-2" x="333.611556" y="108.4"/>
  <use xlink:href="#glyph1-3" x="335.922879" y="108.4"/>
  <use xlink:href="#glyph1-4" x="337.626483" y="108.4"/>
  <use xlink:href="#glyph1-3" x="338.627725" y="108.4"/>
  <use xlink:href="#glyph1-5" x="340.331329" y="108.4"/>
  <use xlink:href="#glyph1-6" x="342.652615" y="108.4"/>
</g>
<g style="fill:rgb(0%,0%,0%);fill-opacity:1;">
  <use xlink:href="#glyph1-7" x="347.275261" y="108.4"/>
  <use xlink:href="#glyph1-2" x="348.61025" y="108.4"/>
  <use xlink:href="#glyph1-3" x="350.921573" y="108.4"/>
  <use xlink:href="#glyph1-8" x="352.625178" y="108.4"/>
  <use xlink:href="#glyph1-9" x="355.016202" y="108.4"/>
  <use xlink:href="#glyph1-4" x="357.34745" y="108.4"/>
  <use xlink:href="#glyph1-9" x="358.348691" y="108.4"/>
  <use xlink:href="#glyph1-9" x="360.67994" y="108.4"/>
  <use xlink:href="#glyph1-10" x="363.011188" y="108.4"/>
</g>
<path style="fill:none;stroke-width:0.3985;stroke-linecap:butt;stroke-linejoin:miter;stroke:rgb(0%,0%,0%);stroke-opacity:1;stroke-miterlimit:10;" d="M 311.814969 248.801781 L 311.814969 234.415062 L 297.924344 234.415062 " transform="matrix(1,0,0,-1,15.228,282.001)"/>
<path style="fill-rule:nonzero;fill:rgb(0%,0%,0%);fill-opacity:1;stroke-width:0.3985;stroke-linecap:butt;stroke-linejoin:miter;stroke:rgb(0%,0%,0%);stroke-opacity:1;stroke-miterlimit:10;" d="M 306.662625 234.415062 L 306.662625 236.399437 L 302.443875 234.415062 L 306.662625 232.430687 Z M 306.662625 234.415062 " transform="matrix(1,0,0,-1,15.228,282.001)"/>
<path style="fill:none;stroke-width:0.797;stroke-linecap:butt;stroke-linejoin:miter;stroke:rgb(0%,0%,0%);stroke-opacity:1;stroke-miterlimit:10;" d="M 297.924344 237.6885 L 297.924344 215.860375 M 294.592312 234.415062 L 294.592312 219.133812 " transform="matrix(1,0,0,-1,15.228,282.001)"/>
<path style="fill:none;stroke-width:0.3985;stroke-linecap:butt;stroke-linejoin:miter;stroke:rgb(0%,0%,0%);stroke-opacity:1;stroke-miterlimit:10;" d="M 297.924344 219.133812 L 311.814969 219.133812 L 311.814969 204.747094 " transform="matrix(1,0,0,-1,15.228,282.001)"/>
<path style="fill:none;stroke-width:0.3985;stroke-linecap:butt;stroke-linejoin:miter;stroke:rgb(0%,0%,0%);stroke-opacity:1;stroke-miterlimit:10;" d="M 294.592312 226.774437 L 283.8345 226.774437 " transform="matrix(1,0,0,-1,15.228,282.001)"/>
<path style="fill-rule:nonzero;fill:rgb(100%,100%,100%);fill-opacity:1;stroke-width:0.3985;stroke-linecap:butt;stroke-linejoin:miter;stroke:rgb(0%,0%,0%);stroke-opacity:1;stroke-miterlimit:10;" d="M 294.592312 226.774437 C 294.592312 227.649437 293.881375 228.360375 293.006375 228.360375 C 292.127469 228.360375 291.416531 227.649437 291.416531 226.774437 C 291.416531 225.899437 292.127469 225.1885 293.006375 225.1885 C 293.881375 225.1885 294.592312 225.899437 294.592312 226.774437 Z M 294.592312 226.774437 " transform="matrix(1,0,0,-1,15.228,282.001)"/>
<path style="fill:none;stroke-width:0.3985;stroke-linecap:butt;stroke-linejoin:miter;stroke:rgb(0%,0%,0%);stroke-opacity:1;stroke-miterlimit:10;" d="M 297.924344 226.774437 L 312.014187 226.774437 " transform="matrix(1,0,0,-1,15.228,282.001)"/>
<g style="fill:rgb(0%,0%,0%);fill-opacity:1;">
  <use xlink:href="#glyph0-1" x="331.012" y="39.948"/>
  <use xlink:href="#glyph0-2" x="337.148962" y="39.948"/>
  <use xlink:href="#glyph0-5" x="342.757905" y="39.948"/>
</g>
<g style="fill:rgb(0%,0%,0%);fill-opacity:1;">
  <use xlink:href="#glyph1-1" x="330.563" y="51.707"/>
  <use xlink:href="#glyph1-2" x="333.611556" y="51.707"/>
  <use xlink:href="#glyph1-3" x="335.922879" y="51.707"/>
  <use xlink:href="#glyph1-4" x="337.626483" y="51.707"/>
  <use xlink:href="#glyph1-3" x="338.627725" y="51.707"/>
  <use xlink:href="#glyph1-5" x="340.331329" y="51.707"/>
  <use xlink:href="#glyph1-6" x="342.652615" y="51.707"/>
</g>
<g style="fill:rgb(0%,0%,0%);fill-opacity:1;">
  <use xlink:href="#glyph1-7" x="347.275261" y="51.707"/>
  <use xlink:href="#glyph1-2" x="348.61025" y="51.707"/>
  <use xlink:href="#glyph1-3" x="350.921573" y="51.707"/>
  <use xlink:href="#glyph1-8" x="352.625178" y="51.707"/>
  <use xlink:href="#glyph1-9" x="355.016202" y="51.707"/>
  <use xlink:href="#glyph1-4" x="357.34745" y="51.707"/>
  <use xlink:href="#glyph1-9" x="358.348691" y="51.707"/>
  <use xlink:href="#glyph1-9" x="360.67994" y="51.707"/>
  <use xlink:href="#glyph1-10" x="363.011188" y="51.707"/>
</g>
<path style="fill:none;stroke-width:0.3985;stroke-linecap:butt;stroke-linejoin:miter;stroke:rgb(0%,0%,0%);stroke-opacity:1;stroke-miterlimit:10;" d="M 141.732937 163.758812 L 141.732937 149.372094 L 127.842313 149.372094 " transform="matrix(1,0,0,-1,15.228,282.001)"/>
<path style="fill-rule:nonzero;fill:rgb(0%,0%,0%);fill-opacity:1;stroke-width:0.3985;stroke-linecap:butt;stroke-linejoin:miter;stroke:rgb(0%,0%,0%);stroke-opacity:1;stroke-miterlimit:10;" d="M 136.580594 149.372094 L 136.580594 151.356469 L 132.36575 149.372094 L 136.580594 147.387719 Z M 136.580594 149.372094 " transform="matrix(1,0,0,-1,15.228,282.001)"/>
<path style="fill:none;stroke-width:0.797;stroke-linecap:butt;stroke-linejoin:miter;stroke:rgb(0%,0%,0%);stroke-opacity:1;stroke-miterlimit:10;" d="M 127.842313 152.649437 L 127.842313 130.821312 M 124.510281 149.372094 L 124.510281 134.09475 " transform="matrix(1,0,0,-1,15.228,282.001)"/>
<path style="fill:none;stroke-width:0.3985;stroke-linecap:butt;stroke-linejoin:miter;stroke:rgb(0%,0%,0%);stroke-opacity:1;stroke-miterlimit:10;" d="M 127.842313 134.09475 L 141.732937 134.09475 L 141.732937 119.708031 " transform="matrix(1,0,0,-1,15.228,282.001)"/>
<path style="fill:none;stroke-width:0.3985;stroke-linecap:butt;stroke-linejoin:miter;stroke:rgb(0%,0%,0%);stroke-opacity:1;stroke-miterlimit:10;" d="M 124.510281 141.735375 L 113.756375 141.735375 " transform="matrix(1,0,0,-1,15.228,282.001)"/>
<path style="fill-rule:nonzero;fill:rgb(100%,100%,100%);fill-opacity:1;stroke-width:0.3985;stroke-linecap:butt;stroke-linejoin:miter;stroke:rgb(0%,0%,0%);stroke-opacity:1;stroke-miterlimit:10;" d="M 124.510281 141.735375 C 124.510281 142.610375 123.799344 143.321312 122.924344 143.321312 C 122.045438 143.321312 121.338406 142.610375 121.338406 141.735375 C 121.338406 140.856469 122.045438 140.145531 122.924344 140.145531 C 123.799344 140.145531 124.510281 140.856469 124.510281 141.735375 Z M 124.510281 141.735375 " transform="matrix(1,0,0,-1,15.228,282.001)"/>
<path style="fill:none;stroke-width:0.3985;stroke-linecap:butt;stroke-linejoin:miter;stroke:rgb(0%,0%,0%);stroke-opacity:1;stroke-miterlimit:10;" d="M 127.842313 141.735375 L 141.932156 141.735375 " transform="matrix(1,0,0,-1,15.228,282.001)"/>
<g style="fill:rgb(0%,0%,0%);fill-opacity:1;">
  <use xlink:href="#glyph0-1" x="160.931" y="124.988"/>
  <use xlink:href="#glyph0-2" x="167.067962" y="124.988"/>
  <use xlink:href="#glyph0-6" x="172.676905" y="124.988"/>
</g>
<g style="fill:rgb(0%,0%,0%);fill-opacity:1;">
  <use xlink:href="#glyph1-1" x="160.482" y="136.747"/>
  <use xlink:href="#glyph1-2" x="163.530556" y="136.747"/>
  <use xlink:href="#glyph1-11" x="165.841879" y="136.747"/>
  <use xlink:href="#glyph1-12" x="168.41223" y="136.747"/>
  <use xlink:href="#glyph1-9" x="170.967636" y="136.747"/>
  <use xlink:href="#glyph1-4" x="173.298885" y="136.747"/>
  <use xlink:href="#glyph1-9" x="174.300126" y="136.747"/>
  <use xlink:href="#glyph1-9" x="176.631375" y="136.747"/>
  <use xlink:href="#glyph1-10" x="178.962623" y="136.747"/>
</g>
<g style="fill:rgb(0%,0%,0%);fill-opacity:1;">
  <use xlink:href="#glyph1-7" x="183.585269" y="136.747"/>
  <use xlink:href="#glyph1-2" x="184.920258" y="136.747"/>
  <use xlink:href="#glyph1-3" x="187.231581" y="136.747"/>
  <use xlink:href="#glyph1-8" x="188.935186" y="136.747"/>
  <use xlink:href="#glyph1-9" x="191.32621" y="136.747"/>
  <use xlink:href="#glyph1-4" x="193.657458" y="136.747"/>
  <use xlink:href="#glyph1-9" x="194.658699" y="136.747"/>
  <use xlink:href="#glyph1-9" x="196.989948" y="136.747"/>
  <use xlink:href="#glyph1-10" x="199.321196" y="136.747"/>
</g>
<path style="fill:none;stroke-width:0.3985;stroke-linecap:butt;stroke-linejoin:miter;stroke:rgb(0%,0%,0%);stroke-opacity:1;stroke-miterlimit:10;" d="M 56.693875 163.758812 L 56.693875 149.372094 L 42.80325 149.372094 " transform="matrix(1,0,0,-1,15.228,282.001)"/>
<path style="fill-rule:nonzero;fill:rgb(0%,0%,0%);fill-opacity:1;stroke-width:0.3985;stroke-linecap:butt;stroke-linejoin:miter;stroke:rgb(0%,0%,0%);stroke-opacity:1;stroke-miterlimit:10;" d="M 51.541531 149.372094 L 51.541531 151.356469 L 47.322781 149.372094 L 51.541531 147.387719 Z M 51.541531 149.372094 " transform="matrix(1,0,0,-1,15.228,282.001)"/>
<path style="fill:none;stroke-width:0.797;stroke-linecap:butt;stroke-linejoin:miter;stroke:rgb(0%,0%,0%);stroke-opacity:1;stroke-miterlimit:10;" d="M 42.80325 152.649437 L 42.80325 130.821312 M 39.471219 149.372094 L 39.471219 134.09475 " transform="matrix(1,0,0,-1,15.228,282.001)"/>
<path style="fill:none;stroke-width:0.3985;stroke-linecap:butt;stroke-linejoin:miter;stroke:rgb(0%,0%,0%);stroke-opacity:1;stroke-miterlimit:10;" d="M 42.80325 134.09475 L 56.693875 134.09475 L 56.693875 119.708031 " transform="matrix(1,0,0,-1,15.228,282.001)"/>
<path style="fill:none;stroke-width:0.3985;stroke-linecap:butt;stroke-linejoin:miter;stroke:rgb(0%,0%,0%);stroke-opacity:1;stroke-miterlimit:10;" d="M 39.471219 141.735375 L 28.713406 141.735375 " transform="matrix(1,0,0,-1,15.228,282.001)"/>
<path style="fill-rule:nonzero;fill:rgb(100%,100%,100%);fill-opacity:1;stroke-width:0.3985;stroke-linecap:butt;stroke-linejoin:miter;stroke:rgb(0%,0%,0%);stroke-opacity:1;stroke-miterlimit:10;" d="M 39.471219 141.735375 C 39.471219 142.610375 38.760281 143.321312 37.881375 143.321312 C 37.006375 143.321312 36.295438 142.610375 36.295438 141.735375 C 36.295438 140.856469 37.006375 140.145531 37.881375 140.145531 C 38.760281 140.145531 39.471219 140.856469 39.471219 141.735375 Z M 39.471219 141.735375 " transform="matrix(1,0,0,-1,15.228,282.001)"/>
<path style="fill:none;stroke-width:0.3985;stroke-linecap:butt;stroke-linejoin:miter;stroke:rgb(0%,0%,0%);stroke-opacity:1;stroke-miterlimit:10;" d="M 42.80325 141.735375 L 56.893094 141.735375 " transform="matrix(1,0,0,-1,15.228,282.001)"/>
<g style="fill:rgb(0%,0%,0%);fill-opacity:1;">
  <use xlink:href="#glyph0-1" x="75.89" y="124.988"/>
  <use xlink:href="#glyph0-2" x="82.026962" y="124.988"/>
  <use xlink:href="#glyph0-7" x="87.635905" y="124.988"/>
</g>
<g style="fill:rgb(0%,0%,0%);fill-opacity:1;">
  <use xlink:href="#glyph1-1" x="75.441" y="136.747"/>
  <use xlink:href="#glyph1-2" x="78.489556" y="136.747"/>
  <use xlink:href="#glyph1-11" x="80.800879" y="136.747"/>
  <use xlink:href="#glyph1-12" x="83.37123" y="136.747"/>
  <use xlink:href="#glyph1-9" x="85.926637" y="136.747"/>
  <use xlink:href="#glyph1-4" x="88.257885" y="136.747"/>
  <use xlink:href="#glyph1-9" x="89.259126" y="136.747"/>
  <use xlink:href="#glyph1-9" x="91.590375" y="136.747"/>
  <use xlink:href="#glyph1-10" x="93.921623" y="136.747"/>
</g>
<g style="fill:rgb(0%,0%,0%);fill-opacity:1;">
  <use xlink:href="#glyph1-7" x="98.544269" y="136.747"/>
  <use xlink:href="#glyph1-2" x="99.879258" y="136.747"/>
  <use xlink:href="#glyph1-3" x="102.190581" y="136.747"/>
  <use xlink:href="#glyph1-8" x="103.894186" y="136.747"/>
  <use xlink:href="#glyph1-9" x="106.28521" y="136.747"/>
  <use xlink:href="#glyph1-4" x="108.616458" y="136.747"/>
  <use xlink:href="#glyph1-9" x="109.617699" y="136.747"/>
  <use xlink:href="#glyph1-9" x="111.948948" y="136.747"/>
  <use xlink:href="#glyph1-10" x="114.280196" y="136.747"/>
</g>
<path style="fill:none;stroke-width:0.3985;stroke-linecap:butt;stroke-linejoin:miter;stroke:rgb(0%,0%,0%);stroke-opacity:1;stroke-miterlimit:10;" d="M 226.775906 107.067406 L 226.775906 92.680687 L 212.885281 92.680687 M 212.885281 77.399437 L 226.775906 77.399437 L 226.775906 63.012719 " transform="matrix(1,0,0,-1,15.228,282.001)"/>
<path style="fill:none;stroke-width:0.797;stroke-linecap:butt;stroke-linejoin:miter;stroke:rgb(0%,0%,0%);stroke-opacity:1;stroke-miterlimit:10;" d="M 212.885281 95.954125 L 212.885281 74.126 M 209.549344 92.680687 L 209.549344 77.399437 " transform="matrix(1,0,0,-1,15.228,282.001)"/>
<path style="fill-rule:nonzero;fill:rgb(0%,0%,0%);fill-opacity:1;stroke-width:0.3985;stroke-linecap:butt;stroke-linejoin:miter;stroke:rgb(0%,0%,0%);stroke-opacity:1;stroke-miterlimit:10;" d="M 218.150906 77.399437 L 218.150906 75.415062 L 222.36575 77.399437 L 218.150906 79.383812 Z M 218.150906 77.399437 " transform="matrix(1,0,0,-1,15.228,282.001)"/>
<path style="fill:none;stroke-width:0.3985;stroke-linecap:butt;stroke-linejoin:miter;stroke:rgb(0%,0%,0%);stroke-opacity:1;stroke-miterlimit:10;" d="M 209.549344 85.040062 L 198.795437 85.040062 " transform="matrix(1,0,0,-1,15.228,282.001)"/>
<path style="fill:none;stroke-width:0.3985;stroke-linecap:butt;stroke-linejoin:miter;stroke:rgb(0%,0%,0%);stroke-opacity:1;stroke-miterlimit:10;" d="M 212.885281 85.040062 L 226.975125 85.040062 " transform="matrix(1,0,0,-1,15.228,282.001)"/>
<g style="fill:rgb(0%,0%,0%);fill-opacity:1;">
  <use xlink:href="#glyph0-1" x="245.971" y="181.682"/>
  <use xlink:href="#glyph0-8" x="252.107962" y="181.682"/>
  <use xlink:href="#glyph0-9" x="257.956008" y="181.682"/>
</g>
<g style="fill:rgb(0%,0%,0%);fill-opacity:1;">
  <use xlink:href="#glyph1-1" x="245.522" y="193.441"/>
  <use xlink:href="#glyph1-2" x="248.570556" y="193.441"/>
  <use xlink:href="#glyph1-13" x="250.881879" y="193.441"/>
  <use xlink:href="#glyph1-12" x="253.26294" y="193.441"/>
  <use xlink:href="#glyph1-9" x="255.818347" y="193.441"/>
  <use xlink:href="#glyph1-4" x="258.149595" y="193.441"/>
  <use xlink:href="#glyph1-9" x="259.150837" y="193.441"/>
  <use xlink:href="#glyph1-9" x="261.482085" y="193.441"/>
  <use xlink:href="#glyph1-10" x="263.813334" y="193.441"/>
</g>
<g style="fill:rgb(0%,0%,0%);fill-opacity:1;">
  <use xlink:href="#glyph1-7" x="268.43598" y="193.441"/>
  <use xlink:href="#glyph1-2" x="269.770968" y="193.441"/>
  <use xlink:href="#glyph1-3" x="272.082292" y="193.441"/>
  <use xlink:href="#glyph1-8" x="273.785896" y="193.441"/>
  <use xlink:href="#glyph1-9" x="276.17692" y="193.441"/>
  <use xlink:href="#glyph1-4" x="278.508169" y="193.441"/>
  <use xlink:href="#glyph1-9" x="279.50941" y="193.441"/>
  <use xlink:href="#glyph1-9" x="281.840658" y="193.441"/>
  <use xlink:href="#glyph1-10" x="284.171907" y="193.441"/>
</g>
<path style="fill:none;stroke-width:0.3985;stroke-linecap:butt;stroke-linejoin:miter;stroke:rgb(0%,0%,0%);stroke-opacity:1;stroke-miterlimit:10;" d="M 141.732937 50.372094 L 141.732937 35.985375 L 127.842313 35.985375 M 127.842313 20.708031 L 141.732937 20.708031 L 141.732937 6.321312 " transform="matrix(1,0,0,-1,15.228,282.001)"/>
<path style="fill:none;stroke-width:0.797;stroke-linecap:butt;stroke-linejoin:miter;stroke:rgb(0%,0%,0%);stroke-opacity:1;stroke-miterlimit:10;" d="M 127.842313 39.258812 L 127.842313 17.434594 M 124.510281 35.985375 L 124.510281 20.708031 " transform="matrix(1,0,0,-1,15.228,282.001)"/>
<path style="fill-rule:nonzero;fill:rgb(0%,0%,0%);fill-opacity:1;stroke-width:0.3985;stroke-linecap:butt;stroke-linejoin:miter;stroke:rgb(0%,0%,0%);stroke-opacity:1;stroke-miterlimit:10;" d="M 133.107937 20.708031 L 133.107937 18.723656 L 137.326687 20.708031 L 133.107937 22.692406 Z M 133.107937 20.708031 " transform="matrix(1,0,0,-1,15.228,282.001)"/>
<path style="fill:none;stroke-width:0.3985;stroke-linecap:butt;stroke-linejoin:miter;stroke:rgb(0%,0%,0%);stroke-opacity:1;stroke-miterlimit:10;" d="M 124.510281 28.348656 L 113.756375 28.348656 " transform="matrix(1,0,0,-1,15.228,282.001)"/>
<path style="fill:none;stroke-width:0.3985;stroke-linecap:butt;stroke-linejoin:miter;stroke:rgb(0%,0%,0%);stroke-opacity:1;stroke-miterlimit:10;" d="M 127.842313 28.348656 L 141.932156 28.348656 " transform="matrix(1,0,0,-1,15.228,282.001)"/>
<g style="fill:rgb(0%,0%,0%);fill-opacity:1;">
  <use xlink:href="#glyph0-1" x="160.931" y="238.375"/>
  <use xlink:href="#glyph0-8" x="167.067962" y="238.375"/>
  <use xlink:href="#glyph0-10" x="172.916008" y="238.375"/>
</g>
<g style="fill:rgb(0%,0%,0%);fill-opacity:1;">
  <use xlink:href="#glyph1-1" x="160.482" y="250.134"/>
  <use xlink:href="#glyph1-2" x="163.530556" y="250.134"/>
  <use xlink:href="#glyph1-14" x="165.841879" y="250.134"/>
  <use xlink:href="#glyph1-12" x="168.307622" y="250.134"/>
  <use xlink:href="#glyph1-9" x="170.863029" y="250.134"/>
  <use xlink:href="#glyph1-4" x="173.194278" y="250.134"/>
  <use xlink:href="#glyph1-9" x="174.195519" y="250.134"/>
  <use xlink:href="#glyph1-9" x="176.526767" y="250.134"/>
  <use xlink:href="#glyph1-10" x="178.858016" y="250.134"/>
</g>
<g style="fill:rgb(0%,0%,0%);fill-opacity:1;">
  <use xlink:href="#glyph1-7" x="183.480662" y="250.134"/>
  <use xlink:href="#glyph1-2" x="184.815651" y="250.134"/>
  <use xlink:href="#glyph1-3" x="187.126974" y="250.134"/>
  <use xlink:href="#glyph1-8" x="188.830578" y="250.134"/>
  <use xlink:href="#glyph1-9" x="191.221602" y="250.134"/>
  <use xlink:href="#glyph1-4" x="193.552851" y="250.134"/>
  <use xlink:href="#glyph1-9" x="194.554092" y="250.134"/>
  <use xlink:href="#glyph1-9" x="196.88534" y="250.134"/>
  <use xlink:href="#glyph1-10" x="199.216589" y="250.134"/>
</g>
<path style="fill:none;stroke-width:0.3985;stroke-linecap:butt;stroke-linejoin:miter;stroke:rgb(0%,0%,0%);stroke-opacity:1;stroke-miterlimit:10;" d="M 141.732937 107.067406 L 141.732937 92.680687 L 127.842313 92.680687 M 127.842313 77.399437 L 141.732937 77.399437 L 141.732937 63.012719 " transform="matrix(1,0,0,-1,15.228,282.001)"/>
<path style="fill:none;stroke-width:0.797;stroke-linecap:butt;stroke-linejoin:miter;stroke:rgb(0%,0%,0%);stroke-opacity:1;stroke-miterlimit:10;" d="M 127.842313 95.954125 L 127.842313 74.126 M 124.510281 92.680687 L 124.510281 77.399437 " transform="matrix(1,0,0,-1,15.228,282.001)"/>
<path style="fill-rule:nonzero;fill:rgb(0%,0%,0%);fill-opacity:1;stroke-width:0.3985;stroke-linecap:butt;stroke-linejoin:miter;stroke:rgb(0%,0%,0%);stroke-opacity:1;stroke-miterlimit:10;" d="M 133.107937 77.399437 L 133.107937 75.415062 L 137.326687 77.399437 L 133.107937 79.383812 Z M 133.107937 77.399437 " transform="matrix(1,0,0,-1,15.228,282.001)"/>
<path style="fill:none;stroke-width:0.3985;stroke-linecap:butt;stroke-linejoin:miter;stroke:rgb(0%,0%,0%);stroke-opacity:1;stroke-miterlimit:10;" d="M 124.510281 85.040062 L 113.756375 85.040062 " transform="matrix(1,0,0,-1,15.228,282.001)"/>
<path style="fill:none;stroke-width:0.3985;stroke-linecap:butt;stroke-linejoin:miter;stroke:rgb(0%,0%,0%);stroke-opacity:1;stroke-miterlimit:10;" d="M 127.842313 85.040062 L 141.932156 85.040062 " transform="matrix(1,0,0,-1,15.228,282.001)"/>
<g style="fill:rgb(0%,0%,0%);fill-opacity:1;">
  <use xlink:href="#glyph0-1" x="160.931" y="181.682"/>
  <use xlink:href="#glyph0-8" x="167.067962" y="181.682"/>
  <use xlink:href="#glyph0-11" x="172.916008" y="181.682"/>
</g>
<g style="fill:rgb(0%,0%,0%);fill-opacity:1;">
  <use xlink:href="#glyph1-1" x="160.482" y="193.441"/>
  <use xlink:href="#glyph1-2" x="163.530556" y="193.441"/>
  <use xlink:href="#glyph1-14" x="165.841879" y="193.441"/>
  <use xlink:href="#glyph1-12" x="168.307622" y="193.441"/>
  <use xlink:href="#glyph1-9" x="170.863029" y="193.441"/>
  <use xlink:href="#glyph1-4" x="173.194278" y="193.441"/>
  <use xlink:href="#glyph1-9" x="174.195519" y="193.441"/>
  <use xlink:href="#glyph1-9" x="176.526767" y="193.441"/>
  <use xlink:href="#glyph1-10" x="178.858016" y="193.441"/>
</g>
<g style="fill:rgb(0%,0%,0%);fill-opacity:1;">
  <use xlink:href="#glyph1-7" x="183.480662" y="193.441"/>
  <use xlink:href="#glyph1-2" x="184.815651" y="193.441"/>
  <use xlink:href="#glyph1-3" x="187.126974" y="193.441"/>
  <use xlink:href="#glyph1-8" x="188.830578" y="193.441"/>
  <use xlink:href="#glyph1-9" x="191.221602" y="193.441"/>
  <use xlink:href="#glyph1-4" x="193.552851" y="193.441"/>
  <use xlink:href="#glyph1-9" x="194.554092" y="193.441"/>
  <use xlink:href="#glyph1-9" x="196.88534" y="193.441"/>
  <use xlink:href="#glyph1-10" x="199.216589" y="193.441"/>
</g>
<path style="fill:none;stroke-width:0.3985;stroke-linecap:butt;stroke-linejoin:miter;stroke:rgb(0%,0%,0%);stroke-opacity:1;stroke-miterlimit:10;" d="M 311.814969 50.372094 L 311.814969 35.985375 L 297.924344 35.985375 M 297.924344 20.708031 L 311.814969 20.708031 L 311.814969 6.321312 " transform="matrix(1,0,0,-1,15.228,282.001)"/>
<path style="fill:none;stroke-width:0.797;stroke-linecap:butt;stroke-linejoin:miter;stroke:rgb(0%,0%,0%);stroke-opacity:1;stroke-miterlimit:10;" d="M 297.924344 39.258812 L 297.924344 17.434594 M 294.592312 35.985375 L 294.592312 20.708031 " transform="matrix(1,0,0,-1,15.228,282.001)"/>
<path style="fill-rule:nonzero;fill:rgb(0%,0%,0%);fill-opacity:1;stroke-width:0.3985;stroke-linecap:butt;stroke-linejoin:miter;stroke:rgb(0%,0%,0%);stroke-opacity:1;stroke-miterlimit:10;" d="M 303.189969 20.708031 L 303.189969 18.723656 L 307.404812 20.708031 L 303.189969 22.692406 Z M 303.189969 20.708031 " transform="matrix(1,0,0,-1,15.228,282.001)"/>
<path style="fill:none;stroke-width:0.3985;stroke-linecap:butt;stroke-linejoin:miter;stroke:rgb(0%,0%,0%);stroke-opacity:1;stroke-miterlimit:10;" d="M 294.592312 28.348656 L 283.8345 28.348656 " transform="matrix(1,0,0,-1,15.228,282.001)"/>
<path style="fill:none;stroke-width:0.3985;stroke-linecap:butt;stroke-linejoin:miter;stroke:rgb(0%,0%,0%);stroke-opacity:1;stroke-miterlimit:10;" d="M 297.924344 28.348656 L 312.014187 28.348656 " transform="matrix(1,0,0,-1,15.228,282.001)"/>
<g style="fill:rgb(0%,0%,0%);fill-opacity:1;">
  <use xlink:href="#glyph0-1" x="331.012" y="238.375"/>
  <use xlink:href="#glyph0-8" x="337.148962" y="238.375"/>
  <use xlink:href="#glyph0-12" x="342.997008" y="238.375"/>
</g>
<g style="fill:rgb(0%,0%,0%);fill-opacity:1;">
  <use xlink:href="#glyph1-1" x="330.563" y="250.134"/>
  <use xlink:href="#glyph1-2" x="333.611556" y="250.134"/>
  <use xlink:href="#glyph1-13" x="335.922879" y="250.134"/>
  <use xlink:href="#glyph1-12" x="338.30394" y="250.134"/>
  <use xlink:href="#glyph1-9" x="340.859347" y="250.134"/>
  <use xlink:href="#glyph1-4" x="343.190595" y="250.134"/>
  <use xlink:href="#glyph1-9" x="344.191837" y="250.134"/>
  <use xlink:href="#glyph1-9" x="346.523085" y="250.134"/>
  <use xlink:href="#glyph1-10" x="348.854334" y="250.134"/>
</g>
<g style="fill:rgb(0%,0%,0%);fill-opacity:1;">
  <use xlink:href="#glyph1-7" x="353.47698" y="250.134"/>
  <use xlink:href="#glyph1-2" x="354.811968" y="250.134"/>
  <use xlink:href="#glyph1-3" x="357.123292" y="250.134"/>
  <use xlink:href="#glyph1-8" x="358.826896" y="250.134"/>
  <use xlink:href="#glyph1-9" x="361.21792" y="250.134"/>
  <use xlink:href="#glyph1-4" x="363.549169" y="250.134"/>
  <use xlink:href="#glyph1-9" x="364.55041" y="250.134"/>
  <use xlink:href="#glyph1-9" x="366.881658" y="250.134"/>
  <use xlink:href="#glyph1-10" x="369.212907" y="250.134"/>
</g>
<path style="fill:none;stroke-width:0.3985;stroke-linecap:butt;stroke-linejoin:miter;stroke:rgb(0%,0%,0%);stroke-opacity:1;stroke-miterlimit:10;" d="M 226.775906 50.372094 L 226.775906 35.985375 L 212.885281 35.985375 M 212.885281 20.708031 L 226.775906 20.708031 L 226.775906 6.321312 " transform="matrix(1,0,0,-1,15.228,282.001)"/>
<path style="fill:none;stroke-width:0.797;stroke-linecap:butt;stroke-linejoin:miter;stroke:rgb(0%,0%,0%);stroke-opacity:1;stroke-miterlimit:10;" d="M 212.885281 39.258812 L 212.885281 17.434594 M 209.549344 35.985375 L 209.549344 20.708031 " transform="matrix(1,0,0,-1,15.228,282.001)"/>
<path style="fill-rule:nonzero;fill:rgb(0%,0%,0%);fill-opacity:1;stroke-width:0.3985;stroke-linecap:butt;stroke-linejoin:miter;stroke:rgb(0%,0%,0%);stroke-opacity:1;stroke-miterlimit:10;" d="M 218.150906 20.708031 L 218.150906 18.723656 L 222.36575 20.708031 L 218.150906 22.692406 Z M 218.150906 20.708031 " transform="matrix(1,0,0,-1,15.228,282.001)"/>
<path style="fill:none;stroke-width:0.3985;stroke-linecap:butt;stroke-linejoin:miter;stroke:rgb(0%,0%,0%);stroke-opacity:1;stroke-miterlimit:10;" d="M 209.549344 28.348656 L 198.795437 28.348656 " transform="matrix(1,0,0,-1,15.228,282.001)"/>
<path style="fill:none;stroke-width:0.3985;stroke-linecap:butt;stroke-linejoin:miter;stroke:rgb(0%,0%,0%);stroke-opacity:1;stroke-miterlimit:10;" d="M 212.885281 28.348656 L 226.975125 28.348656 " transform="matrix(1,0,0,-1,15.228,282.001)"/>
<g style="fill:rgb(0%,0%,0%);fill-opacity:1;">
  <use xlink:href="#glyph0-1" x="245.971" y="238.375"/>
  <use xlink:href="#glyph0-8" x="252.107962" y="238.375"/>
  <use xlink:href="#glyph0-13" x="257.956008" y="238.375"/>
</g>
<g style="fill:rgb(0%,0%,0%);fill-opacity:1;">
  <use xlink:href="#glyph1-1" x="245.522" y="250.134"/>
  <use xlink:href="#glyph1-2" x="248.570556" y="250.134"/>
  <use xlink:href="#glyph1-13" x="250.881879" y="250.134"/>
  <use xlink:href="#glyph1-12" x="253.26294" y="250.134"/>
  <use xlink:href="#glyph1-9" x="255.818347" y="250.134"/>
  <use xlink:href="#glyph1-4" x="258.149595" y="250.134"/>
  <use xlink:href="#glyph1-9" x="259.150837" y="250.134"/>
  <use xlink:href="#glyph1-9" x="261.482085" y="250.134"/>
  <use xlink:href="#glyph1-10" x="263.813334" y="250.134"/>
</g>
<g style="fill:rgb(0%,0%,0%);fill-opacity:1;">
  <use xlink:href="#glyph1-7" x="268.43598" y="250.134"/>
  <use xlink:href="#glyph1-2" x="269.770968" y="250.134"/>
  <use xlink:href="#glyph1-3" x="272.082292" y="250.134"/>
  <use xlink:href="#glyph1-8" x="273.785896" y="250.134"/>
  <use xlink:href="#glyph1-9" x="276.17692" y="250.134"/>
  <use xlink:href="#glyph1-4" x="278.508169" y="250.134"/>
  <use xlink:href="#glyph1-9" x="279.50941" y="250.134"/>
  <use xlink:href="#glyph1-9" x="281.840658" y="250.134"/>
  <use xlink:href="#glyph1-10" x="284.171907" y="250.134"/>
</g>
<path style="fill-rule:nonzero;fill:rgb(100%,100%,100%);fill-opacity:1;stroke-width:0.3985;stroke-linecap:butt;stroke-linejoin:miter;stroke:rgb(0%,0%,0%);stroke-opacity:1;stroke-miterlimit:10;" d="M 2.154813 141.735375 C 2.154813 142.610375 1.443875 143.321312 0.568875 143.321312 C -0.310031 143.321312 -1.020969 142.610375 -1.020969 141.735375 C -1.020969 140.856469 -0.310031 140.145531 0.568875 140.145531 C 1.443875 140.145531 2.154813 140.856469 2.154813 141.735375 Z M 2.154813 141.735375 " transform="matrix(1,0,0,-1,15.228,282.001)"/>
<g style="fill:rgb(0%,0%,0%);fill-opacity:1;">
  <use xlink:href="#glyph0-14" x="6.156" y="143.932"/>
</g>
<path style="fill-rule:nonzero;fill:rgb(0%,0%,0%);fill-opacity:1;stroke-width:0.3985;stroke-linecap:butt;stroke-linejoin:miter;stroke:rgb(0%,0%,0%);stroke-opacity:1;stroke-miterlimit:10;" d="M 115.541531 85.040062 C 115.541531 85.915062 114.830594 86.626 113.955594 86.626 C 113.076688 86.626 112.36575 85.915062 112.36575 85.040062 C 112.36575 84.165062 113.076688 83.454125 113.955594 83.454125 C 114.830594 83.454125 115.541531 84.165062 115.541531 85.040062 Z M 115.541531 85.040062 " transform="matrix(1,0,0,-1,15.228,282.001)"/>
<path style="fill-rule:nonzero;fill:rgb(100%,100%,100%);fill-opacity:1;stroke-width:0.3985;stroke-linecap:butt;stroke-linejoin:miter;stroke:rgb(0%,0%,0%);stroke-opacity:1;stroke-miterlimit:10;" d="M 2.154813 85.040062 C 2.154813 85.915062 1.443875 86.626 0.568875 86.626 C -0.310031 86.626 -1.020969 85.915062 -1.020969 85.040062 C -1.020969 84.165062 -0.310031 83.454125 0.568875 83.454125 C 1.443875 83.454125 2.154813 84.165062 2.154813 85.040062 Z M 2.154813 85.040062 " transform="matrix(1,0,0,-1,15.228,282.001)"/>
<g style="fill:rgb(0%,0%,0%);fill-opacity:1;">
  <use xlink:href="#glyph0-15" x="6.477" y="200.633"/>
</g>
<path style="fill-rule:nonzero;fill:rgb(0%,0%,0%);fill-opacity:1;stroke-width:0.3985;stroke-linecap:butt;stroke-linejoin:miter;stroke:rgb(0%,0%,0%);stroke-opacity:1;stroke-miterlimit:10;" d="M 143.322781 113.387719 C 143.322781 114.262719 142.611844 114.973656 141.732937 114.973656 C 140.857937 114.973656 140.147 114.262719 140.147 113.387719 C 140.147 112.508812 140.857937 111.801781 141.732937 111.801781 C 142.611844 111.801781 143.322781 112.508812 143.322781 113.387719 Z M 143.322781 113.387719 " transform="matrix(1,0,0,-1,15.228,282.001)"/>
<path style="fill-rule:nonzero;fill:rgb(0%,0%,0%);fill-opacity:1;stroke-width:0.3985;stroke-linecap:butt;stroke-linejoin:miter;stroke:rgb(0%,0%,0%);stroke-opacity:1;stroke-miterlimit:10;" d="M 200.580594 113.387719 C 200.580594 114.262719 199.869656 114.973656 198.994656 114.973656 C 198.119656 114.973656 197.408719 114.262719 197.408719 113.387719 C 197.408719 112.508812 198.119656 111.801781 198.994656 111.801781 C 199.869656 111.801781 200.580594 112.508812 200.580594 113.387719 Z M 200.580594 113.387719 " transform="matrix(1,0,0,-1,15.228,282.001)"/>
<path style="fill-rule:nonzero;fill:rgb(0%,0%,0%);fill-opacity:1;stroke-width:0.3985;stroke-linecap:butt;stroke-linejoin:miter;stroke:rgb(0%,0%,0%);stroke-opacity:1;stroke-miterlimit:10;" d="M 228.361844 56.692406 C 228.361844 57.571312 227.650906 58.28225 226.775906 58.28225 C 225.897 58.28225 225.186062 57.571312 225.186062 56.692406 C 225.186062 55.817406 225.897 55.106469 226.775906 55.106469 C 227.650906 55.106469 228.361844 55.817406 228.361844 56.692406 Z M 228.361844 56.692406 " transform="matrix(1,0,0,-1,15.228,282.001)"/>
<path style="fill-rule:nonzero;fill:rgb(0%,0%,0%);fill-opacity:1;stroke-width:0.3985;stroke-linecap:butt;stroke-linejoin:miter;stroke:rgb(0%,0%,0%);stroke-opacity:1;stroke-miterlimit:10;" d="M 285.623562 170.079125 C 285.623562 170.958031 284.912625 171.668969 284.033719 171.668969 C 283.158719 171.668969 282.447781 170.958031 282.447781 170.079125 C 282.447781 169.204125 283.158719 168.493187 284.033719 168.493187 C 284.912625 168.493187 285.623562 169.204125 285.623562 170.079125 Z M 285.623562 170.079125 " transform="matrix(1,0,0,-1,15.228,282.001)"/>
<path style="fill-rule:nonzero;fill:rgb(0%,0%,0%);fill-opacity:1;stroke-width:0.3985;stroke-linecap:butt;stroke-linejoin:miter;stroke:rgb(0%,0%,0%);stroke-opacity:1;stroke-miterlimit:10;" d="M 115.541531 141.735375 C 115.541531 142.610375 114.830594 143.321312 113.955594 143.321312 C 113.076688 143.321312 112.36575 142.610375 112.36575 141.735375 C 112.36575 140.856469 113.076688 140.145531 113.955594 140.145531 C 114.830594 140.145531 115.541531 140.856469 115.541531 141.735375 Z M 115.541531 141.735375 " transform="matrix(1,0,0,-1,15.228,282.001)"/>
<path style="fill-rule:nonzero;fill:rgb(0%,0%,0%);fill-opacity:1;stroke-width:0.3985;stroke-linecap:butt;stroke-linejoin:miter;stroke:rgb(0%,0%,0%);stroke-opacity:1;stroke-miterlimit:10;" d="M 172.236844 226.774437 C 172.236844 227.649437 171.525906 228.360375 170.647 228.360375 C 169.772 228.360375 169.061062 227.649437 169.061062 226.774437 C 169.061062 225.899437 169.772 225.1885 170.647 225.1885 C 171.525906 225.1885 172.236844 225.899437 172.236844 226.774437 Z M 172.236844 226.774437 " transform="matrix(1,0,0,-1,15.228,282.001)"/>
<path style="fill-rule:nonzero;fill:rgb(0%,0%,0%);fill-opacity:1;stroke-width:0.3985;stroke-linecap:butt;stroke-linejoin:miter;stroke:rgb(0%,0%,0%);stroke-opacity:1;stroke-miterlimit:10;" d="M 30.502469 141.735375 C 30.502469 142.610375 29.791531 143.321312 28.912625 143.321312 C 28.037625 143.321312 27.326688 142.610375 27.326688 141.735375 C 27.326688 140.856469 28.037625 140.145531 28.912625 140.145531 C 29.791531 140.145531 30.502469 140.856469 30.502469 141.735375 Z M 30.502469 141.735375 " transform="matrix(1,0,0,-1,15.228,282.001)"/>
<path style="fill-rule:nonzero;fill:rgb(0%,0%,0%);fill-opacity:1;stroke-width:0.3985;stroke-linecap:butt;stroke-linejoin:miter;stroke:rgb(0%,0%,0%);stroke-opacity:1;stroke-miterlimit:10;" d="M 228.361844 113.387719 C 228.361844 114.262719 227.650906 114.973656 226.775906 114.973656 C 225.897 114.973656 225.186062 114.262719 225.186062 113.387719 C 225.186062 112.508812 225.897 111.801781 226.775906 111.801781 C 227.650906 111.801781 228.361844 112.508812 228.361844 113.387719 Z M 228.361844 113.387719 " transform="matrix(1,0,0,-1,15.228,282.001)"/>
<path style="fill-rule:nonzero;fill:rgb(0%,0%,0%);fill-opacity:1;stroke-width:0.3985;stroke-linecap:butt;stroke-linejoin:miter;stroke:rgb(0%,0%,0%);stroke-opacity:1;stroke-miterlimit:10;" d="M 313.400906 113.387719 C 313.400906 114.262719 312.689969 114.973656 311.814969 114.973656 C 310.939969 114.973656 310.229031 114.262719 310.229031 113.387719 C 310.229031 112.508812 310.939969 111.801781 311.814969 111.801781 C 312.689969 111.801781 313.400906 112.508812 313.400906 113.387719 Z M 313.400906 113.387719 " transform="matrix(1,0,0,-1,15.228,282.001)"/>
<path style="fill-rule:nonzero;fill:rgb(100%,100%,100%);fill-opacity:1;stroke-width:0.3985;stroke-linecap:butt;stroke-linejoin:miter;stroke:rgb(0%,0%,0%);stroke-opacity:1;stroke-miterlimit:10;" d="M 370.096219 113.387719 C 370.096219 114.262719 369.385281 114.973656 368.510281 114.973656 C 367.631375 114.973656 366.920437 114.262719 366.920437 113.387719 C 366.920437 112.508812 367.631375 111.801781 368.510281 111.801781 C 369.385281 111.801781 370.096219 112.508812 370.096219 113.387719 Z M 370.096219 113.387719 " transform="matrix(1,0,0,-1,15.228,282.001)"/>
<g style="fill:rgb(0%,0%,0%);fill-opacity:1;">
  <use xlink:href="#glyph0-16" x="387.256" y="172.289"/>
</g>
<path style="fill-rule:nonzero;fill:rgb(0%,0%,0%);fill-opacity:1;stroke-width:0.3985;stroke-linecap:butt;stroke-linejoin:miter;stroke:rgb(0%,0%,0%);stroke-opacity:1;stroke-miterlimit:10;" d="M 58.279813 149.387719 C 58.279813 150.262719 57.568875 150.973656 56.693875 150.973656 C 55.818875 150.973656 55.107938 150.262719 55.107938 149.387719 C 55.107938 148.512719 55.818875 147.801781 56.693875 147.801781 C 57.568875 147.801781 58.279813 148.512719 58.279813 149.387719 Z M 58.279813 149.387719 " transform="matrix(1,0,0,-1,15.228,282.001)"/>
<path style="fill-rule:nonzero;fill:rgb(0%,0%,0%);fill-opacity:1;stroke-width:0.3985;stroke-linecap:butt;stroke-linejoin:miter;stroke:rgb(0%,0%,0%);stroke-opacity:1;stroke-miterlimit:10;" d="M 143.322781 149.387719 C 143.322781 150.262719 142.611844 150.973656 141.732937 150.973656 C 140.857937 150.973656 140.147 150.262719 140.147 149.387719 C 140.147 148.512719 140.857937 147.801781 141.732937 147.801781 C 142.611844 147.801781 143.322781 148.512719 143.322781 149.387719 Z M 143.322781 149.387719 " transform="matrix(1,0,0,-1,15.228,282.001)"/>
<path style="fill-rule:nonzero;fill:rgb(0%,0%,0%);fill-opacity:1;stroke-width:0.3985;stroke-linecap:butt;stroke-linejoin:miter;stroke:rgb(0%,0%,0%);stroke-opacity:1;stroke-miterlimit:10;" d="M 228.361844 149.387719 C 228.361844 150.262719 227.650906 150.973656 226.775906 150.973656 C 225.897 150.973656 225.186062 150.262719 225.186062 149.387719 C 225.186062 148.512719 225.897 147.801781 226.775906 147.801781 C 227.650906 147.801781 228.361844 148.512719 228.361844 149.387719 Z M 228.361844 149.387719 " transform="matrix(1,0,0,-1,15.228,282.001)"/>
<path style="fill-rule:nonzero;fill:rgb(0%,0%,0%);fill-opacity:1;stroke-width:0.3985;stroke-linecap:butt;stroke-linejoin:miter;stroke:rgb(0%,0%,0%);stroke-opacity:1;stroke-miterlimit:10;" d="M 313.400906 234.426781 C 313.400906 235.305687 312.689969 236.016625 311.814969 236.016625 C 310.939969 236.016625 310.229031 235.305687 310.229031 234.426781 C 310.229031 233.551781 310.939969 232.840844 311.814969 232.840844 C 312.689969 232.840844 313.400906 233.551781 313.400906 234.426781 Z M 313.400906 234.426781 " transform="matrix(1,0,0,-1,15.228,282.001)"/>
<path style="fill:none;stroke-width:0.3985;stroke-linecap:butt;stroke-linejoin:miter;stroke:rgb(0%,0%,0%);stroke-opacity:1;stroke-miterlimit:10;" d="M 325.986844 170.079125 L 325.986844 181.6885 " transform="matrix(1,0,0,-1,15.228,282.001)"/>
<path style="fill:none;stroke-width:0.3985;stroke-linecap:butt;stroke-linejoin:miter;stroke:rgb(0%,0%,0%);stroke-opacity:1;stroke-miterlimit:10;" d="M -0.00087375 7.087394 L -0.00087375 -7.088388 " transform="matrix(0,-1,-1,0,341.2163,100.21397)"/>
<path style="fill-rule:nonzero;fill:rgb(0%,0%,0%);fill-opacity:1;stroke-width:0.3985;stroke-linecap:butt;stroke-linejoin:miter;stroke:rgb(0%,0%,0%);stroke-opacity:1;stroke-miterlimit:10;" d="M 143.322781 20.692406 C 143.322781 21.571312 142.611844 22.278344 141.732937 22.278344 C 140.857937 22.278344 140.147 21.571312 140.147 20.692406 C 140.147 19.817406 140.857937 19.106469 141.732937 19.106469 C 142.611844 19.106469 143.322781 19.817406 143.322781 20.692406 Z M 143.322781 20.692406 " transform="matrix(1,0,0,-1,15.228,282.001)"/>
<path style="fill-rule:nonzero;fill:rgb(0%,0%,0%);fill-opacity:1;stroke-width:0.3985;stroke-linecap:butt;stroke-linejoin:miter;stroke:rgb(0%,0%,0%);stroke-opacity:1;stroke-miterlimit:10;" d="M 228.361844 20.692406 C 228.361844 21.571312 227.650906 22.278344 226.775906 22.278344 C 225.897 22.278344 225.186062 21.571312 225.186062 20.692406 C 225.186062 19.817406 225.897 19.106469 226.775906 19.106469 C 227.650906 19.106469 228.361844 19.817406 228.361844 20.692406 Z M 228.361844 20.692406 " transform="matrix(1,0,0,-1,15.228,282.001)"/>
<path style="fill-rule:nonzero;fill:rgb(0%,0%,0%);fill-opacity:1;stroke-width:0.3985;stroke-linecap:butt;stroke-linejoin:miter;stroke:rgb(0%,0%,0%);stroke-opacity:1;stroke-miterlimit:10;" d="M 313.400906 20.692406 C 313.400906 21.571312 312.689969 22.278344 311.814969 22.278344 C 310.939969 22.278344 310.229031 21.571312 310.229031 20.692406 C 310.229031 19.817406 310.939969 19.106469 311.814969 19.106469 C 312.689969 19.106469 313.400906 19.817406 313.400906 20.692406 Z M 313.400906 20.692406 " transform="matrix(1,0,0,-1,15.228,282.001)"/>
<path style="fill:none;stroke-width:0.3985;stroke-linecap:butt;stroke-linejoin:miter;stroke:rgb(0%,0%,0%);stroke-opacity:1;stroke-miterlimit:10;" d="M 155.908719 85.040062 L 155.908719 74.836937 " transform="matrix(1,0,0,-1,15.228,282.001)"/>
<path style="fill:none;stroke-width:0.797;stroke-linecap:butt;stroke-linejoin:miter;stroke:rgb(0%,0%,0%);stroke-opacity:1;stroke-miterlimit:10;" d="M 150.80325 74.836937 L 161.010281 74.836937 M 152.506375 73.133812 L 159.307156 73.133812 M 153.779812 71.434594 L 158.033719 71.434594 " transform="matrix(1,0,0,-1,15.228,282.001)"/>
<path style="fill:none;stroke-width:0.3985;stroke-linecap:butt;stroke-linejoin:miter;stroke:rgb(0%,0%,0%);stroke-opacity:1;stroke-miterlimit:10;" d="M 240.947781 85.040062 L 240.947781 74.836937 " transform="matrix(1,0,0,-1,15.228,282.001)"/>
<path style="fill:none;stroke-width:0.797;stroke-linecap:butt;stroke-linejoin:miter;stroke:rgb(0%,0%,0%);stroke-opacity:1;stroke-miterlimit:10;" d="M 235.846219 74.836937 L 246.049344 74.836937 M 237.545437 73.133812 L 244.350125 73.133812 M 238.822781 71.434594 L 243.072781 71.434594 " transform="matrix(1,0,0,-1,15.228,282.001)"/>
<path style="fill:none;stroke-width:0.3985;stroke-linecap:butt;stroke-linejoin:miter;stroke:rgb(0%,0%,0%);stroke-opacity:1;stroke-miterlimit:10;" d="M 226.775906 163.559594 L 226.775906 175.168969 " transform="matrix(1,0,0,-1,15.228,282.001)"/>
<path style="fill:none;stroke-width:0.3985;stroke-linecap:butt;stroke-linejoin:miter;stroke:rgb(0%,0%,0%);stroke-opacity:1;stroke-miterlimit:10;" d="M -0.000645 7.088417 L -0.000645 -7.087364 " transform="matrix(0,-1,-1,0,242.00248,106.73373)"/>
<g style="fill:rgb(0%,0%,0%);fill-opacity:1;">
  <use xlink:href="#glyph0-17" x="233.078" y="98.893"/>
  <use xlink:href="#glyph0-18" x="239.204999" y="98.893"/>
  <use xlink:href="#glyph0-18" x="245.063008" y="98.893"/>
</g>
<path style="fill:none;stroke-width:0.3985;stroke-linecap:butt;stroke-linejoin:miter;stroke:rgb(0%,0%,0%);stroke-opacity:1;stroke-miterlimit:10;" d="M 311.814969 248.602562 L 311.814969 260.208031 " transform="matrix(1,0,0,-1,15.228,282.001)"/>
<path style="fill:none;stroke-width:0.3985;stroke-linecap:butt;stroke-linejoin:miter;stroke:rgb(0%,0%,0%);stroke-opacity:1;stroke-miterlimit:10;" d="M 0.00188375 7.085869 L 0.00188375 -7.086006 " transform="matrix(0,-1,-1,0,327.0429,21.69329)"/>
<g style="fill:rgb(0%,0%,0%);fill-opacity:1;">
  <use xlink:href="#glyph0-17" x="318.119" y="13.853"/>
  <use xlink:href="#glyph0-18" x="324.245999" y="13.853"/>
  <use xlink:href="#glyph0-18" x="330.104008" y="13.853"/>
</g>
<path style="fill:none;stroke-width:0.3985;stroke-linecap:butt;stroke-linejoin:miter;stroke:rgb(0%,0%,0%);stroke-opacity:1;stroke-miterlimit:10;" d="M 141.732937 163.559594 L 141.732937 175.168969 " transform="matrix(1,0,0,-1,15.228,282.001)"/>
<path style="fill:none;stroke-width:0.3985;stroke-linecap:butt;stroke-linejoin:miter;stroke:rgb(0%,0%,0%);stroke-opacity:1;stroke-miterlimit:10;" d="M -0.000645 7.08704 L -0.000645 -7.084835 " transform="matrix(0,-1,-1,0,156.96204,106.73373)"/>
<g style="fill:rgb(0%,0%,0%);fill-opacity:1;">
  <use xlink:href="#glyph0-17" x="148.038" y="98.893"/>
  <use xlink:href="#glyph0-18" x="154.164999" y="98.893"/>
  <use xlink:href="#glyph0-18" x="160.023008" y="98.893"/>
</g>
<path style="fill:none;stroke-width:0.3985;stroke-linecap:butt;stroke-linejoin:miter;stroke:rgb(0%,0%,0%);stroke-opacity:1;stroke-miterlimit:10;" d="M 56.693875 163.559594 L 56.693875 175.168969 " transform="matrix(1,0,0,-1,15.228,282.001)"/>
<path style="fill:none;stroke-width:0.3985;stroke-linecap:butt;stroke-linejoin:miter;stroke:rgb(0%,0%,0%);stroke-opacity:1;stroke-miterlimit:10;" d="M -0.000645 7.085682 L -0.000645 -7.086193 " transform="matrix(0,-1,-1,0,71.92162,106.73373)"/>
<g style="fill:rgb(0%,0%,0%);fill-opacity:1;">
  <use xlink:href="#glyph0-17" x="62.997" y="98.893"/>
  <use xlink:href="#glyph0-18" x="69.123999" y="98.893"/>
  <use xlink:href="#glyph0-18" x="74.982008" y="98.893"/>
</g>
<path style="fill:none;stroke-width:0.3985;stroke-linecap:butt;stroke-linejoin:miter;stroke:rgb(0%,0%,0%);stroke-opacity:1;stroke-miterlimit:10;" d="M 141.732937 6.520531 L 141.732937 -3.6865 " transform="matrix(1,0,0,-1,15.228,282.001)"/>
<path style="fill:none;stroke-width:0.797;stroke-linecap:butt;stroke-linejoin:miter;stroke:rgb(0%,0%,0%);stroke-opacity:1;stroke-miterlimit:10;" d="M 136.631375 -3.6865 L 146.8345 -3.6865 M 138.3345 -5.385719 L 145.135281 -5.385719 M 139.607937 -7.084938 L 143.861844 -7.084938 " transform="matrix(1,0,0,-1,15.228,282.001)"/>
<path style="fill:none;stroke-width:0.3985;stroke-linecap:butt;stroke-linejoin:miter;stroke:rgb(0%,0%,0%);stroke-opacity:1;stroke-miterlimit:10;" d="M 311.814969 6.520531 L 311.814969 -3.6865 " transform="matrix(1,0,0,-1,15.228,282.001)"/>
<path style="fill:none;stroke-width:0.797;stroke-linecap:butt;stroke-linejoin:miter;stroke:rgb(0%,0%,0%);stroke-opacity:1;stroke-miterlimit:10;" d="M 306.713406 -3.6865 L 316.916531 -3.6865 M 308.412625 -5.385719 L 315.217312 -5.385719 M 309.689969 -7.084938 L 313.939969 -7.084938 " transform="matrix(1,0,0,-1,15.228,282.001)"/>
<path style="fill:none;stroke-width:0.3985;stroke-linecap:butt;stroke-linejoin:miter;stroke:rgb(0%,0%,0%);stroke-opacity:1;stroke-miterlimit:10;" d="M 226.775906 6.520531 L 226.775906 -3.6865 " transform="matrix(1,0,0,-1,15.228,282.001)"/>
<path style="fill:none;stroke-width:0.797;stroke-linecap:butt;stroke-linejoin:miter;stroke:rgb(0%,0%,0%);stroke-opacity:1;stroke-miterlimit:10;" d="M 221.670437 -3.6865 L 231.877469 -3.6865 M 223.373562 -5.385719 L 230.174344 -5.385719 M 224.647 -7.084938 L 228.900906 -7.084938 " transform="matrix(1,0,0,-1,15.228,282.001)"/>
</g>
</svg>
