<?xml version="1.0" encoding="UTF-8"?>
<svg xmlns="http://www.w3.org/2000/svg" xmlns:xlink="http://www.w3.org/1999/xlink" width="413.33pt" height="263.97pt" viewBox="0 0 413.33 263.97" version="1.1">
<defs>
<g>
<symbol overflow="visible" id="glyph0-0">
<path style="stroke:none;" d="M 0.390625 0 L 0.390625 -7.96875 L 3.5625 -7.96875 L 3.5625 0 Z M 0.796875 -0.390625 L 3.171875 -0.390625 L 3.171875 -7.5625 L 0.796875 -7.5625 Z M 0.796875 -0.390625 "/>
</symbol>
<symbol overflow="visible" id="glyph0-1">
<path style="stroke:none;" d="M 2.640625 -3.671875 C 2.640625 -3.671875 1.953125 -4.707031 0.578125 -6.78125 C 0.523438 -6.851562 0.5 -6.929688 0.5 -7.015625 C 0.5 -7.222656 0.617188 -7.328125 0.859375 -7.328125 C 0.984375 -7.328125 1.09375 -7.257812 1.1875 -7.125 L 3.078125 -4.328125 L 4.984375 -7.171875 C 5.066406 -7.285156 5.175781 -7.34375 5.3125 -7.34375 C 5.539062 -7.34375 5.65625 -7.238281 5.65625 -7.03125 C 5.65625 -6.9375 5.613281 -6.828125 5.53125 -6.703125 L 3.5 -3.671875 L 5.5625 -0.5625 C 5.613281 -0.488281 5.640625 -0.421875 5.640625 -0.359375 C 5.640625 -0.117188 5.519531 0 5.28125 0 C 5.144531 0 5.035156 -0.0664062 4.953125 -0.203125 L 3.078125 -3.046875 L 1.171875 -0.1875 C 1.085938 -0.0625 0.988281 0 0.875 0 C 0.613281 0 0.484375 -0.113281 0.484375 -0.34375 C 0.484375 -0.414062 0.519531 -0.507812 0.59375 -0.625 Z M 2.640625 -3.671875 "/>
</symbol>
<symbol overflow="visible" id="glyph0-2">
<path style="stroke:none;" d="M 2.328125 -6.65625 C 2.097656 -6.65625 1.9375 -6.554688 1.84375 -6.359375 C 1.59375 -5.859375 1.410156 -5.285156 1.296875 -4.640625 C 1.234375 -4.335938 1.203125 -4.03125 1.203125 -3.71875 C 1.203125 -3.488281 1.21875 -3.265625 1.25 -3.046875 C 1.34375 -2.304688 1.503906 -1.679688 1.734375 -1.171875 C 1.867188 -0.859375 2.0625 -0.703125 2.3125 -0.703125 C 2.5625 -0.703125 2.757812 -0.84375 2.90625 -1.125 C 3.113281 -1.539062 3.273438 -2.109375 3.390625 -2.828125 C 3.429688 -3.140625 3.453125 -3.4375 3.453125 -3.71875 C 3.453125 -4.007812 3.429688 -4.289062 3.390625 -4.5625 C 3.265625 -5.25 3.070312 -5.847656 2.8125 -6.359375 C 2.707031 -6.554688 2.546875 -6.65625 2.328125 -6.65625 Z M 2.34375 -7.34375 C 2.789062 -7.34375 3.128906 -7.171875 3.359375 -6.828125 C 3.722656 -6.304688 3.972656 -5.5625 4.109375 -4.59375 C 4.148438 -4.3125 4.171875 -4.019531 4.171875 -3.71875 C 4.171875 -3.40625 4.148438 -3.097656 4.109375 -2.796875 C 3.972656 -1.835938 3.734375 -1.09375 3.390625 -0.5625 C 3.148438 -0.1875 2.796875 0 2.328125 0 C 1.867188 0 1.519531 -0.191406 1.28125 -0.578125 C 0.976562 -1.046875 0.738281 -1.773438 0.5625 -2.765625 C 0.507812 -3.054688 0.484375 -3.351562 0.484375 -3.65625 C 0.484375 -3.96875 0.507812 -4.285156 0.5625 -4.609375 C 0.738281 -5.597656 0.960938 -6.3125 1.234375 -6.75 C 1.484375 -7.144531 1.851562 -7.34375 2.34375 -7.34375 Z M 2.34375 -7.34375 "/>
</symbol>
<symbol overflow="visible" id="glyph0-3">
<path style="stroke:none;" d="M 1.71875 -7.1875 C 1.832031 -7.289062 1.945312 -7.34375 2.0625 -7.34375 C 2.3125 -7.34375 2.4375 -7.210938 2.4375 -6.953125 L 2.4375 -0.4375 C 2.4375 -0.164062 2.316406 -0.03125 2.078125 -0.03125 C 1.835938 -0.03125 1.71875 -0.164062 1.71875 -0.4375 C 1.71875 -0.4375 1.71875 -2.351562 1.71875 -6.1875 L 0.875 -5.328125 C 0.789062 -5.242188 0.703125 -5.203125 0.609375 -5.203125 C 0.367188 -5.203125 0.25 -5.3125 0.25 -5.53125 C 0.25 -5.632812 0.296875 -5.738281 0.390625 -5.84375 Z M 1.71875 -7.1875 "/>
</symbol>
<symbol overflow="visible" id="glyph0-4">
<path style="stroke:none;" d="M 0.859375 -5.546875 C 0.609375 -5.546875 0.484375 -5.660156 0.484375 -5.890625 C 0.484375 -5.953125 0.515625 -6.046875 0.578125 -6.171875 C 0.773438 -6.566406 1.007812 -6.851562 1.28125 -7.03125 C 1.613281 -7.238281 1.960938 -7.34375 2.328125 -7.34375 C 2.941406 -7.34375 3.425781 -7.109375 3.78125 -6.640625 C 4.03125 -6.296875 4.15625 -5.925781 4.15625 -5.53125 C 4.15625 -5.1875 4.050781 -4.84375 3.84375 -4.5 L 1.484375 -0.6875 L 3.78125 -0.6875 C 4.03125 -0.6875 4.15625 -0.5625 4.15625 -0.3125 C 4.15625 -0.101562 4.019531 0 3.75 0 L 0.921875 0 C 0.628906 0 0.484375 -0.101562 0.484375 -0.3125 C 0.484375 -0.40625 0.507812 -0.484375 0.5625 -0.546875 L 3.171875 -4.765625 C 3.347656 -5.054688 3.4375 -5.3125 3.4375 -5.53125 C 3.4375 -5.8125 3.347656 -6.054688 3.171875 -6.265625 C 2.953125 -6.515625 2.660156 -6.640625 2.296875 -6.640625 C 1.847656 -6.640625 1.484375 -6.375 1.203125 -5.84375 C 1.097656 -5.644531 0.984375 -5.546875 0.859375 -5.546875 Z M 0.859375 -5.546875 "/>
</symbol>
<symbol overflow="visible" id="glyph0-5">
<path style="stroke:none;" d="M 1.375 -4.390625 C 1.375 -4.390625 1.734375 -4.390625 2.453125 -4.390625 C 3.003906 -4.390625 3.460938 -4.1875 3.828125 -3.78125 C 4.140625 -3.425781 4.296875 -3.050781 4.296875 -2.65625 C 4.296875 -2.65625 4.296875 -2.328125 4.296875 -1.671875 C 4.296875 -1.253906 4.09375 -0.847656 3.6875 -0.453125 C 3.375 -0.148438 2.9375 0 2.375 0 C 1.914062 0 1.507812 -0.171875 1.15625 -0.515625 C 0.800781 -0.847656 0.625 -1.234375 0.625 -1.671875 L 0.625 -4.203125 C 0.625 -4.941406 0.910156 -5.644531 1.484375 -6.3125 C 1.828125 -6.71875 2.285156 -7.035156 2.859375 -7.265625 C 2.992188 -7.316406 3.109375 -7.34375 3.203125 -7.34375 C 3.429688 -7.34375 3.546875 -7.21875 3.546875 -6.96875 C 3.546875 -6.820312 3.441406 -6.710938 3.234375 -6.640625 C 2.785156 -6.484375 2.425781 -6.269531 2.15625 -6 C 1.707031 -5.5625 1.445312 -5.023438 1.375 -4.390625 Z M 1.328125 -1.75 C 1.328125 -1.46875 1.460938 -1.203125 1.734375 -0.953125 C 1.929688 -0.773438 2.175781 -0.6875 2.46875 -0.6875 C 2.695312 -0.6875 2.960938 -0.800781 3.265625 -1.03125 C 3.484375 -1.195312 3.59375 -1.441406 3.59375 -1.765625 L 3.59375 -2.5 C 3.59375 -2.820312 3.484375 -3.101562 3.265625 -3.34375 C 3.046875 -3.570312 2.78125 -3.6875 2.46875 -3.6875 L 1.328125 -3.6875 Z M 1.328125 -1.75 "/>
</symbol>
<symbol overflow="visible" id="glyph0-6">
<path style="stroke:none;" d="M 0.953125 -7.375 C 0.953125 -7.375 1.460938 -7.375 2.484375 -7.375 C 2.921875 -7.375 3.316406 -7.1875 3.671875 -6.8125 C 3.992188 -6.457031 4.15625 -6.046875 4.15625 -5.578125 C 4.15625 -4.984375 3.898438 -4.476562 3.390625 -4.0625 C 3.890625 -3.707031 4.140625 -3.265625 4.140625 -2.734375 C 4.140625 -2.734375 4.140625 -2.378906 4.140625 -1.671875 C 4.140625 -1.253906 3.957031 -0.863281 3.59375 -0.5 C 3.28125 -0.1875 2.863281 -0.03125 2.34375 -0.03125 C 2.34375 -0.03125 1.863281 -0.03125 0.90625 -0.03125 C 0.625 -0.03125 0.484375 -0.148438 0.484375 -0.390625 C 0.484375 -0.597656 0.628906 -0.703125 0.921875 -0.703125 C 0.921875 -0.703125 1.347656 -0.703125 2.203125 -0.703125 C 2.597656 -0.703125 2.910156 -0.820312 3.140625 -1.0625 C 3.347656 -1.28125 3.453125 -1.5625 3.453125 -1.90625 L 3.453125 -2.546875 C 3.453125 -2.878906 3.351562 -3.144531 3.15625 -3.34375 C 2.925781 -3.59375 2.675781 -3.71875 2.40625 -3.71875 L 1.671875 -3.71875 C 1.398438 -3.71875 1.265625 -3.84375 1.265625 -4.09375 C 1.265625 -4.300781 1.398438 -4.40625 1.671875 -4.40625 L 2.328125 -4.40625 C 2.628906 -4.40625 2.890625 -4.515625 3.109375 -4.734375 C 3.335938 -4.972656 3.453125 -5.242188 3.453125 -5.546875 C 3.453125 -5.847656 3.359375 -6.09375 3.171875 -6.28125 C 2.921875 -6.53125 2.664062 -6.65625 2.40625 -6.65625 L 0.953125 -6.65625 C 0.648438 -6.65625 0.5 -6.78125 0.5 -7.03125 C 0.5 -7.257812 0.648438 -7.375 0.953125 -7.375 Z M 0.953125 -7.375 "/>
</symbol>
<symbol overflow="visible" id="glyph0-7">
<path style="stroke:none;" d="M 1.953125 -7.109375 C 2.003906 -7.285156 2.125 -7.375 2.3125 -7.375 C 2.539062 -7.375 2.65625 -7.257812 2.65625 -7.03125 C 2.65625 -6.976562 2.644531 -6.914062 2.625 -6.84375 L 1.296875 -2.203125 L 3.0625 -2.203125 L 3.0625 -3.265625 C 3.0625 -3.546875 3.179688 -3.6875 3.421875 -3.6875 C 3.648438 -3.6875 3.765625 -3.535156 3.765625 -3.234375 L 3.765625 -2.203125 C 3.765625 -2.203125 4.015625 -2.203125 4.515625 -2.203125 C 4.753906 -2.203125 4.875 -2.078125 4.875 -1.828125 C 4.875 -1.617188 4.75 -1.515625 4.5 -1.515625 L 3.765625 -1.515625 L 3.765625 -0.40625 C 3.765625 -0.144531 3.644531 -0.015625 3.40625 -0.015625 C 3.175781 -0.015625 3.0625 -0.140625 3.0625 -0.390625 L 3.0625 -1.5 L 0.828125 -1.5 C 0.597656 -1.5 0.484375 -1.609375 0.484375 -1.828125 C 0.484375 -1.890625 0.507812 -2.003906 0.5625 -2.171875 C 0.5625 -2.171875 1.023438 -3.816406 1.953125 -7.109375 Z M 1.953125 -7.109375 "/>
</symbol>
<symbol overflow="visible" id="glyph0-8">
<path style="stroke:none;" d="M 0.625 -6.984375 C 0.625 -7.222656 0.769531 -7.34375 1.0625 -7.34375 C 1.0625 -7.34375 2.015625 -7.34375 3.921875 -7.34375 C 4.191406 -7.34375 4.328125 -7.226562 4.328125 -7 C 4.328125 -6.769531 4.195312 -6.65625 3.9375 -6.65625 L 1.34375 -6.65625 L 1.34375 -4.390625 L 2.421875 -4.390625 C 3.054688 -4.390625 3.5625 -4.15625 3.9375 -3.6875 C 4.1875 -3.382812 4.3125 -3.015625 4.3125 -2.578125 L 4.3125 -1.796875 C 4.3125 -1.273438 4.132812 -0.847656 3.78125 -0.515625 C 3.414062 -0.171875 3.003906 0 2.546875 0 L 1.03125 0 C 0.78125 0 0.65625 -0.113281 0.65625 -0.34375 C 0.65625 -0.570312 0.789062 -0.6875 1.0625 -0.6875 L 2.421875 -0.6875 C 2.828125 -0.6875 3.140625 -0.828125 3.359375 -1.109375 C 3.523438 -1.316406 3.609375 -1.5625 3.609375 -1.84375 L 3.609375 -2.578125 C 3.609375 -2.867188 3.507812 -3.117188 3.3125 -3.328125 C 3.101562 -3.566406 2.773438 -3.6875 2.328125 -3.6875 L 0.984375 -3.6875 C 0.742188 -3.6875 0.625 -3.828125 0.625 -4.109375 Z M 0.625 -6.984375 "/>
</symbol>
<symbol overflow="visible" id="glyph0-9">
<path style="stroke:none;" d="M 3.71875 -7.34375 C 3.988281 -7.34375 4.125 -7.234375 4.125 -7.015625 C 4.125 -6.941406 4.09375 -6.75 4.03125 -6.4375 C 4.03125 -6.4375 3.582031 -4.40625 2.6875 -0.34375 C 2.632812 -0.113281 2.519531 0 2.34375 0 C 2.09375 0 1.96875 -0.109375 1.96875 -0.328125 C 1.96875 -0.367188 1.972656 -0.410156 1.984375 -0.453125 L 3.359375 -6.640625 L 1.171875 -6.640625 C 1.171875 -6.640625 1.171875 -6.515625 1.171875 -6.265625 C 1.171875 -6.035156 1.054688 -5.921875 0.828125 -5.921875 C 0.597656 -5.921875 0.484375 -6.039062 0.484375 -6.28125 C 0.484375 -6.28125 0.484375 -6.53125 0.484375 -7.03125 C 0.484375 -7.238281 0.613281 -7.34375 0.875 -7.34375 C 0.875 -7.34375 1.820312 -7.34375 3.71875 -7.34375 Z M 3.71875 -7.34375 "/>
</symbol>
<symbol overflow="visible" id="glyph0-10">
<path style="stroke:none;" d="M 2.75 -7.078125 C 2.800781 -7.253906 2.914062 -7.34375 3.09375 -7.34375 C 3.25 -7.34375 3.359375 -7.253906 3.421875 -7.078125 L 5.59375 -0.546875 C 5.625 -0.453125 5.640625 -0.378906 5.640625 -0.328125 C 5.640625 -0.128906 5.519531 -0.0195312 5.28125 0 C 5.113281 0 4.992188 -0.109375 4.921875 -0.328125 C 4.921875 -0.328125 4.753906 -0.835938 4.421875 -1.859375 L 1.734375 -1.859375 L 1.203125 -0.28125 C 1.128906 -0.0820312 1.015625 0.015625 0.859375 0.015625 C 0.609375 0.015625 0.484375 -0.101562 0.484375 -0.34375 C 0.484375 -0.375 0.519531 -0.492188 0.59375 -0.703125 Z M 3.0625 -5.875 L 1.953125 -2.546875 L 4.1875 -2.546875 Z M 3.0625 -5.875 "/>
</symbol>
<symbol overflow="visible" id="glyph0-11">
<path style="stroke:none;" d="M 0.84375 0 C 0.84375 0 1.828125 0 3.796875 0 C 4.023438 0 4.140625 0.125 4.140625 0.375 C 4.140625 0.59375 4.019531 0.703125 3.78125 0.703125 L 0.84375 0.703125 C 0.601562 0.703125 0.484375 0.578125 0.484375 0.328125 C 0.484375 0.109375 0.601562 0 0.84375 0 Z M 0.84375 0 "/>
</symbol>
<symbol overflow="visible" id="glyph0-12">
<path style="stroke:none;" d="M 4.453125 -1.734375 L 4.453125 -7 C 4.453125 -7.25 4.5625 -7.375 4.78125 -7.375 C 5.007812 -7.375 5.125 -7.253906 5.125 -7.015625 L 5.125 -0.4375 C 5.125 -0.164062 5.015625 -0.03125 4.796875 -0.03125 C 4.648438 -0.03125 4.523438 -0.117188 4.421875 -0.296875 L 1.4375 -5.640625 L 1.4375 -0.4375 C 1.4375 -0.175781 1.3125 -0.046875 1.0625 -0.046875 C 0.84375 -0.046875 0.734375 -0.175781 0.734375 -0.4375 L 0.734375 -6.9375 C 0.734375 -7.226562 0.847656 -7.375 1.078125 -7.375 C 1.234375 -7.375 1.351562 -7.300781 1.4375 -7.15625 Z M 4.453125 -1.734375 "/>
</symbol>
<symbol overflow="visible" id="glyph0-13">
<path style="stroke:none;" d="M 5.171875 -2.234375 C 5.171875 -1.523438 4.941406 -0.972656 4.484375 -0.578125 C 4.035156 -0.191406 3.609375 0 3.203125 0 L 1.078125 0 C 0.847656 0 0.734375 -0.144531 0.734375 -0.4375 L 0.734375 -6.890625 C 0.734375 -7.191406 0.882812 -7.34375 1.1875 -7.34375 L 2.703125 -7.34375 C 3.316406 -7.34375 3.765625 -7.222656 4.046875 -6.984375 C 4.546875 -6.546875 4.796875 -6.054688 4.796875 -5.515625 C 4.796875 -4.910156 4.566406 -4.429688 4.109375 -4.078125 C 4.410156 -3.898438 4.660156 -3.644531 4.859375 -3.3125 C 5.066406 -2.988281 5.171875 -2.628906 5.171875 -2.234375 Z M 1.484375 -3.640625 L 1.484375 -0.671875 L 3 -0.671875 C 3.4375 -0.671875 3.785156 -0.820312 4.046875 -1.125 C 4.316406 -1.4375 4.453125 -1.773438 4.453125 -2.140625 C 4.453125 -2.515625 4.328125 -2.859375 4.078125 -3.171875 C 3.835938 -3.484375 3.484375 -3.640625 3.015625 -3.640625 Z M 1.484375 -6.625 L 1.484375 -4.40625 L 2.96875 -4.40625 C 3.34375 -4.40625 3.617188 -4.503906 3.796875 -4.703125 C 3.984375 -4.910156 4.078125 -5.164062 4.078125 -5.46875 C 4.078125 -5.769531 3.976562 -6.035156 3.78125 -6.265625 C 3.582031 -6.503906 3.300781 -6.625 2.9375 -6.625 Z M 1.484375 -6.625 "/>
</symbol>
<symbol overflow="visible" id="glyph0-14">
<path style="stroke:none;" d="M 2.53125 -7.375 C 2.53125 -7.375 3.023438 -7.375 4.015625 -7.375 C 4.253906 -7.375 4.375 -7.253906 4.375 -7.015625 C 4.375 -6.765625 4.242188 -6.640625 3.984375 -6.640625 L 2.53125 -6.640625 C 2.257812 -6.640625 1.992188 -6.519531 1.734375 -6.28125 C 1.535156 -6.101562 1.4375 -5.859375 1.4375 -5.546875 L 1.4375 -1.828125 C 1.4375 -1.523438 1.539062 -1.265625 1.75 -1.046875 C 1.957031 -0.816406 2.179688 -0.703125 2.421875 -0.703125 L 4.046875 -0.703125 C 4.285156 -0.703125 4.40625 -0.582031 4.40625 -0.34375 C 4.40625 -0.125 4.285156 -0.015625 4.046875 -0.015625 L 2.390625 -0.015625 C 1.941406 -0.015625 1.519531 -0.226562 1.125 -0.65625 C 0.863281 -0.957031 0.734375 -1.335938 0.734375 -1.796875 L 0.734375 -5.609375 C 0.734375 -6.097656 0.921875 -6.519531 1.296875 -6.875 C 1.648438 -7.207031 2.0625 -7.375 2.53125 -7.375 Z M 2.53125 -7.375 "/>
</symbol>
<symbol overflow="visible" id="glyph0-15">
<path style="stroke:none;" d="M 3.421875 -0.40625 C 3.421875 -0.132812 3.304688 0 3.078125 0 C 2.835938 0 2.71875 -0.140625 2.71875 -0.421875 L 2.71875 -3.703125 L 0.5625 -6.78125 C 0.507812 -6.851562 0.484375 -6.925781 0.484375 -7 C 0.484375 -7.238281 0.613281 -7.359375 0.875 -7.359375 C 0.988281 -7.359375 1.09375 -7.285156 1.1875 -7.140625 L 3.0625 -4.40625 L 4.953125 -7.171875 C 5.046875 -7.296875 5.148438 -7.359375 5.265625 -7.359375 C 5.515625 -7.359375 5.640625 -7.242188 5.640625 -7.015625 C 5.640625 -6.929688 5.609375 -6.84375 5.546875 -6.75 L 3.421875 -3.6875 Z M 3.421875 -0.40625 "/>
</symbol>
<symbol overflow="visible" id="glyph0-16">
<path style="stroke:none;" d="M 3.0625 -1.453125 L 4.9375 -7.03125 C 5 -7.238281 5.113281 -7.34375 5.28125 -7.34375 C 5.519531 -7.34375 5.640625 -7.234375 5.640625 -7.015625 C 5.640625 -6.953125 5.625 -6.875 5.59375 -6.78125 L 3.453125 -0.328125 C 3.378906 -0.109375 3.25 0 3.0625 0 C 2.90625 0 2.789062 -0.109375 2.71875 -0.328125 L 0.515625 -6.859375 C 0.492188 -6.910156 0.484375 -6.960938 0.484375 -7.015625 C 0.484375 -7.222656 0.613281 -7.328125 0.875 -7.328125 C 1.019531 -7.328125 1.128906 -7.210938 1.203125 -6.984375 Z M 3.0625 -1.453125 "/>
</symbol>
<symbol overflow="visible" id="glyph0-17">
<path style="stroke:none;" d="M 1.453125 -0.703125 C 1.453125 -0.703125 2.015625 -0.703125 3.140625 -0.703125 C 3.566406 -0.703125 3.890625 -0.8125 4.109375 -1.03125 C 4.328125 -1.257812 4.4375 -1.539062 4.4375 -1.875 L 4.4375 -5.53125 C 4.4375 -5.8125 4.328125 -6.066406 4.109375 -6.296875 C 3.898438 -6.535156 3.625 -6.65625 3.28125 -6.65625 L 1.453125 -6.65625 C 1.453125 -6.65625 1.453125 -4.671875 1.453125 -0.703125 Z M 0.734375 -6.953125 C 0.734375 -7.210938 0.867188 -7.34375 1.140625 -7.34375 L 3.421875 -7.34375 C 3.867188 -7.34375 4.265625 -7.164062 4.609375 -6.8125 C 4.960938 -6.46875 5.140625 -6.070312 5.140625 -5.625 L 5.140625 -1.703125 C 5.140625 -1.253906 4.960938 -0.859375 4.609375 -0.515625 C 4.253906 -0.171875 3.878906 0 3.484375 0 L 1.0625 0 C 0.84375 0 0.734375 -0.144531 0.734375 -0.4375 Z M 0.734375 -6.953125 "/>
</symbol>
<symbol overflow="visible" id="glyph1-0">
<path style="stroke:none;" d="M 0.1875 0 L 0.1875 -3.984375 L 1.78125 -3.984375 L 1.78125 0 Z M 0.390625 -0.1875 L 1.59375 -0.1875 L 1.59375 -3.78125 L 0.390625 -3.78125 Z M 0.390625 -0.1875 "/>
</symbol>
<symbol overflow="visible" id="glyph1-1">
<path style="stroke:none;" d="M 2.46875 -2.40625 C 2.5 -2.519531 2.554688 -2.578125 2.640625 -2.578125 C 2.753906 -2.578125 2.8125 -2.523438 2.8125 -2.421875 C 2.8125 -2.390625 2.804688 -2.359375 2.796875 -2.328125 C 2.796875 -2.328125 2.617188 -1.609375 2.265625 -0.171875 C 2.242188 -0.0546875 2.1875 0 2.09375 0 C 2 0 1.929688 -0.0507812 1.890625 -0.15625 C 1.890625 -0.15625 1.769531 -0.488281 1.53125 -1.15625 L 1.15625 -0.15625 C 1.113281 -0.0507812 1.054688 0 0.984375 0 C 0.878906 0 0.816406 -0.0507812 0.796875 -0.15625 C 0.796875 -0.15625 0.617188 -0.851562 0.265625 -2.25 C 0.253906 -2.3125 0.25 -2.359375 0.25 -2.390625 C 0.25 -2.503906 0.3125 -2.5625 0.4375 -2.5625 C 0.519531 -2.5625 0.570312 -2.515625 0.59375 -2.421875 C 0.59375 -2.421875 0.726562 -1.875 1 -0.78125 C 1 -0.78125 1.117188 -1.085938 1.359375 -1.703125 C 1.390625 -1.785156 1.445312 -1.828125 1.53125 -1.828125 C 1.613281 -1.828125 1.675781 -1.78125 1.71875 -1.6875 C 1.71875 -1.6875 1.828125 -1.390625 2.046875 -0.796875 Z M 2.46875 -2.40625 "/>
</symbol>
<symbol overflow="visible" id="glyph1-2">
<path style="stroke:none;" d="M 1.875 -1.078125 C 2 -1.078125 2.0625 -1.019531 2.0625 -0.90625 C 2.0625 -0.78125 2.003906 -0.71875 1.890625 -0.71875 C 1.890625 -0.71875 1.398438 -0.71875 0.421875 -0.71875 C 0.304688 -0.71875 0.25 -0.773438 0.25 -0.890625 C 0.25 -1.015625 0.304688 -1.078125 0.421875 -1.078125 Z M 1.890625 -2.1875 C 2.003906 -2.1875 2.0625 -2.128906 2.0625 -2.015625 C 2.0625 -1.890625 2.003906 -1.828125 1.890625 -1.828125 L 0.421875 -1.828125 C 0.304688 -1.828125 0.25 -1.882812 0.25 -2 C 0.25 -2.125 0.304688 -2.1875 0.421875 -2.1875 Z M 1.890625 -2.1875 "/>
</symbol>
<symbol overflow="visible" id="glyph1-3">
<path style="stroke:none;" d="M 1.28125 -1.84375 C 1.132812 -1.84375 1.003906 -1.789062 0.890625 -1.6875 C 0.773438 -1.582031 0.71875 -1.453125 0.71875 -1.296875 L 0.71875 -0.859375 C 0.71875 -0.742188 0.785156 -0.617188 0.921875 -0.484375 C 1.003906 -0.398438 1.125 -0.359375 1.28125 -0.359375 C 1.414062 -0.359375 1.546875 -0.410156 1.671875 -0.515625 C 1.785156 -0.609375 1.84375 -0.742188 1.84375 -0.921875 L 1.84375 -1.28125 C 1.84375 -1.414062 1.785156 -1.550781 1.671875 -1.6875 C 1.578125 -1.789062 1.445312 -1.84375 1.28125 -1.84375 Z M 0.890625 -3.1875 C 0.773438 -3.0625 0.71875 -2.929688 0.71875 -2.796875 C 0.71875 -2.660156 0.757812 -2.535156 0.84375 -2.421875 C 0.9375 -2.273438 1.078125 -2.203125 1.265625 -2.203125 C 1.453125 -2.203125 1.597656 -2.257812 1.703125 -2.375 C 1.804688 -2.5 1.859375 -2.628906 1.859375 -2.765625 C 1.859375 -2.921875 1.789062 -3.054688 1.65625 -3.171875 C 1.539062 -3.273438 1.410156 -3.328125 1.265625 -3.328125 C 1.109375 -3.328125 0.984375 -3.28125 0.890625 -3.1875 Z M 0.734375 -2.03125 C 0.484375 -2.21875 0.359375 -2.484375 0.359375 -2.828125 C 0.359375 -3.097656 0.46875 -3.3125 0.6875 -3.46875 C 0.875 -3.613281 1.078125 -3.6875 1.296875 -3.6875 C 1.460938 -3.6875 1.613281 -3.648438 1.75 -3.578125 C 2.050781 -3.378906 2.203125 -3.109375 2.203125 -2.765625 C 2.203125 -2.453125 2.078125 -2.207031 1.828125 -2.03125 C 2.078125 -1.832031 2.203125 -1.585938 2.203125 -1.296875 L 2.203125 -0.875 C 2.203125 -0.644531 2.097656 -0.429688 1.890625 -0.234375 C 1.734375 -0.0859375 1.535156 -0.015625 1.296875 -0.015625 C 1.023438 -0.015625 0.820312 -0.0820312 0.6875 -0.21875 C 0.46875 -0.425781 0.359375 -0.640625 0.359375 -0.859375 L 0.359375 -1.3125 C 0.359375 -1.582031 0.484375 -1.820312 0.734375 -2.03125 Z M 0.734375 -2.03125 "/>
</symbol>
<symbol overflow="visible" id="glyph1-4">
<path style="stroke:none;" d="M 0.984375 -3.546875 C 1.003906 -3.640625 1.0625 -3.6875 1.15625 -3.6875 C 1.269531 -3.6875 1.328125 -3.628906 1.328125 -3.515625 C 1.328125 -3.492188 1.320312 -3.460938 1.3125 -3.421875 L 0.640625 -1.109375 L 1.53125 -1.109375 L 1.53125 -1.640625 C 1.53125 -1.773438 1.59375 -1.84375 1.71875 -1.84375 C 1.832031 -1.84375 1.890625 -1.769531 1.890625 -1.625 L 1.890625 -1.109375 C 1.890625 -1.109375 2.015625 -1.109375 2.265625 -1.109375 C 2.378906 -1.109375 2.4375 -1.039062 2.4375 -0.90625 C 2.4375 -0.800781 2.375 -0.75 2.25 -0.75 L 1.890625 -0.75 L 1.890625 -0.203125 C 1.890625 -0.0664062 1.828125 0 1.703125 0 C 1.585938 0 1.53125 -0.0664062 1.53125 -0.203125 L 1.53125 -0.75 L 0.421875 -0.75 C 0.304688 -0.75 0.25 -0.800781 0.25 -0.90625 C 0.25 -0.945312 0.257812 -1.003906 0.28125 -1.078125 C 0.28125 -1.078125 0.515625 -1.898438 0.984375 -3.546875 Z M 0.984375 -3.546875 "/>
</symbol>
<symbol overflow="visible" id="glyph1-5">
<path style="stroke:none;" d="M 1.15625 -3.328125 C 1.050781 -3.328125 0.972656 -3.273438 0.921875 -3.171875 C 0.796875 -2.921875 0.703125 -2.632812 0.640625 -2.3125 C 0.617188 -2.164062 0.609375 -2.015625 0.609375 -1.859375 C 0.609375 -1.742188 0.613281 -1.628906 0.625 -1.515625 C 0.675781 -1.148438 0.753906 -0.84375 0.859375 -0.59375 C 0.929688 -0.4375 1.03125 -0.359375 1.15625 -0.359375 C 1.28125 -0.359375 1.378906 -0.425781 1.453125 -0.5625 C 1.554688 -0.769531 1.632812 -1.050781 1.6875 -1.40625 C 1.707031 -1.5625 1.71875 -1.710938 1.71875 -1.859375 C 1.71875 -2.003906 1.707031 -2.144531 1.6875 -2.28125 C 1.632812 -2.625 1.539062 -2.925781 1.40625 -3.1875 C 1.351562 -3.28125 1.269531 -3.328125 1.15625 -3.328125 Z M 1.171875 -3.671875 C 1.390625 -3.671875 1.5625 -3.585938 1.6875 -3.421875 C 1.863281 -3.148438 1.988281 -2.773438 2.0625 -2.296875 C 2.082031 -2.148438 2.09375 -2.003906 2.09375 -1.859375 C 2.09375 -1.703125 2.078125 -1.546875 2.046875 -1.390625 C 1.984375 -0.921875 1.863281 -0.550781 1.6875 -0.28125 C 1.570312 -0.09375 1.398438 0 1.171875 0 C 0.941406 0 0.765625 -0.09375 0.640625 -0.28125 C 0.492188 -0.519531 0.375 -0.890625 0.28125 -1.390625 C 0.257812 -1.523438 0.25 -1.671875 0.25 -1.828125 C 0.25 -1.984375 0.257812 -2.140625 0.28125 -2.296875 C 0.363281 -2.796875 0.476562 -3.15625 0.625 -3.375 C 0.75 -3.570312 0.929688 -3.671875 1.171875 -3.671875 Z M 1.171875 -3.671875 "/>
</symbol>
<symbol overflow="visible" id="glyph1-6">
<path style="stroke:none;" d="M 0.5 0 C 0.375 0 0.3125 -0.0820312 0.3125 -0.25 C 0.3125 -0.425781 0.367188 -0.515625 0.484375 -0.515625 C 0.617188 -0.515625 0.6875 -0.425781 0.6875 -0.25 C 0.6875 -0.0820312 0.625 0 0.5 0 Z M 0.5 0 "/>
</symbol>
<symbol overflow="visible" id="glyph1-7">
<path style="stroke:none;" d="M 0.3125 -2.40625 C 0.3125 -2.53125 0.375 -2.59375 0.5 -2.59375 C 0.5 -2.59375 0.8125 -2.59375 1.4375 -2.59375 C 1.625 -2.59375 1.800781 -2.507812 1.96875 -2.34375 C 2.082031 -2.226562 2.140625 -2.078125 2.140625 -1.890625 C 2.140625 -1.890625 2.140625 -1.34375 2.140625 -0.25 C 2.140625 -0.09375 2.082031 -0.015625 1.96875 -0.015625 C 1.84375 -0.015625 1.78125 -0.09375 1.78125 -0.25 C 1.78125 -0.25 1.78125 -0.785156 1.78125 -1.859375 C 1.78125 -1.972656 1.75 -2.0625 1.6875 -2.125 C 1.613281 -2.1875 1.53125 -2.21875 1.4375 -2.21875 C 1.4375 -2.21875 1.175781 -2.21875 0.65625 -2.21875 L 0.65625 -0.21875 C 0.65625 -0.0820312 0.597656 -0.015625 0.484375 -0.015625 C 0.367188 -0.015625 0.3125 -0.0820312 0.3125 -0.21875 C 0.3125 -0.21875 0.3125 -0.945312 0.3125 -2.40625 Z M 0.3125 -2.40625 "/>
</symbol>
<symbol overflow="visible" id="glyph1-8">
<path style="stroke:none;" d="M 0.359375 -3.484375 C 0.359375 -3.609375 0.425781 -3.671875 0.5625 -3.671875 C 0.664062 -3.671875 0.71875 -3.609375 0.71875 -3.484375 C 0.71875 -3.484375 0.71875 -2.53125 0.71875 -0.625 C 0.71875 -0.445312 0.773438 -0.359375 0.890625 -0.359375 C 1.023438 -0.359375 1.09375 -0.296875 1.09375 -0.171875 C 1.09375 -0.0546875 1.03125 0 0.90625 0 C 0.75 0 0.617188 -0.0546875 0.515625 -0.171875 C 0.410156 -0.273438 0.359375 -0.410156 0.359375 -0.578125 C 0.359375 -0.578125 0.359375 -1.546875 0.359375 -3.484375 Z M 0.359375 -3.484375 "/>
</symbol>
<symbol overflow="visible" id="glyph1-9">
<path style="stroke:none;" d="M 0.859375 -3.59375 C 0.910156 -3.644531 0.96875 -3.671875 1.03125 -3.671875 C 1.15625 -3.671875 1.21875 -3.601562 1.21875 -3.46875 L 1.21875 -0.21875 C 1.21875 -0.0820312 1.160156 -0.015625 1.046875 -0.015625 C 0.921875 -0.015625 0.859375 -0.0820312 0.859375 -0.21875 C 0.859375 -0.21875 0.859375 -1.175781 0.859375 -3.09375 L 0.4375 -2.671875 C 0.394531 -2.628906 0.351562 -2.609375 0.3125 -2.609375 C 0.1875 -2.609375 0.125 -2.660156 0.125 -2.765625 C 0.125 -2.816406 0.144531 -2.867188 0.1875 -2.921875 Z M 0.859375 -3.59375 "/>
</symbol>
<symbol overflow="visible" id="glyph1-10">
<path style="stroke:none;" d="M 0.484375 -3.6875 C 0.484375 -3.6875 0.734375 -3.6875 1.234375 -3.6875 C 1.460938 -3.6875 1.660156 -3.59375 1.828125 -3.40625 C 1.992188 -3.226562 2.078125 -3.019531 2.078125 -2.78125 C 2.078125 -2.488281 1.953125 -2.238281 1.703125 -2.03125 C 1.941406 -1.851562 2.0625 -1.632812 2.0625 -1.375 C 2.0625 -1.375 2.0625 -1.191406 2.0625 -0.828125 C 2.0625 -0.617188 1.972656 -0.425781 1.796875 -0.25 C 1.640625 -0.09375 1.429688 -0.015625 1.171875 -0.015625 C 1.171875 -0.015625 0.929688 -0.015625 0.453125 -0.015625 C 0.316406 -0.015625 0.25 -0.0703125 0.25 -0.1875 C 0.25 -0.300781 0.320312 -0.359375 0.46875 -0.359375 C 0.46875 -0.359375 0.679688 -0.359375 1.109375 -0.359375 C 1.304688 -0.359375 1.457031 -0.414062 1.5625 -0.53125 C 1.675781 -0.632812 1.734375 -0.773438 1.734375 -0.953125 L 1.734375 -1.265625 C 1.734375 -1.429688 1.679688 -1.566406 1.578125 -1.671875 C 1.460938 -1.796875 1.335938 -1.859375 1.203125 -1.859375 L 0.828125 -1.859375 C 0.691406 -1.859375 0.625 -1.921875 0.625 -2.046875 C 0.625 -2.148438 0.691406 -2.203125 0.828125 -2.203125 L 1.15625 -2.203125 C 1.3125 -2.203125 1.445312 -2.257812 1.5625 -2.375 C 1.675781 -2.488281 1.734375 -2.617188 1.734375 -2.765625 C 1.734375 -2.921875 1.6875 -3.046875 1.59375 -3.140625 C 1.46875 -3.265625 1.335938 -3.328125 1.203125 -3.328125 L 0.484375 -3.328125 C 0.328125 -3.328125 0.25 -3.390625 0.25 -3.515625 C 0.25 -3.628906 0.328125 -3.6875 0.484375 -3.6875 Z M 0.484375 -3.6875 "/>
</symbol>
<symbol overflow="visible" id="glyph1-11">
<path style="stroke:none;" d="M 0.4375 -2.765625 C 0.3125 -2.765625 0.25 -2.820312 0.25 -2.9375 C 0.25 -2.976562 0.257812 -3.023438 0.28125 -3.078125 C 0.382812 -3.285156 0.503906 -3.429688 0.640625 -3.515625 C 0.804688 -3.617188 0.976562 -3.671875 1.15625 -3.671875 C 1.46875 -3.671875 1.710938 -3.554688 1.890625 -3.328125 C 2.015625 -3.148438 2.078125 -2.960938 2.078125 -2.765625 C 2.078125 -2.585938 2.023438 -2.414062 1.921875 -2.25 L 0.734375 -0.34375 L 1.890625 -0.34375 C 2.015625 -0.34375 2.078125 -0.28125 2.078125 -0.15625 C 2.078125 -0.0507812 2.007812 0 1.875 0 L 0.46875 0 C 0.320312 0 0.25 -0.0507812 0.25 -0.15625 C 0.25 -0.195312 0.257812 -0.238281 0.28125 -0.28125 L 1.59375 -2.390625 C 1.675781 -2.535156 1.71875 -2.660156 1.71875 -2.765625 C 1.71875 -2.898438 1.675781 -3.019531 1.59375 -3.125 C 1.476562 -3.257812 1.332031 -3.328125 1.15625 -3.328125 C 0.925781 -3.328125 0.742188 -3.191406 0.609375 -2.921875 C 0.546875 -2.816406 0.488281 -2.765625 0.4375 -2.765625 Z M 0.4375 -2.765625 "/>
</symbol>
<symbol overflow="visible" id="glyph1-12">
<path style="stroke:none;" d="M 0.3125 -2.359375 C 0.3125 -2.503906 0.367188 -2.578125 0.484375 -2.578125 C 0.609375 -2.578125 0.671875 -2.503906 0.671875 -2.359375 C 0.671875 -2.359375 0.671875 -1.820312 0.671875 -0.75 C 0.671875 -0.632812 0.703125 -0.539062 0.765625 -0.46875 C 0.847656 -0.394531 0.9375 -0.359375 1.03125 -0.359375 L 1.796875 -0.359375 L 1.796875 -2.375 C 1.796875 -2.5 1.851562 -2.5625 1.96875 -2.5625 C 2.082031 -2.5625 2.140625 -2.5 2.140625 -2.375 L 2.140625 -0.203125 C 2.140625 -0.0664062 2.082031 0 1.96875 0 L 1 0 C 0.8125 0 0.644531 -0.078125 0.5 -0.234375 C 0.375 -0.359375 0.3125 -0.523438 0.3125 -0.734375 C 0.3125 -0.734375 0.3125 -1.273438 0.3125 -2.359375 Z M 0.3125 -2.359375 "/>
</symbol>
<symbol overflow="visible" id="glyph1-13">
<path style="stroke:none;" d="M 1.859375 -3.671875 C 1.992188 -3.671875 2.0625 -3.613281 2.0625 -3.5 C 2.0625 -3.46875 2.046875 -3.375 2.015625 -3.21875 C 2.015625 -3.21875 1.789062 -2.203125 1.34375 -0.171875 C 1.3125 -0.0546875 1.253906 0 1.171875 0 C 1.046875 0 0.984375 -0.0507812 0.984375 -0.15625 C 0.984375 -0.175781 0.988281 -0.203125 1 -0.234375 L 1.671875 -3.3125 L 0.59375 -3.3125 C 0.59375 -3.3125 0.59375 -3.253906 0.59375 -3.140625 C 0.59375 -3.023438 0.53125 -2.96875 0.40625 -2.96875 C 0.300781 -2.96875 0.25 -3.023438 0.25 -3.140625 C 0.25 -3.140625 0.25 -3.265625 0.25 -3.515625 C 0.25 -3.617188 0.3125 -3.671875 0.4375 -3.671875 C 0.4375 -3.671875 0.910156 -3.671875 1.859375 -3.671875 Z M 1.859375 -3.671875 "/>
</symbol>
<symbol overflow="visible" id="glyph1-14">
<path style="stroke:none;" d="M 0.3125 -3.484375 C 0.3125 -3.609375 0.382812 -3.671875 0.53125 -3.671875 C 0.53125 -3.671875 1.003906 -3.671875 1.953125 -3.671875 C 2.085938 -3.671875 2.15625 -3.613281 2.15625 -3.5 C 2.15625 -3.382812 2.09375 -3.328125 1.96875 -3.328125 L 0.671875 -3.328125 L 0.671875 -2.203125 L 1.21875 -2.203125 C 1.53125 -2.203125 1.78125 -2.082031 1.96875 -1.84375 C 2.09375 -1.6875 2.15625 -1.5 2.15625 -1.28125 L 2.15625 -0.890625 C 2.15625 -0.628906 2.066406 -0.421875 1.890625 -0.265625 C 1.703125 -0.0859375 1.5 0 1.28125 0 L 0.515625 0 C 0.390625 0 0.328125 -0.0546875 0.328125 -0.171875 C 0.328125 -0.285156 0.394531 -0.34375 0.53125 -0.34375 L 1.203125 -0.34375 C 1.410156 -0.34375 1.566406 -0.410156 1.671875 -0.546875 C 1.753906 -0.648438 1.796875 -0.773438 1.796875 -0.921875 L 1.796875 -1.28125 C 1.796875 -1.425781 1.75 -1.554688 1.65625 -1.671875 C 1.550781 -1.785156 1.390625 -1.84375 1.171875 -1.84375 L 0.5 -1.84375 C 0.375 -1.84375 0.3125 -1.910156 0.3125 -2.046875 Z M 0.3125 -3.484375 "/>
</symbol>
</g>
</defs>
<g id="surface1">
<path style="fill:none;stroke-width:0.3985;stroke-linecap:butt;stroke-linejoin:miter;stroke:rgb(0%,0%,0%);stroke-opacity:1;stroke-miterlimit:10;" d="M 28.915094 198.427344 L 28.915094 141.735937 M 28.915094 141.735937 L 14.739313 141.735937 M 14.739313 141.735937 L 0.567438 141.735937 M 113.954156 198.427344 L 113.954156 141.735937 L 284.036187 141.735937 M 198.993219 198.427344 L 198.993219 85.040625 L 284.036187 85.040625 M 198.993219 85.040625 L 99.782281 85.040625 M 99.782281 85.040625 L 0.567438 85.040625 M 284.036187 198.427344 L 284.036187 28.345312 M 284.036187 28.345312 L 142.301813 28.345312 M 142.301813 28.345312 L 0.567438 28.345312 M 56.692438 176.599219 L 56.692438 163.560156 M 56.692438 170.079687 L 85.32525 170.079687 M 85.32525 170.079687 L 113.954156 170.079687 M 311.813531 176.599219 L 311.813531 163.560156 M 226.774469 176.599219 L 226.774469 170.079687 L 311.813531 170.079687 M 141.735406 176.599219 L 141.735406 170.079687 L 226.774469 170.079687 M 311.813531 119.907812 L 311.813531 106.86875 M 311.813531 63.2125 L 311.813531 50.173437 M 311.813531 170.079687 L 340.161187 170.079687 M 340.161187 170.079687 L 368.508844 170.079687 M 56.692438 198.427344 L 56.692438 202.255469 M 56.692438 202.255469 L 56.692438 206.079687 M 141.735406 198.427344 L 141.735406 202.255469 M 141.735406 202.255469 L 141.735406 206.079687 M 226.774469 198.427344 L 226.774469 202.255469 M 226.774469 202.255469 L 226.774469 206.079687 M 311.813531 198.427344 L 311.813531 202.255469 M 311.813531 202.255469 L 311.813531 206.079687 M 311.813531 141.735937 L 325.989312 141.735937 M 311.813531 85.040625 L 325.989312 85.040625 M 311.813531 28.345312 L 311.813531 24.521094 M 311.813531 24.521094 L 311.813531 20.692969 M 56.692438 141.735937 L 56.692438 137.907812 M 56.692438 137.907812 L 56.692438 134.079687 " transform="matrix(1,0,0,-1,25.706,253.65)"/>
<path style="fill:none;stroke-width:0.3985;stroke-linecap:butt;stroke-linejoin:miter;stroke:rgb(0%,0%,0%);stroke-opacity:1;stroke-miterlimit:10;" d="M 56.692438 220.454687 L 56.692438 206.067969 L 42.805719 206.067969 " transform="matrix(1,0,0,-1,25.706,253.65)"/>
<path style="fill-rule:nonzero;fill:rgb(0%,0%,0%);fill-opacity:1;stroke-width:0.3985;stroke-linecap:butt;stroke-linejoin:miter;stroke:rgb(0%,0%,0%);stroke-opacity:1;stroke-miterlimit:10;" d="M 51.540094 206.067969 L 51.540094 208.052344 L 47.32525 206.067969 L 51.540094 204.083594 Z M 51.540094 206.067969 " transform="matrix(1,0,0,-1,25.706,253.65)"/>
<path style="fill:none;stroke-width:0.797;stroke-linecap:butt;stroke-linejoin:miter;stroke:rgb(0%,0%,0%);stroke-opacity:1;stroke-miterlimit:10;" d="M 42.805719 209.341406 L 42.805719 187.513281 M 39.469781 206.067969 L 39.469781 190.786719 " transform="matrix(1,0,0,-1,25.706,253.65)"/>
<path style="fill:none;stroke-width:0.3985;stroke-linecap:butt;stroke-linejoin:miter;stroke:rgb(0%,0%,0%);stroke-opacity:1;stroke-miterlimit:10;" d="M 42.805719 190.786719 L 56.692438 190.786719 L 56.692438 176.4 " transform="matrix(1,0,0,-1,25.706,253.65)"/>
<path style="fill:none;stroke-width:0.3985;stroke-linecap:butt;stroke-linejoin:miter;stroke:rgb(0%,0%,0%);stroke-opacity:1;stroke-miterlimit:10;" d="M 39.469781 198.427344 L 28.715875 198.427344 " transform="matrix(1,0,0,-1,25.706,253.65)"/>
<path style="fill-rule:nonzero;fill:rgb(100%,100%,100%);fill-opacity:1;stroke-width:0.3985;stroke-linecap:butt;stroke-linejoin:miter;stroke:rgb(0%,0%,0%);stroke-opacity:1;stroke-miterlimit:10;" d="M 39.469781 198.427344 C 39.469781 199.302344 38.758844 200.013281 37.883844 200.013281 C 37.004938 200.013281 36.297906 199.302344 36.297906 198.427344 C 36.297906 197.552344 37.004938 196.841406 37.883844 196.841406 C 38.758844 196.841406 39.469781 197.552344 39.469781 198.427344 Z M 39.469781 198.427344 " transform="matrix(1,0,0,-1,25.706,253.65)"/>
<path style="fill:none;stroke-width:0.3985;stroke-linecap:butt;stroke-linejoin:miter;stroke:rgb(0%,0%,0%);stroke-opacity:1;stroke-miterlimit:10;" d="M 42.805719 198.427344 L 56.891656 198.427344 " transform="matrix(1,0,0,-1,25.706,253.65)"/>
<g style="fill:rgb(0%,0%,0%);fill-opacity:1;">
  <use xlink:href="#glyph0-1" x="86.368" y="39.943"/>
  <use xlink:href="#glyph0-1" x="92.504962" y="39.943"/>
  <use xlink:href="#glyph0-2" x="98.641923" y="39.943"/>
</g>
<g style="fill:rgb(0%,0%,0%);fill-opacity:1;">
  <use xlink:href="#glyph1-1" x="85.919" y="51.703"/>
  <use xlink:href="#glyph1-2" x="88.967556" y="51.703"/>
  <use xlink:href="#glyph1-3" x="91.278879" y="51.703"/>
  <use xlink:href="#glyph1-4" x="93.84923" y="51.703"/>
  <use xlink:href="#glyph1-5" x="96.404636" y="51.703"/>
  <use xlink:href="#glyph1-6" x="98.735885" y="51.703"/>
  <use xlink:href="#glyph1-5" x="99.737126" y="51.703"/>
  <use xlink:href="#glyph1-5" x="102.068375" y="51.703"/>
  <use xlink:href="#glyph1-7" x="104.399623" y="51.703"/>
</g>
<g style="fill:rgb(0%,0%,0%);fill-opacity:1;">
  <use xlink:href="#glyph1-8" x="109.022269" y="51.703"/>
  <use xlink:href="#glyph1-2" x="110.357258" y="51.703"/>
  <use xlink:href="#glyph1-9" x="112.668581" y="51.703"/>
  <use xlink:href="#glyph1-10" x="114.372186" y="51.703"/>
  <use xlink:href="#glyph1-5" x="116.76321" y="51.703"/>
  <use xlink:href="#glyph1-6" x="119.094458" y="51.703"/>
  <use xlink:href="#glyph1-5" x="120.095699" y="51.703"/>
  <use xlink:href="#glyph1-5" x="122.426948" y="51.703"/>
  <use xlink:href="#glyph1-7" x="124.758196" y="51.703"/>
</g>
<path style="fill:none;stroke-width:0.3985;stroke-linecap:butt;stroke-linejoin:miter;stroke:rgb(0%,0%,0%);stroke-opacity:1;stroke-miterlimit:10;" d="M 141.735406 220.454687 L 141.735406 206.067969 L 127.844781 206.067969 " transform="matrix(1,0,0,-1,25.706,253.65)"/>
<path style="fill-rule:nonzero;fill:rgb(0%,0%,0%);fill-opacity:1;stroke-width:0.3985;stroke-linecap:butt;stroke-linejoin:miter;stroke:rgb(0%,0%,0%);stroke-opacity:1;stroke-miterlimit:10;" d="M 136.579156 206.067969 L 136.579156 208.052344 L 132.364313 206.067969 L 136.579156 204.083594 Z M 136.579156 206.067969 " transform="matrix(1,0,0,-1,25.706,253.65)"/>
<path style="fill:none;stroke-width:0.797;stroke-linecap:butt;stroke-linejoin:miter;stroke:rgb(0%,0%,0%);stroke-opacity:1;stroke-miterlimit:10;" d="M 127.844781 209.341406 L 127.844781 187.513281 M 124.51275 206.067969 L 124.51275 190.786719 " transform="matrix(1,0,0,-1,25.706,253.65)"/>
<path style="fill:none;stroke-width:0.3985;stroke-linecap:butt;stroke-linejoin:miter;stroke:rgb(0%,0%,0%);stroke-opacity:1;stroke-miterlimit:10;" d="M 127.844781 190.786719 L 141.735406 190.786719 L 141.735406 176.4 " transform="matrix(1,0,0,-1,25.706,253.65)"/>
<path style="fill:none;stroke-width:0.3985;stroke-linecap:butt;stroke-linejoin:miter;stroke:rgb(0%,0%,0%);stroke-opacity:1;stroke-miterlimit:10;" d="M 124.51275 198.427344 L 113.754938 198.427344 " transform="matrix(1,0,0,-1,25.706,253.65)"/>
<path style="fill-rule:nonzero;fill:rgb(100%,100%,100%);fill-opacity:1;stroke-width:0.3985;stroke-linecap:butt;stroke-linejoin:miter;stroke:rgb(0%,0%,0%);stroke-opacity:1;stroke-miterlimit:10;" d="M 124.51275 198.427344 C 124.51275 199.302344 123.801813 200.013281 122.922906 200.013281 C 122.047906 200.013281 121.336969 199.302344 121.336969 198.427344 C 121.336969 197.552344 122.047906 196.841406 122.922906 196.841406 C 123.801813 196.841406 124.51275 197.552344 124.51275 198.427344 Z M 124.51275 198.427344 " transform="matrix(1,0,0,-1,25.706,253.65)"/>
<path style="fill:none;stroke-width:0.3985;stroke-linecap:butt;stroke-linejoin:miter;stroke:rgb(0%,0%,0%);stroke-opacity:1;stroke-miterlimit:10;" d="M 127.844781 198.427344 L 141.934625 198.427344 " transform="matrix(1,0,0,-1,25.706,253.65)"/>
<g style="fill:rgb(0%,0%,0%);fill-opacity:1;">
  <use xlink:href="#glyph0-1" x="171.409" y="39.943"/>
  <use xlink:href="#glyph0-1" x="177.545962" y="39.943"/>
  <use xlink:href="#glyph0-3" x="183.682923" y="39.943"/>
</g>
<g style="fill:rgb(0%,0%,0%);fill-opacity:1;">
  <use xlink:href="#glyph1-1" x="170.96" y="51.703"/>
  <use xlink:href="#glyph1-2" x="174.008556" y="51.703"/>
  <use xlink:href="#glyph1-9" x="176.319879" y="51.703"/>
  <use xlink:href="#glyph1-6" x="178.023483" y="51.703"/>
  <use xlink:href="#glyph1-9" x="179.024725" y="51.703"/>
  <use xlink:href="#glyph1-11" x="180.728329" y="51.703"/>
  <use xlink:href="#glyph1-12" x="183.049615" y="51.703"/>
</g>
<g style="fill:rgb(0%,0%,0%);fill-opacity:1;">
  <use xlink:href="#glyph1-8" x="187.672261" y="51.703"/>
  <use xlink:href="#glyph1-2" x="189.00725" y="51.703"/>
  <use xlink:href="#glyph1-9" x="191.318573" y="51.703"/>
  <use xlink:href="#glyph1-10" x="193.022178" y="51.703"/>
  <use xlink:href="#glyph1-5" x="195.413202" y="51.703"/>
  <use xlink:href="#glyph1-6" x="197.74445" y="51.703"/>
  <use xlink:href="#glyph1-5" x="198.745691" y="51.703"/>
  <use xlink:href="#glyph1-5" x="201.07694" y="51.703"/>
  <use xlink:href="#glyph1-7" x="203.408188" y="51.703"/>
</g>
<path style="fill:none;stroke-width:0.3985;stroke-linecap:butt;stroke-linejoin:miter;stroke:rgb(0%,0%,0%);stroke-opacity:1;stroke-miterlimit:10;" d="M 226.774469 220.454687 L 226.774469 206.067969 L 212.883844 206.067969 " transform="matrix(1,0,0,-1,25.706,253.65)"/>
<path style="fill-rule:nonzero;fill:rgb(0%,0%,0%);fill-opacity:1;stroke-width:0.3985;stroke-linecap:butt;stroke-linejoin:miter;stroke:rgb(0%,0%,0%);stroke-opacity:1;stroke-miterlimit:10;" d="M 221.622125 206.067969 L 221.622125 208.052344 L 217.403375 206.067969 L 221.622125 204.083594 Z M 221.622125 206.067969 " transform="matrix(1,0,0,-1,25.706,253.65)"/>
<path style="fill:none;stroke-width:0.797;stroke-linecap:butt;stroke-linejoin:miter;stroke:rgb(0%,0%,0%);stroke-opacity:1;stroke-miterlimit:10;" d="M 212.883844 209.341406 L 212.883844 187.513281 M 209.551813 206.067969 L 209.551813 190.786719 " transform="matrix(1,0,0,-1,25.706,253.65)"/>
<path style="fill:none;stroke-width:0.3985;stroke-linecap:butt;stroke-linejoin:miter;stroke:rgb(0%,0%,0%);stroke-opacity:1;stroke-miterlimit:10;" d="M 212.883844 190.786719 L 226.774469 190.786719 L 226.774469 176.4 " transform="matrix(1,0,0,-1,25.706,253.65)"/>
<path style="fill:none;stroke-width:0.3985;stroke-linecap:butt;stroke-linejoin:miter;stroke:rgb(0%,0%,0%);stroke-opacity:1;stroke-miterlimit:10;" d="M 209.551813 198.427344 L 198.794 198.427344 " transform="matrix(1,0,0,-1,25.706,253.65)"/>
<path style="fill-rule:nonzero;fill:rgb(100%,100%,100%);fill-opacity:1;stroke-width:0.3985;stroke-linecap:butt;stroke-linejoin:miter;stroke:rgb(0%,0%,0%);stroke-opacity:1;stroke-miterlimit:10;" d="M 209.551813 198.427344 C 209.551813 199.302344 208.840875 200.013281 207.965875 200.013281 C 207.086969 200.013281 206.376031 199.302344 206.376031 198.427344 C 206.376031 197.552344 207.086969 196.841406 207.965875 196.841406 C 208.840875 196.841406 209.551813 197.552344 209.551813 198.427344 Z M 209.551813 198.427344 " transform="matrix(1,0,0,-1,25.706,253.65)"/>
<path style="fill:none;stroke-width:0.3985;stroke-linecap:butt;stroke-linejoin:miter;stroke:rgb(0%,0%,0%);stroke-opacity:1;stroke-miterlimit:10;" d="M 212.883844 198.427344 L 226.973688 198.427344 " transform="matrix(1,0,0,-1,25.706,253.65)"/>
<g style="fill:rgb(0%,0%,0%);fill-opacity:1;">
  <use xlink:href="#glyph0-1" x="256.449" y="39.943"/>
  <use xlink:href="#glyph0-1" x="262.585962" y="39.943"/>
  <use xlink:href="#glyph0-4" x="268.722923" y="39.943"/>
</g>
<g style="fill:rgb(0%,0%,0%);fill-opacity:1;">
  <use xlink:href="#glyph1-1" x="256" y="51.703"/>
  <use xlink:href="#glyph1-2" x="259.048556" y="51.703"/>
  <use xlink:href="#glyph1-9" x="261.359879" y="51.703"/>
  <use xlink:href="#glyph1-6" x="263.063483" y="51.703"/>
  <use xlink:href="#glyph1-9" x="264.064725" y="51.703"/>
  <use xlink:href="#glyph1-11" x="265.768329" y="51.703"/>
  <use xlink:href="#glyph1-12" x="268.089615" y="51.703"/>
</g>
<g style="fill:rgb(0%,0%,0%);fill-opacity:1;">
  <use xlink:href="#glyph1-8" x="272.712261" y="51.703"/>
  <use xlink:href="#glyph1-2" x="274.04725" y="51.703"/>
  <use xlink:href="#glyph1-9" x="276.358573" y="51.703"/>
  <use xlink:href="#glyph1-10" x="278.062178" y="51.703"/>
  <use xlink:href="#glyph1-5" x="280.453202" y="51.703"/>
  <use xlink:href="#glyph1-6" x="282.78445" y="51.703"/>
  <use xlink:href="#glyph1-5" x="283.785691" y="51.703"/>
  <use xlink:href="#glyph1-5" x="286.11694" y="51.703"/>
  <use xlink:href="#glyph1-7" x="288.448188" y="51.703"/>
</g>
<path style="fill:none;stroke-width:0.3985;stroke-linecap:butt;stroke-linejoin:miter;stroke:rgb(0%,0%,0%);stroke-opacity:1;stroke-miterlimit:10;" d="M 311.813531 220.454687 L 311.813531 206.067969 L 297.926812 206.067969 " transform="matrix(1,0,0,-1,25.706,253.65)"/>
<path style="fill-rule:nonzero;fill:rgb(0%,0%,0%);fill-opacity:1;stroke-width:0.3985;stroke-linecap:butt;stroke-linejoin:miter;stroke:rgb(0%,0%,0%);stroke-opacity:1;stroke-miterlimit:10;" d="M 306.661187 206.067969 L 306.661187 208.052344 L 302.446344 206.067969 L 306.661187 204.083594 Z M 306.661187 206.067969 " transform="matrix(1,0,0,-1,25.706,253.65)"/>
<path style="fill:none;stroke-width:0.797;stroke-linecap:butt;stroke-linejoin:miter;stroke:rgb(0%,0%,0%);stroke-opacity:1;stroke-miterlimit:10;" d="M 297.926812 209.341406 L 297.926812 187.513281 M 294.590875 206.067969 L 294.590875 190.786719 " transform="matrix(1,0,0,-1,25.706,253.65)"/>
<path style="fill:none;stroke-width:0.3985;stroke-linecap:butt;stroke-linejoin:miter;stroke:rgb(0%,0%,0%);stroke-opacity:1;stroke-miterlimit:10;" d="M 297.926812 190.786719 L 311.813531 190.786719 L 311.813531 176.4 " transform="matrix(1,0,0,-1,25.706,253.65)"/>
<path style="fill:none;stroke-width:0.3985;stroke-linecap:butt;stroke-linejoin:miter;stroke:rgb(0%,0%,0%);stroke-opacity:1;stroke-miterlimit:10;" d="M 294.590875 198.427344 L 283.836969 198.427344 " transform="matrix(1,0,0,-1,25.706,253.65)"/>
<path style="fill-rule:nonzero;fill:rgb(100%,100%,100%);fill-opacity:1;stroke-width:0.3985;stroke-linecap:butt;stroke-linejoin:miter;stroke:rgb(0%,0%,0%);stroke-opacity:1;stroke-miterlimit:10;" d="M 294.590875 198.427344 C 294.590875 199.302344 293.879937 200.013281 293.004937 200.013281 C 292.126031 200.013281 291.419 199.302344 291.419 198.427344 C 291.419 197.552344 292.126031 196.841406 293.004937 196.841406 C 293.879937 196.841406 294.590875 197.552344 294.590875 198.427344 Z M 294.590875 198.427344 " transform="matrix(1,0,0,-1,25.706,253.65)"/>
<path style="fill:none;stroke-width:0.3985;stroke-linecap:butt;stroke-linejoin:miter;stroke:rgb(0%,0%,0%);stroke-opacity:1;stroke-miterlimit:10;" d="M 297.926812 198.427344 L 312.01275 198.427344 " transform="matrix(1,0,0,-1,25.706,253.65)"/>
<g style="fill:rgb(0%,0%,0%);fill-opacity:1;">
  <use xlink:href="#glyph0-1" x="341.49" y="39.943"/>
  <use xlink:href="#glyph0-1" x="347.626962" y="39.943"/>
  <use xlink:href="#glyph0-5" x="353.763923" y="39.943"/>
</g>
<g style="fill:rgb(0%,0%,0%);fill-opacity:1;">
  <use xlink:href="#glyph1-1" x="341.041" y="51.703"/>
  <use xlink:href="#glyph1-2" x="344.089556" y="51.703"/>
  <use xlink:href="#glyph1-9" x="346.400879" y="51.703"/>
  <use xlink:href="#glyph1-6" x="348.104483" y="51.703"/>
  <use xlink:href="#glyph1-9" x="349.105725" y="51.703"/>
  <use xlink:href="#glyph1-11" x="350.809329" y="51.703"/>
  <use xlink:href="#glyph1-12" x="353.130615" y="51.703"/>
</g>
<g style="fill:rgb(0%,0%,0%);fill-opacity:1;">
  <use xlink:href="#glyph1-8" x="357.753261" y="51.703"/>
  <use xlink:href="#glyph1-2" x="359.08825" y="51.703"/>
  <use xlink:href="#glyph1-9" x="361.399573" y="51.703"/>
  <use xlink:href="#glyph1-10" x="363.103178" y="51.703"/>
  <use xlink:href="#glyph1-5" x="365.494202" y="51.703"/>
  <use xlink:href="#glyph1-6" x="367.82545" y="51.703"/>
  <use xlink:href="#glyph1-5" x="368.826691" y="51.703"/>
  <use xlink:href="#glyph1-5" x="371.15794" y="51.703"/>
  <use xlink:href="#glyph1-7" x="373.489188" y="51.703"/>
</g>
<path style="fill:none;stroke-width:0.3985;stroke-linecap:butt;stroke-linejoin:miter;stroke:rgb(0%,0%,0%);stroke-opacity:1;stroke-miterlimit:10;" d="M 311.813531 107.067969 L 311.813531 92.68125 L 297.926812 92.68125 M 297.926812 77.4 L 311.813531 77.4 L 311.813531 63.013281 " transform="matrix(1,0,0,-1,25.706,253.65)"/>
<path style="fill:none;stroke-width:0.797;stroke-linecap:butt;stroke-linejoin:miter;stroke:rgb(0%,0%,0%);stroke-opacity:1;stroke-miterlimit:10;" d="M 297.926812 95.954687 L 297.926812 74.126562 M 294.590875 92.68125 L 294.590875 77.4 " transform="matrix(1,0,0,-1,25.706,253.65)"/>
<path style="fill-rule:nonzero;fill:rgb(0%,0%,0%);fill-opacity:1;stroke-width:0.3985;stroke-linecap:butt;stroke-linejoin:miter;stroke:rgb(0%,0%,0%);stroke-opacity:1;stroke-miterlimit:10;" d="M 303.188531 77.4 L 303.188531 75.415625 L 307.407281 77.4 L 303.188531 79.384375 Z M 303.188531 77.4 " transform="matrix(1,0,0,-1,25.706,253.65)"/>
<path style="fill:none;stroke-width:0.3985;stroke-linecap:butt;stroke-linejoin:miter;stroke:rgb(0%,0%,0%);stroke-opacity:1;stroke-miterlimit:10;" d="M 294.590875 85.040625 L 283.836969 85.040625 " transform="matrix(1,0,0,-1,25.706,253.65)"/>
<path style="fill:none;stroke-width:0.3985;stroke-linecap:butt;stroke-linejoin:miter;stroke:rgb(0%,0%,0%);stroke-opacity:1;stroke-miterlimit:10;" d="M 297.926812 85.040625 L 312.01275 85.040625 " transform="matrix(1,0,0,-1,25.706,253.65)"/>
<g style="fill:rgb(0%,0%,0%);fill-opacity:1;">
  <use xlink:href="#glyph0-1" x="341.49" y="153.331"/>
  <use xlink:href="#glyph0-1" x="347.626962" y="153.331"/>
  <use xlink:href="#glyph0-6" x="353.763923" y="153.331"/>
</g>
<g style="fill:rgb(0%,0%,0%);fill-opacity:1;">
  <use xlink:href="#glyph1-1" x="341.041" y="165.09"/>
  <use xlink:href="#glyph1-2" x="344.089556" y="165.09"/>
  <use xlink:href="#glyph1-13" x="346.400879" y="165.09"/>
  <use xlink:href="#glyph1-4" x="348.78194" y="165.09"/>
  <use xlink:href="#glyph1-5" x="351.337347" y="165.09"/>
  <use xlink:href="#glyph1-6" x="353.668595" y="165.09"/>
  <use xlink:href="#glyph1-5" x="354.669837" y="165.09"/>
  <use xlink:href="#glyph1-5" x="357.001085" y="165.09"/>
  <use xlink:href="#glyph1-7" x="359.332334" y="165.09"/>
</g>
<g style="fill:rgb(0%,0%,0%);fill-opacity:1;">
  <use xlink:href="#glyph1-8" x="363.95498" y="165.09"/>
  <use xlink:href="#glyph1-2" x="365.289968" y="165.09"/>
  <use xlink:href="#glyph1-9" x="367.601292" y="165.09"/>
  <use xlink:href="#glyph1-10" x="369.304896" y="165.09"/>
  <use xlink:href="#glyph1-5" x="371.69592" y="165.09"/>
  <use xlink:href="#glyph1-6" x="374.027169" y="165.09"/>
  <use xlink:href="#glyph1-5" x="375.02841" y="165.09"/>
  <use xlink:href="#glyph1-5" x="377.359658" y="165.09"/>
  <use xlink:href="#glyph1-7" x="379.690907" y="165.09"/>
</g>
<path style="fill:none;stroke-width:0.3985;stroke-linecap:butt;stroke-linejoin:miter;stroke:rgb(0%,0%,0%);stroke-opacity:1;stroke-miterlimit:10;" d="M 311.813531 50.372656 L 311.813531 35.985937 L 297.926812 35.985937 M 297.926812 20.708594 L 311.813531 20.708594 L 311.813531 6.321875 " transform="matrix(1,0,0,-1,25.706,253.65)"/>
<path style="fill:none;stroke-width:0.797;stroke-linecap:butt;stroke-linejoin:miter;stroke:rgb(0%,0%,0%);stroke-opacity:1;stroke-miterlimit:10;" d="M 297.926812 39.259375 L 297.926812 17.435156 M 294.590875 35.985937 L 294.590875 20.708594 " transform="matrix(1,0,0,-1,25.706,253.65)"/>
<path style="fill-rule:nonzero;fill:rgb(0%,0%,0%);fill-opacity:1;stroke-width:0.3985;stroke-linecap:butt;stroke-linejoin:miter;stroke:rgb(0%,0%,0%);stroke-opacity:1;stroke-miterlimit:10;" d="M 303.188531 20.708594 L 303.188531 18.724219 L 307.407281 20.708594 L 303.188531 22.692969 Z M 303.188531 20.708594 " transform="matrix(1,0,0,-1,25.706,253.65)"/>
<path style="fill:none;stroke-width:0.3985;stroke-linecap:butt;stroke-linejoin:miter;stroke:rgb(0%,0%,0%);stroke-opacity:1;stroke-miterlimit:10;" d="M 294.590875 28.345312 L 283.836969 28.345312 " transform="matrix(1,0,0,-1,25.706,253.65)"/>
<path style="fill:none;stroke-width:0.3985;stroke-linecap:butt;stroke-linejoin:miter;stroke:rgb(0%,0%,0%);stroke-opacity:1;stroke-miterlimit:10;" d="M 297.926812 28.345312 L 312.01275 28.345312 " transform="matrix(1,0,0,-1,25.706,253.65)"/>
<g style="fill:rgb(0%,0%,0%);fill-opacity:1;">
  <use xlink:href="#glyph0-1" x="341.49" y="210.024"/>
  <use xlink:href="#glyph0-1" x="347.626962" y="210.024"/>
  <use xlink:href="#glyph0-7" x="353.763923" y="210.024"/>
</g>
<g style="fill:rgb(0%,0%,0%);fill-opacity:1;">
  <use xlink:href="#glyph1-1" x="341.041" y="221.783"/>
  <use xlink:href="#glyph1-2" x="344.089556" y="221.783"/>
  <use xlink:href="#glyph1-13" x="346.400879" y="221.783"/>
  <use xlink:href="#glyph1-4" x="348.78194" y="221.783"/>
  <use xlink:href="#glyph1-5" x="351.337347" y="221.783"/>
  <use xlink:href="#glyph1-6" x="353.668595" y="221.783"/>
  <use xlink:href="#glyph1-5" x="354.669837" y="221.783"/>
  <use xlink:href="#glyph1-5" x="357.001085" y="221.783"/>
  <use xlink:href="#glyph1-7" x="359.332334" y="221.783"/>
</g>
<g style="fill:rgb(0%,0%,0%);fill-opacity:1;">
  <use xlink:href="#glyph1-8" x="363.95498" y="221.783"/>
  <use xlink:href="#glyph1-2" x="365.289968" y="221.783"/>
  <use xlink:href="#glyph1-9" x="367.601292" y="221.783"/>
  <use xlink:href="#glyph1-10" x="369.304896" y="221.783"/>
  <use xlink:href="#glyph1-5" x="371.69592" y="221.783"/>
  <use xlink:href="#glyph1-6" x="374.027169" y="221.783"/>
  <use xlink:href="#glyph1-5" x="375.02841" y="221.783"/>
  <use xlink:href="#glyph1-5" x="377.359658" y="221.783"/>
  <use xlink:href="#glyph1-7" x="379.690907" y="221.783"/>
</g>
<path style="fill:none;stroke-width:0.3985;stroke-linecap:butt;stroke-linejoin:miter;stroke:rgb(0%,0%,0%);stroke-opacity:1;stroke-miterlimit:10;" d="M 56.692438 163.759375 L 56.692438 149.372656 L 42.805719 149.372656 M 42.805719 134.095312 L 56.692438 134.095312 L 56.692438 119.708594 " transform="matrix(1,0,0,-1,25.706,253.65)"/>
<path style="fill:none;stroke-width:0.797;stroke-linecap:butt;stroke-linejoin:miter;stroke:rgb(0%,0%,0%);stroke-opacity:1;stroke-miterlimit:10;" d="M 42.805719 152.646094 L 42.805719 130.821875 M 39.469781 149.372656 L 39.469781 134.095312 " transform="matrix(1,0,0,-1,25.706,253.65)"/>
<path style="fill-rule:nonzero;fill:rgb(0%,0%,0%);fill-opacity:1;stroke-width:0.3985;stroke-linecap:butt;stroke-linejoin:miter;stroke:rgb(0%,0%,0%);stroke-opacity:1;stroke-miterlimit:10;" d="M 48.067438 134.095312 L 48.067438 132.110937 L 52.286188 134.095312 L 48.067438 136.079687 Z M 48.067438 134.095312 " transform="matrix(1,0,0,-1,25.706,253.65)"/>
<path style="fill:none;stroke-width:0.3985;stroke-linecap:butt;stroke-linejoin:miter;stroke:rgb(0%,0%,0%);stroke-opacity:1;stroke-miterlimit:10;" d="M 39.469781 141.735937 L 28.715875 141.735937 " transform="matrix(1,0,0,-1,25.706,253.65)"/>
<path style="fill:none;stroke-width:0.3985;stroke-linecap:butt;stroke-linejoin:miter;stroke:rgb(0%,0%,0%);stroke-opacity:1;stroke-miterlimit:10;" d="M 42.805719 141.735937 L 56.891656 141.735937 " transform="matrix(1,0,0,-1,25.706,253.65)"/>
<g style="fill:rgb(0%,0%,0%);fill-opacity:1;">
  <use xlink:href="#glyph0-1" x="86.368" y="96.637"/>
  <use xlink:href="#glyph0-1" x="92.504962" y="96.637"/>
  <use xlink:href="#glyph0-8" x="98.641923" y="96.637"/>
</g>
<g style="fill:rgb(0%,0%,0%);fill-opacity:1;">
  <use xlink:href="#glyph1-1" x="85.919" y="108.396"/>
  <use xlink:href="#glyph1-2" x="88.967556" y="108.396"/>
  <use xlink:href="#glyph1-14" x="91.278879" y="108.396"/>
  <use xlink:href="#glyph1-14" x="93.754585" y="108.396"/>
  <use xlink:href="#glyph1-5" x="96.230291" y="108.396"/>
  <use xlink:href="#glyph1-6" x="98.561539" y="108.396"/>
  <use xlink:href="#glyph1-5" x="99.562781" y="108.396"/>
  <use xlink:href="#glyph1-5" x="101.894029" y="108.396"/>
  <use xlink:href="#glyph1-7" x="104.225277" y="108.396"/>
</g>
<g style="fill:rgb(0%,0%,0%);fill-opacity:1;">
  <use xlink:href="#glyph1-8" x="108.847924" y="108.396"/>
  <use xlink:href="#glyph1-2" x="110.182912" y="108.396"/>
  <use xlink:href="#glyph1-9" x="112.494235" y="108.396"/>
  <use xlink:href="#glyph1-10" x="114.19784" y="108.396"/>
  <use xlink:href="#glyph1-5" x="116.588864" y="108.396"/>
  <use xlink:href="#glyph1-6" x="118.920112" y="108.396"/>
  <use xlink:href="#glyph1-5" x="119.921354" y="108.396"/>
  <use xlink:href="#glyph1-5" x="122.252602" y="108.396"/>
  <use xlink:href="#glyph1-7" x="124.583851" y="108.396"/>
</g>
<path style="fill:none;stroke-width:0.3985;stroke-linecap:butt;stroke-linejoin:miter;stroke:rgb(0%,0%,0%);stroke-opacity:1;stroke-miterlimit:10;" d="M 311.813531 163.759375 L 311.813531 149.372656 L 297.926812 149.372656 M 297.926812 134.095312 L 311.813531 134.095312 L 311.813531 119.708594 " transform="matrix(1,0,0,-1,25.706,253.65)"/>
<path style="fill:none;stroke-width:0.797;stroke-linecap:butt;stroke-linejoin:miter;stroke:rgb(0%,0%,0%);stroke-opacity:1;stroke-miterlimit:10;" d="M 297.926812 152.646094 L 297.926812 130.821875 M 294.590875 149.372656 L 294.590875 134.095312 " transform="matrix(1,0,0,-1,25.706,253.65)"/>
<path style="fill-rule:nonzero;fill:rgb(0%,0%,0%);fill-opacity:1;stroke-width:0.3985;stroke-linecap:butt;stroke-linejoin:miter;stroke:rgb(0%,0%,0%);stroke-opacity:1;stroke-miterlimit:10;" d="M 303.188531 134.095312 L 303.188531 132.110937 L 307.407281 134.095312 L 303.188531 136.079687 Z M 303.188531 134.095312 " transform="matrix(1,0,0,-1,25.706,253.65)"/>
<path style="fill:none;stroke-width:0.3985;stroke-linecap:butt;stroke-linejoin:miter;stroke:rgb(0%,0%,0%);stroke-opacity:1;stroke-miterlimit:10;" d="M 294.590875 141.735937 L 283.836969 141.735937 " transform="matrix(1,0,0,-1,25.706,253.65)"/>
<path style="fill:none;stroke-width:0.3985;stroke-linecap:butt;stroke-linejoin:miter;stroke:rgb(0%,0%,0%);stroke-opacity:1;stroke-miterlimit:10;" d="M 297.926812 141.735937 L 312.01275 141.735937 " transform="matrix(1,0,0,-1,25.706,253.65)"/>
<g style="fill:rgb(0%,0%,0%);fill-opacity:1;">
  <use xlink:href="#glyph0-1" x="341.49" y="96.637"/>
  <use xlink:href="#glyph0-1" x="347.626962" y="96.637"/>
  <use xlink:href="#glyph0-9" x="353.763923" y="96.637"/>
</g>
<g style="fill:rgb(0%,0%,0%);fill-opacity:1;">
  <use xlink:href="#glyph1-1" x="341.041" y="108.396"/>
  <use xlink:href="#glyph1-2" x="344.089556" y="108.396"/>
  <use xlink:href="#glyph1-13" x="346.400879" y="108.396"/>
  <use xlink:href="#glyph1-4" x="348.78194" y="108.396"/>
  <use xlink:href="#glyph1-5" x="351.337347" y="108.396"/>
  <use xlink:href="#glyph1-6" x="353.668595" y="108.396"/>
  <use xlink:href="#glyph1-5" x="354.669837" y="108.396"/>
  <use xlink:href="#glyph1-5" x="357.001085" y="108.396"/>
  <use xlink:href="#glyph1-7" x="359.332334" y="108.396"/>
</g>
<g style="fill:rgb(0%,0%,0%);fill-opacity:1;">
  <use xlink:href="#glyph1-8" x="363.95498" y="108.396"/>
  <use xlink:href="#glyph1-2" x="365.289968" y="108.396"/>
  <use xlink:href="#glyph1-9" x="367.601292" y="108.396"/>
  <use xlink:href="#glyph1-10" x="369.304896" y="108.396"/>
  <use xlink:href="#glyph1-5" x="371.69592" y="108.396"/>
  <use xlink:href="#glyph1-6" x="374.027169" y="108.396"/>
  <use xlink:href="#glyph1-5" x="375.02841" y="108.396"/>
  <use xlink:href="#glyph1-5" x="377.359658" y="108.396"/>
  <use xlink:href="#glyph1-7" x="379.690907" y="108.396"/>
</g>
<path style="fill-rule:nonzero;fill:rgb(0%,0%,0%);fill-opacity:1;stroke-width:0.3985;stroke-linecap:butt;stroke-linejoin:miter;stroke:rgb(0%,0%,0%);stroke-opacity:1;stroke-miterlimit:10;" d="M 30.501031 141.735937 C 30.501031 142.610937 29.790094 143.321875 28.915094 143.321875 C 28.036188 143.321875 27.32525 142.610937 27.32525 141.735937 C 27.32525 140.857031 28.036188 140.146094 28.915094 140.146094 C 29.790094 140.146094 30.501031 140.857031 30.501031 141.735937 Z M 30.501031 141.735937 " transform="matrix(1,0,0,-1,25.706,253.65)"/>
<path style="fill-rule:nonzero;fill:rgb(100%,100%,100%);fill-opacity:1;stroke-width:0.3985;stroke-linecap:butt;stroke-linejoin:miter;stroke:rgb(0%,0%,0%);stroke-opacity:1;stroke-miterlimit:10;" d="M 2.153375 141.735937 C 2.153375 142.610937 1.442438 143.321875 0.567438 143.321875 C -0.307562 143.321875 -1.0185 142.610937 -1.0185 141.735937 C -1.0185 140.857031 -0.307562 140.146094 0.567438 140.146094 C 1.442438 140.146094 2.153375 140.857031 2.153375 141.735937 Z M 2.153375 141.735937 " transform="matrix(1,0,0,-1,25.706,253.65)"/>
<g style="fill:rgb(0%,0%,0%);fill-opacity:1;">
  <use xlink:href="#glyph0-10" x="6.155" y="115.251"/>
  <use xlink:href="#glyph0-11" x="12.272036" y="115.251"/>
  <use xlink:href="#glyph0-12" x="16.904645" y="115.251"/>
</g>
<path style="fill-rule:nonzero;fill:rgb(0%,0%,0%);fill-opacity:1;stroke-width:0.3985;stroke-linecap:butt;stroke-linejoin:miter;stroke:rgb(0%,0%,0%);stroke-opacity:1;stroke-miterlimit:10;" d="M 200.583063 85.040625 C 200.583063 85.915625 199.872125 86.626562 198.993219 86.626562 C 198.118219 86.626562 197.407281 85.915625 197.407281 85.040625 C 197.407281 84.165625 198.118219 83.454687 198.993219 83.454687 C 199.872125 83.454687 200.583063 84.165625 200.583063 85.040625 Z M 200.583063 85.040625 " transform="matrix(1,0,0,-1,25.706,253.65)"/>
<path style="fill-rule:nonzero;fill:rgb(100%,100%,100%);fill-opacity:1;stroke-width:0.3985;stroke-linecap:butt;stroke-linejoin:miter;stroke:rgb(0%,0%,0%);stroke-opacity:1;stroke-miterlimit:10;" d="M 2.153375 85.040625 C 2.153375 85.915625 1.442438 86.626562 0.567438 86.626562 C -0.307562 86.626562 -1.0185 85.915625 -1.0185 85.040625 C -1.0185 84.165625 -0.307562 83.454687 0.567438 83.454687 C 1.442438 83.454687 2.153375 84.165625 2.153375 85.040625 Z M 2.153375 85.040625 " transform="matrix(1,0,0,-1,25.706,253.65)"/>
<g style="fill:rgb(0%,0%,0%);fill-opacity:1;">
  <use xlink:href="#glyph0-13" x="16.955" y="172.282"/>
</g>
<path style="fill-rule:nonzero;fill:rgb(0%,0%,0%);fill-opacity:1;stroke-width:0.3985;stroke-linecap:butt;stroke-linejoin:miter;stroke:rgb(0%,0%,0%);stroke-opacity:1;stroke-miterlimit:10;" d="M 285.622125 28.345312 C 285.622125 29.224219 284.911187 29.935156 284.036187 29.935156 C 283.157281 29.935156 282.446344 29.224219 282.446344 28.345312 C 282.446344 27.470312 283.157281 26.759375 284.036187 26.759375 C 284.911187 26.759375 285.622125 27.470312 285.622125 28.345312 Z M 285.622125 28.345312 " transform="matrix(1,0,0,-1,25.706,253.65)"/>
<path style="fill-rule:nonzero;fill:rgb(100%,100%,100%);fill-opacity:1;stroke-width:0.3985;stroke-linecap:butt;stroke-linejoin:miter;stroke:rgb(0%,0%,0%);stroke-opacity:1;stroke-miterlimit:10;" d="M 2.153375 28.345312 C 2.153375 29.224219 1.442438 29.935156 0.567438 29.935156 C -0.307562 29.935156 -1.0185 29.224219 -1.0185 28.345312 C -1.0185 27.470312 -0.307562 26.759375 0.567438 26.759375 C 1.442438 26.759375 2.153375 27.470312 2.153375 28.345312 Z M 2.153375 28.345312 " transform="matrix(1,0,0,-1,25.706,253.65)"/>
<g style="fill:rgb(0%,0%,0%);fill-opacity:1;">
  <use xlink:href="#glyph0-14" x="17.869" y="228.988"/>
</g>
<path style="fill-rule:nonzero;fill:rgb(0%,0%,0%);fill-opacity:1;stroke-width:0.3985;stroke-linecap:butt;stroke-linejoin:miter;stroke:rgb(0%,0%,0%);stroke-opacity:1;stroke-miterlimit:10;" d="M 58.282281 170.079687 C 58.282281 170.958594 57.571344 171.669531 56.692438 171.669531 C 55.817438 171.669531 55.1065 170.958594 55.1065 170.079687 C 55.1065 169.204687 55.817438 168.49375 56.692438 168.49375 C 57.571344 168.49375 58.282281 169.204687 58.282281 170.079687 Z M 58.282281 170.079687 " transform="matrix(1,0,0,-1,25.706,253.65)"/>
<path style="fill-rule:nonzero;fill:rgb(0%,0%,0%);fill-opacity:1;stroke-width:0.3985;stroke-linecap:butt;stroke-linejoin:miter;stroke:rgb(0%,0%,0%);stroke-opacity:1;stroke-miterlimit:10;" d="M 115.540094 170.079687 C 115.540094 170.958594 114.829156 171.669531 113.954156 171.669531 C 113.079156 171.669531 112.368219 170.958594 112.368219 170.079687 C 112.368219 169.204687 113.079156 168.49375 113.954156 168.49375 C 114.829156 168.49375 115.540094 169.204687 115.540094 170.079687 Z M 115.540094 170.079687 " transform="matrix(1,0,0,-1,25.706,253.65)"/>
<path style="fill-rule:nonzero;fill:rgb(0%,0%,0%);fill-opacity:1;stroke-width:0.3985;stroke-linecap:butt;stroke-linejoin:miter;stroke:rgb(0%,0%,0%);stroke-opacity:1;stroke-miterlimit:10;" d="M 228.360406 170.079687 C 228.360406 170.958594 227.649469 171.669531 226.774469 171.669531 C 225.899469 171.669531 225.188531 170.958594 225.188531 170.079687 C 225.188531 169.204687 225.899469 168.49375 226.774469 168.49375 C 227.649469 168.49375 228.360406 169.204687 228.360406 170.079687 Z M 228.360406 170.079687 " transform="matrix(1,0,0,-1,25.706,253.65)"/>
<path style="fill-rule:nonzero;fill:rgb(0%,0%,0%);fill-opacity:1;stroke-width:0.3985;stroke-linecap:butt;stroke-linejoin:miter;stroke:rgb(0%,0%,0%);stroke-opacity:1;stroke-miterlimit:10;" d="M 313.403375 170.079687 C 313.403375 170.958594 312.692437 171.669531 311.813531 171.669531 C 310.938531 171.669531 310.227594 170.958594 310.227594 170.079687 C 310.227594 169.204687 310.938531 168.49375 311.813531 168.49375 C 312.692437 168.49375 313.403375 169.204687 313.403375 170.079687 Z M 313.403375 170.079687 " transform="matrix(1,0,0,-1,25.706,253.65)"/>
<path style="fill-rule:nonzero;fill:rgb(100%,100%,100%);fill-opacity:1;stroke-width:0.3985;stroke-linecap:butt;stroke-linejoin:miter;stroke:rgb(0%,0%,0%);stroke-opacity:1;stroke-miterlimit:10;" d="M 370.094781 170.079687 C 370.094781 170.958594 369.383844 171.669531 368.508844 171.669531 C 367.633844 171.669531 366.922906 170.958594 366.922906 170.079687 C 366.922906 169.204687 367.633844 168.49375 368.508844 168.49375 C 369.383844 168.49375 370.094781 169.204687 370.094781 170.079687 Z M 370.094781 170.079687 " transform="matrix(1,0,0,-1,25.706,253.65)"/>
<g style="fill:rgb(0%,0%,0%);fill-opacity:1;">
  <use xlink:href="#glyph0-15" x="397.734" y="87.244"/>
</g>
<path style="fill-rule:nonzero;fill:rgb(0%,0%,0%);fill-opacity:1;stroke-width:0.3985;stroke-linecap:butt;stroke-linejoin:miter;stroke:rgb(0%,0%,0%);stroke-opacity:1;stroke-miterlimit:10;" d="M 58.282281 206.079687 C 58.282281 206.958594 57.571344 207.669531 56.692438 207.669531 C 55.817438 207.669531 55.1065 206.958594 55.1065 206.079687 C 55.1065 205.204687 55.817438 204.49375 56.692438 204.49375 C 57.571344 204.49375 58.282281 205.204687 58.282281 206.079687 Z M 58.282281 206.079687 " transform="matrix(1,0,0,-1,25.706,253.65)"/>
<path style="fill-rule:nonzero;fill:rgb(0%,0%,0%);fill-opacity:1;stroke-width:0.3985;stroke-linecap:butt;stroke-linejoin:miter;stroke:rgb(0%,0%,0%);stroke-opacity:1;stroke-miterlimit:10;" d="M 143.321344 206.079687 C 143.321344 206.958594 142.610406 207.669531 141.735406 207.669531 C 140.8565 207.669531 140.145563 206.958594 140.145563 206.079687 C 140.145563 205.204687 140.8565 204.49375 141.735406 204.49375 C 142.610406 204.49375 143.321344 205.204687 143.321344 206.079687 Z M 143.321344 206.079687 " transform="matrix(1,0,0,-1,25.706,253.65)"/>
<path style="fill-rule:nonzero;fill:rgb(0%,0%,0%);fill-opacity:1;stroke-width:0.3985;stroke-linecap:butt;stroke-linejoin:miter;stroke:rgb(0%,0%,0%);stroke-opacity:1;stroke-miterlimit:10;" d="M 228.360406 206.079687 C 228.360406 206.958594 227.649469 207.669531 226.774469 207.669531 C 225.899469 207.669531 225.188531 206.958594 225.188531 206.079687 C 225.188531 205.204687 225.899469 204.49375 226.774469 204.49375 C 227.649469 204.49375 228.360406 205.204687 228.360406 206.079687 Z M 228.360406 206.079687 " transform="matrix(1,0,0,-1,25.706,253.65)"/>
<path style="fill-rule:nonzero;fill:rgb(0%,0%,0%);fill-opacity:1;stroke-width:0.3985;stroke-linecap:butt;stroke-linejoin:miter;stroke:rgb(0%,0%,0%);stroke-opacity:1;stroke-miterlimit:10;" d="M 313.403375 206.079687 C 313.403375 206.958594 312.692437 207.669531 311.813531 207.669531 C 310.938531 207.669531 310.227594 206.958594 310.227594 206.079687 C 310.227594 205.204687 310.938531 204.49375 311.813531 204.49375 C 312.692437 204.49375 313.403375 205.204687 313.403375 206.079687 Z M 313.403375 206.079687 " transform="matrix(1,0,0,-1,25.706,253.65)"/>
<path style="fill:none;stroke-width:0.3985;stroke-linecap:butt;stroke-linejoin:miter;stroke:rgb(0%,0%,0%);stroke-opacity:1;stroke-miterlimit:10;" d="M 325.989312 141.735937 L 325.989312 131.528906 " transform="matrix(1,0,0,-1,25.706,253.65)"/>
<path style="fill:none;stroke-width:0.797;stroke-linecap:butt;stroke-linejoin:miter;stroke:rgb(0%,0%,0%);stroke-opacity:1;stroke-miterlimit:10;" d="M 320.88775 131.528906 L 331.090875 131.528906 M 322.586969 129.829687 L 329.391656 129.829687 M 323.864312 128.126562 L 328.114312 128.126562 " transform="matrix(1,0,0,-1,25.706,253.65)"/>
<path style="fill:none;stroke-width:0.3985;stroke-linecap:butt;stroke-linejoin:miter;stroke:rgb(0%,0%,0%);stroke-opacity:1;stroke-miterlimit:10;" d="M 325.989312 85.040625 L 325.989312 74.8375 " transform="matrix(1,0,0,-1,25.706,253.65)"/>
<path style="fill:none;stroke-width:0.797;stroke-linecap:butt;stroke-linejoin:miter;stroke:rgb(0%,0%,0%);stroke-opacity:1;stroke-miterlimit:10;" d="M 320.88775 74.8375 L 331.090875 74.8375 M 322.586969 73.134375 L 329.391656 73.134375 M 323.864312 71.435156 L 328.114312 71.435156 " transform="matrix(1,0,0,-1,25.706,253.65)"/>
<path style="fill-rule:nonzero;fill:rgb(0%,0%,0%);fill-opacity:1;stroke-width:0.3985;stroke-linecap:butt;stroke-linejoin:miter;stroke:rgb(0%,0%,0%);stroke-opacity:1;stroke-miterlimit:10;" d="M 313.403375 20.692969 C 313.403375 21.567969 312.692437 22.278906 311.813531 22.278906 C 310.938531 22.278906 310.227594 21.567969 310.227594 20.692969 C 310.227594 19.817969 310.938531 19.107031 311.813531 19.107031 C 312.692437 19.107031 313.403375 19.817969 313.403375 20.692969 Z M 313.403375 20.692969 " transform="matrix(1,0,0,-1,25.706,253.65)"/>
<path style="fill-rule:nonzero;fill:rgb(0%,0%,0%);fill-opacity:1;stroke-width:0.3985;stroke-linecap:butt;stroke-linejoin:miter;stroke:rgb(0%,0%,0%);stroke-opacity:1;stroke-miterlimit:10;" d="M 58.282281 134.079687 C 58.282281 134.958594 57.571344 135.665625 56.692438 135.665625 C 55.817438 135.665625 55.1065 134.958594 55.1065 134.079687 C 55.1065 133.204687 55.817438 132.49375 56.692438 132.49375 C 57.571344 132.49375 58.282281 133.204687 58.282281 134.079687 Z M 58.282281 134.079687 " transform="matrix(1,0,0,-1,25.706,253.65)"/>
<path style="fill:none;stroke-width:0.3985;stroke-linecap:butt;stroke-linejoin:miter;stroke:rgb(0%,0%,0%);stroke-opacity:1;stroke-miterlimit:10;" d="M 56.692438 220.255469 L 56.692438 231.860937 " transform="matrix(1,0,0,-1,25.706,253.65)"/>
<path style="fill:none;stroke-width:0.3985;stroke-linecap:butt;stroke-linejoin:miter;stroke:rgb(0%,0%,0%);stroke-opacity:1;stroke-miterlimit:10;" d="M 0.0016 7.08712 L 0.0016 -7.084755 " transform="matrix(0,-1,-1,0,82.39962,21.6891)"/>
<g style="fill:rgb(0%,0%,0%);fill-opacity:1;">
  <use xlink:href="#glyph0-16" x="73.475" y="13.849"/>
  <use xlink:href="#glyph0-17" x="79.601999" y="13.849"/>
  <use xlink:href="#glyph0-17" x="85.460008" y="13.849"/>
</g>
<path style="fill:none;stroke-width:0.3985;stroke-linecap:butt;stroke-linejoin:miter;stroke:rgb(0%,0%,0%);stroke-opacity:1;stroke-miterlimit:10;" d="M 141.735406 220.255469 L 141.735406 231.860937 " transform="matrix(1,0,0,-1,25.706,253.65)"/>
<path style="fill:none;stroke-width:0.3985;stroke-linecap:butt;stroke-linejoin:miter;stroke:rgb(0%,0%,0%);stroke-opacity:1;stroke-miterlimit:10;" d="M 0.0016 7.088477 L 0.0016 -7.087304 " transform="matrix(0,-1,-1,0,167.44004,21.6891)"/>
<g style="fill:rgb(0%,0%,0%);fill-opacity:1;">
  <use xlink:href="#glyph0-16" x="158.516" y="13.849"/>
  <use xlink:href="#glyph0-17" x="164.642999" y="13.849"/>
  <use xlink:href="#glyph0-17" x="170.501008" y="13.849"/>
</g>
<path style="fill:none;stroke-width:0.3985;stroke-linecap:butt;stroke-linejoin:miter;stroke:rgb(0%,0%,0%);stroke-opacity:1;stroke-miterlimit:10;" d="M 226.774469 220.255469 L 226.774469 231.860937 " transform="matrix(1,0,0,-1,25.706,253.65)"/>
<path style="fill:none;stroke-width:0.3985;stroke-linecap:butt;stroke-linejoin:miter;stroke:rgb(0%,0%,0%);stroke-opacity:1;stroke-miterlimit:10;" d="M 0.0016 7.085949 L 0.0016 -7.085926 " transform="matrix(0,-1,-1,0,252.48048,21.6891)"/>
<g style="fill:rgb(0%,0%,0%);fill-opacity:1;">
  <use xlink:href="#glyph0-16" x="243.556" y="13.849"/>
  <use xlink:href="#glyph0-17" x="249.682999" y="13.849"/>
  <use xlink:href="#glyph0-17" x="255.541008" y="13.849"/>
</g>
<path style="fill:none;stroke-width:0.3985;stroke-linecap:butt;stroke-linejoin:miter;stroke:rgb(0%,0%,0%);stroke-opacity:1;stroke-miterlimit:10;" d="M 311.813531 220.255469 L 311.813531 231.860937 " transform="matrix(1,0,0,-1,25.706,253.65)"/>
<path style="fill:none;stroke-width:0.3985;stroke-linecap:butt;stroke-linejoin:miter;stroke:rgb(0%,0%,0%);stroke-opacity:1;stroke-miterlimit:10;" d="M 0.0016 7.087306 L 0.0016 -7.088475 " transform="matrix(0,-1,-1,0,337.5209,21.6891)"/>
<g style="fill:rgb(0%,0%,0%);fill-opacity:1;">
  <use xlink:href="#glyph0-16" x="328.597" y="13.849"/>
  <use xlink:href="#glyph0-17" x="334.723999" y="13.849"/>
  <use xlink:href="#glyph0-17" x="340.582008" y="13.849"/>
</g>
<path style="fill:none;stroke-width:0.3985;stroke-linecap:butt;stroke-linejoin:miter;stroke:rgb(0%,0%,0%);stroke-opacity:1;stroke-miterlimit:10;" d="M 311.813531 6.521094 L 311.813531 -3.685938 " transform="matrix(1,0,0,-1,25.706,253.65)"/>
<path style="fill:none;stroke-width:0.797;stroke-linecap:butt;stroke-linejoin:miter;stroke:rgb(0%,0%,0%);stroke-opacity:1;stroke-miterlimit:10;" d="M 306.711969 -3.685938 L 316.919 -3.685938 M 308.415094 -5.385156 L 315.215875 -5.385156 M 309.688531 -7.084375 L 313.942437 -7.084375 " transform="matrix(1,0,0,-1,25.706,253.65)"/>
<path style="fill:none;stroke-width:0.3985;stroke-linecap:butt;stroke-linejoin:miter;stroke:rgb(0%,0%,0%);stroke-opacity:1;stroke-miterlimit:10;" d="M 56.692438 119.907812 L 56.692438 109.700781 " transform="matrix(1,0,0,-1,25.706,253.65)"/>
<path style="fill:none;stroke-width:0.797;stroke-linecap:butt;stroke-linejoin:miter;stroke:rgb(0%,0%,0%);stroke-opacity:1;stroke-miterlimit:10;" d="M 51.590875 109.700781 L 61.794 109.700781 M 53.294 108.001562 L 60.094781 108.001562 M 54.567438 106.302344 L 58.821344 106.302344 " transform="matrix(1,0,0,-1,25.706,253.65)"/>
</g>
</svg>
